<svg width="45" height="45" viewBox="0 0 45 45" fill="none" xmlns="http://www.w3.org/2000/svg">
<g clip-path="url(#clip0_495_608)">
<path d="M10.6046 45.0858C9.96735 45.0858 9.33495 44.908 8.77979 44.5578C7.81918 43.9511 7.22385 42.9112 7.18746 41.7752L7.07657 38.1373C2.5145 34.0466 0 28.3032 0 21.9661C0 15.9178 2.31846 10.3556 6.5276 6.30409C10.6928 2.29546 16.3652 0.0878906 22.5 0.0878906C28.6348 0.0878906 34.3072 2.29546 38.4724 6.30409C42.6815 10.3556 45 15.9178 45 21.9661C45 26.2556 43.8245 30.3549 41.6004 33.8204C41.0758 34.6375 39.9885 34.8751 39.1714 34.3505C38.3546 33.8262 38.1171 32.7386 38.6417 31.9218C40.5014 29.0238 41.4844 25.581 41.4844 21.9661C41.4844 11.4975 33.3229 3.60352 22.5 3.60352C11.6771 3.60352 3.51562 11.4975 3.51562 21.9661C3.51562 27.2983 5.62122 32.1185 9.44447 35.5387C10.1497 36.1739 10.5544 37.0342 10.5884 37.9653C10.5888 37.9687 10.5888 37.9725 10.5888 37.9763L10.6973 41.5211L14.6788 39.7643C15.3956 39.4488 16.2041 39.388 16.9571 39.5934C18.7265 40.0816 20.5898 40.3284 22.5 40.3284C26.4211 40.3284 30.1362 39.2789 33.2426 37.2927C34.0607 36.7699 35.1477 37.0092 35.6705 37.8273C36.1934 38.6451 35.9541 39.7321 35.1363 40.2549C31.4631 42.6033 27.0937 43.8444 22.5 43.8444C20.2883 43.8444 18.124 43.5584 16.0668 42.9947L11.983 44.7964C11.5405 44.9904 11.0715 45.0858 10.6046 45.0858ZM11.4378 29.1471L18.0073 24.082C18.4512 23.749 19.0623 23.7445 19.5103 24.0779L24.3715 27.8565C25.8285 28.9438 27.9139 28.5603 28.8851 27.0274L34.9952 17.3381C35.5854 16.4132 34.4384 15.3678 33.5632 16.0301L26.9968 21.0059C26.5529 21.3392 25.9418 21.3433 25.4938 21.01L20.6327 17.3196C19.1756 16.2323 17.0903 16.6154 16.119 18.1484L10.0058 27.8387C9.41563 28.7636 10.5627 29.8093 11.4378 29.1471Z" fill="url(#paint0_linear_495_608)"/>
</g>
<defs>
<linearGradient id="paint0_linear_495_608" x1="37.8" y1="0.0878915" x2="11.7018" y2="45.0869" gradientUnits="userSpaceOnUse">
<stop stop-color="#EC6A6A"/>
<stop offset="1" stop-color="#F47E51"/>
</linearGradient>
<clipPath id="clip0_495_608">
<rect width="45" height="45" fill="white"/>
</clipPath>
</defs>
</svg>
