<svg width="40" height="40" viewBox="0 0 40 40" fill="none" xmlns="http://www.w3.org/2000/svg">
<g clip-path="url(#clip0_495_595)">
<path fill-rule="evenodd" clip-rule="evenodd" d="M23.9824 40C19.7397 40.0121 15.6685 38.2239 12.6759 35.0335L4.68175 26.5529C1.67428 23.3783 -0.0114466 19.0595 5.85076e-05 14.5585C0.0167147 9.22661 2.38284 4.20969 6.39535 0.998559L7.21527 0.346216C7.77229 -0.0954659 8.53136 -0.116382 9.10925 0.294029C12.6152 2.76976 15.1239 6.54455 16.1441 10.8794L16.3491 11.7492C16.4851 12.34 16.3203 12.9634 15.9145 13.3931L13.7336 15.7155C12.8662 16.6387 12.8662 18.1321 13.7336 19.0553L19.7435 25.4309C20.6227 26.3279 22.0127 26.3279 22.8919 25.4309L25.0811 23.1173C25.4879 22.6837 26.0793 22.5088 26.6389 22.6563L27.4588 22.8737C31.5451 23.956 35.1033 26.6173 37.4371 30.3365C37.824 30.9496 37.8043 31.7549 37.3879 32.3457L36.7729 33.2156C33.7443 37.4747 29.0115 39.9849 23.9824 40ZM12.93 11.6361C12.1941 8.57605 10.5321 5.85663 8.19915 3.89496C5.09745 6.44323 3.27155 10.3621 3.24689 14.5237C3.22819 18.1135 4.56937 21.5608 6.96929 24.0915L14.9635 32.5719C17.3491 35.1179 20.5985 36.5407 23.9824 36.5208C27.9113 36.5136 31.6187 34.5889 34.0345 31.302C32.1852 28.8173 29.6143 27.05 26.7209 26.2747L25.1959 27.8924C23.0179 30.1037 19.5848 30.1037 17.4068 27.8924L11.3968 21.5169C9.24701 19.2347 9.24701 15.5361 11.3968 13.2539L12.93 11.6361Z" fill="url(#paint0_linear_495_595)"/>
<path d="M27.0475 17.1428C27.8891 17.1428 28.5714 16.4607 28.5714 15.6191V15.0095C28.5671 11.14 25.4314 8.0042 21.5618 8H20.9523C20.1107 8 19.4285 8.68223 19.4285 9.52381C19.4285 10.3654 20.1107 11.0476 20.9523 11.0476H21.5618C23.7499 11.0476 25.5238 12.8214 25.5238 15.0095V15.6191C25.5238 16.4607 26.2059 17.1428 27.0475 17.1428Z" fill="url(#paint1_linear_495_595)"/>
<path d="M37.2381 20.5715C38.1322 20.5715 38.8571 19.8039 38.8571 18.8572V18C38.8571 8.05888 31.2459 0 21.8571 0H21.0475C20.1534 0 19.4285 0.767512 19.4285 1.71428C19.4285 2.66105 20.1534 3.42857 21.0475 3.42857H21.8571C29.4575 3.42857 35.619 9.95243 35.619 18V18.8572C35.619 19.3119 35.7895 19.7479 36.0931 20.0693C36.3969 20.3908 36.8086 20.5715 37.2381 20.5715Z" fill="url(#paint2_linear_495_595)"/>
</g>
<defs>
<linearGradient id="paint0_linear_495_595" x1="31.68" y1="7.78199e-07" x2="7.82382" y2="38.7809" gradientUnits="userSpaceOnUse">
<stop stop-color="#EC6A6A"/>
<stop offset="1" stop-color="#F47E51"/>
</linearGradient>
<linearGradient id="paint1_linear_495_595" x1="27.1085" y1="8" x2="21.8057" y2="17.1429" gradientUnits="userSpaceOnUse">
<stop stop-color="#EC6A6A"/>
<stop offset="1" stop-color="#F47E51"/>
</linearGradient>
<linearGradient id="paint2_linear_495_595" x1="35.7485" y1="4.00217e-07" x2="23.489" y2="19.9629" gradientUnits="userSpaceOnUse">
<stop stop-color="#EC6A6A"/>
<stop offset="1" stop-color="#F47E51"/>
</linearGradient>
<clipPath id="clip0_495_595">
<rect width="40" height="40" fill="white"/>
</clipPath>
</defs>
</svg>
