<svg width="45" height="45" viewBox="0 0 45 45" fill="none" xmlns="http://www.w3.org/2000/svg">
<g clip-path="url(#clip0_495_595)">
<path fill-rule="evenodd" clip-rule="evenodd" d="M26.9802 45C22.2072 45.0137 17.6271 43.0019 14.2603 39.4127L5.26697 29.872C1.88357 26.3005 -0.0128775 21.4419 6.5821e-05 16.3783C0.018804 10.3799 2.6807 4.7359 7.19477 1.12338L8.11717 0.389493C8.74383 -0.107399 9.59778 -0.130929 10.2479 0.330783C14.1921 3.11598 17.0143 7.36261 18.1621 12.2393L18.3927 13.2178C18.5457 13.8825 18.3603 14.5838 17.9038 15.0672L15.4503 17.6799C14.4745 18.7185 14.4745 20.3987 15.4503 21.4373L22.2114 28.6098C23.2005 29.6189 24.7642 29.6189 25.7533 28.6098L28.2162 26.007C28.6739 25.5192 29.3393 25.3224 29.9688 25.4883L30.8912 25.733C35.4882 26.9505 39.4913 29.9445 42.1167 34.1286C42.552 34.8183 42.5298 35.7243 42.0613 36.389L41.3696 37.3675C37.9623 42.159 32.6379 44.983 26.9802 45ZM14.5463 13.0906C13.7183 9.64806 11.8487 6.58871 9.22404 4.38183C5.73464 7.24863 3.68049 11.6574 3.65275 16.3392C3.63171 20.3777 5.14055 24.2559 7.84046 27.1029L16.8339 36.6433C19.5177 39.5076 23.1733 41.1083 26.9802 41.0859C31.4002 41.0778 35.571 38.9125 38.2888 35.2147C36.2083 32.4195 33.3161 30.4312 30.0611 29.559L28.3454 31.379C25.8951 33.8667 22.0329 33.8667 19.5827 31.379L12.8214 24.2065C10.4029 21.639 10.4029 17.4782 12.8214 14.9106L14.5463 13.0906Z" fill="url(#paint0_linear_495_595)"/>
<path d="M30.4286 19.2856C31.3754 19.2856 32.143 18.5183 32.143 17.5715V16.8857C32.1382 12.5325 28.6105 9.00473 24.2572 9H23.5715C22.6247 9 21.8572 9.7675 21.8572 10.7143C21.8572 11.6611 22.6247 12.4286 23.5715 12.4286H24.2572C26.7188 12.4286 28.7144 14.4241 28.7144 16.8857V17.5715C28.7144 18.5183 29.4818 19.2856 30.4286 19.2856Z" fill="url(#paint1_linear_495_595)"/>
<path d="M41.893 23.1429C42.8989 23.1429 43.7144 22.2794 43.7144 21.2144V20.25C43.7144 9.06624 35.1518 0 24.5894 0H23.6786C22.6727 0 21.8572 0.863451 21.8572 1.92856C21.8572 2.99369 22.6727 3.85714 23.6786 3.85714H24.5894C33.1399 3.85714 40.0715 11.1965 40.0715 20.25V21.2144C40.0715 21.7259 40.2634 22.2164 40.6049 22.578C40.9466 22.9397 41.4098 23.1429 41.893 23.1429Z" fill="url(#paint2_linear_495_595)"/>
</g>
<defs>
<linearGradient id="paint0_linear_495_595" x1="35.64" y1="8.75474e-07" x2="8.80179" y2="43.6285" gradientUnits="userSpaceOnUse">
<stop stop-color="#EC6A6A"/>
<stop offset="1" stop-color="#F47E51"/>
</linearGradient>
<linearGradient id="paint1_linear_495_595" x1="30.4973" y1="9" x2="24.5316" y2="19.2857" gradientUnits="userSpaceOnUse">
<stop stop-color="#EC6A6A"/>
<stop offset="1" stop-color="#F47E51"/>
</linearGradient>
<linearGradient id="paint2_linear_495_595" x1="40.2173" y1="4.50244e-07" x2="26.4253" y2="22.4583" gradientUnits="userSpaceOnUse">
<stop stop-color="#EC6A6A"/>
<stop offset="1" stop-color="#F47E51"/>
</linearGradient>
<clipPath id="clip0_495_595">
<rect width="45" height="45" fill="white"/>
</clipPath>
</defs>
</svg>
