<svg width="40" height="40" viewBox="0 0 40 40" fill="none" xmlns="http://www.w3.org/2000/svg">
<path d="M34.9795 39.9983H4.96481C4.3098 40.0126 3.65876 39.8927 3.05148 39.6459C2.4442 39.399 1.89343 39.0305 1.43283 38.5627C0.965532 38.1013 0.597518 37.5485 0.351557 36.9386C0.105596 36.3287 -0.0130776 35.6746 0.00287875 35.0167V4.99816C-0.0197849 4.34114 0.0915637 3.68641 0.330087 3.07416C0.568611 2.46192 0.929274 1.90508 1.38993 1.43785C1.85551 0.964717 2.41326 0.593038 3.02835 0.34603C3.64344 0.0990219 4.30264 -0.0180097 4.96481 0.00224396H34.9938C35.6558 -0.017149 36.3148 0.100278 36.9297 0.347237C37.5447 0.594195 38.1025 0.965414 38.5686 1.43785C39.0335 1.89809 39.4 2.44862 39.6459 3.05581C39.8917 3.66301 40.0117 4.31414 39.9986 4.96945V34.988C40.0145 35.6459 39.8959 36.3 39.6499 36.9099C39.4039 37.5198 39.0359 38.0726 38.5686 38.534C38.1033 39.0134 37.5443 39.391 36.9266 39.643C36.3089 39.895 35.646 40.016 34.9795 39.9983V39.9983ZM27.2863 30.3654C27.5707 30.3909 27.8541 30.3073 28.0796 30.1315C28.3051 29.9557 28.4559 29.7008 28.5018 29.4179L32.4627 10.3961C32.4741 10.2735 32.4567 10.1499 32.412 10.0352C32.3674 9.92056 32.2966 9.81798 32.2054 9.73567C32.0466 9.58447 31.8378 9.49755 31.6191 9.49162C31.5428 9.49162 23.6638 12.4155 7.982 18.2632C7.80503 18.3199 7.65164 18.4336 7.54563 18.5868C7.43963 18.7399 7.38693 18.9239 7.39572 19.1102C7.4057 19.2841 7.47072 19.4503 7.58131 19.5846C7.69191 19.7189 7.8423 19.8142 8.0106 19.8567L13.7304 21.6369L16.0326 28.5709C16.0928 28.7598 16.2141 28.9232 16.3773 29.0351C16.5405 29.1469 16.7363 29.2008 16.9335 29.1882C17.0402 29.1878 17.1458 29.166 17.244 29.1241C17.3422 29.0822 17.4311 29.021 17.5055 28.9441L20.7515 25.8432L26.5999 30.15C26.8037 30.2858 27.0418 30.3605 27.2863 30.3654V30.3654ZM16.8334 26.8625L15.1032 21.12C23.4159 15.8083 27.6009 13.1524 27.6581 13.1524C27.8726 13.1524 27.987 13.1524 27.987 13.3821C27.9918 13.4106 27.9918 13.4397 27.987 13.4683C27.987 13.4683 24.3978 16.7702 17.2338 23.2304L16.8334 26.8625Z" fill="#2F3338"/>
</svg>
