<svg width="45" height="45" viewBox="0 0 45 45" fill="none" xmlns="http://www.w3.org/2000/svg">
<g clip-path="url(#clip0_495_604)">
<path d="M21.7417 7.58423C20.6293 7.58423 19.7192 8.49434 19.7192 9.60671V23.764C19.7192 24.8764 20.6293 25.7865 21.7417 25.7865H31.3484C32.4607 25.7865 33.3709 24.8764 33.3709 23.764C33.3709 22.6516 32.4607 21.7416 31.3484 21.7416H23.7641V9.60671C23.7641 8.49434 22.8539 7.58423 21.7417 7.58423Z" fill="url(#paint0_linear_495_604)"/>
<path d="M26.8989 0.151623C25.7865 -0.0506243 24.7247 0.65724 24.5225 1.76959C24.3203 2.88196 25.0281 3.94375 26.1405 4.146C33.4719 5.51118 39.1854 11.1235 40.7528 18.4045C40.9551 19.3651 41.8146 20.0224 42.7247 20.0224C42.8765 20.0224 43.0281 20.0224 43.1292 19.9719C44.2416 19.7191 44.8989 18.6573 44.6966 17.5954C42.8765 8.646 35.8484 1.82016 26.8989 0.151623Z" fill="url(#paint1_linear_495_604)"/>
<path d="M22.7529 44.7472C33.8766 44.7472 43.1799 36.809 44.9496 25.8371C45.1518 24.7247 44.3934 23.7135 43.281 23.5111C42.1687 23.3089 41.1574 24.0674 40.9552 25.1798C39.489 34.1798 31.8541 40.6517 22.7529 40.6517C12.59 40.6517 4.29788 32.3595 4.29788 22.1965C4.29788 13.2977 10.6181 5.71347 19.3147 4.04493C20.4271 3.84268 21.135 2.78088 20.9328 1.66852C20.7304 0.556167 19.6687 -0.151698 18.5563 0.0505489C7.98888 2.12358 0.25293 11.427 0.25293 22.2473C0.25293 34.6349 10.3653 44.7472 22.7529 44.7472Z" fill="url(#paint2_linear_495_604)"/>
</g>
<defs>
<linearGradient id="paint0_linear_495_604" x1="31.1866" y1="7.58423" x2="19.4149" y2="22.8062" gradientUnits="userSpaceOnUse">
<stop stop-color="#EC6A6A"/>
<stop offset="1" stop-color="#F47E51"/>
</linearGradient>
<linearGradient id="paint1_linear_495_604" x1="41.4938" y1="0.117188" x2="30.0466" y2="20.1906" gradientUnits="userSpaceOnUse">
<stop stop-color="#EC6A6A"/>
<stop offset="1" stop-color="#F47E51"/>
</linearGradient>
<linearGradient id="paint2_linear_495_604" x1="37.8255" y1="0.0161142" x2="11.8809" y2="44.7463" gradientUnits="userSpaceOnUse">
<stop stop-color="#EC6A6A"/>
<stop offset="1" stop-color="#F47E51"/>
</linearGradient>
<clipPath id="clip0_495_604">
<rect width="45" height="45" fill="white"/>
</clipPath>
</defs>
</svg>
