<svg width="40" height="40" viewBox="0 0 40 40" fill="none" xmlns="http://www.w3.org/2000/svg">
<g clip-path="url(#clip0_495_604)">
<path d="M19.3258 6.74146C18.337 6.74146 17.5281 7.55044 17.5281 8.53922V21.1235C17.5281 22.1123 18.337 22.9212 19.3258 22.9212H27.8651C28.8538 22.9212 29.6629 22.1123 29.6629 21.1235C29.6629 20.1347 28.8538 19.3257 27.8651 19.3257H21.1235V8.53922C21.1235 7.55044 20.3145 6.74146 19.3258 6.74146Z" fill="url(#paint0_linear_495_604)"/>
<path d="M23.9101 0.134858C22.9213 -0.044918 21.9774 0.584295 21.7977 1.57305C21.618 2.56183 22.2472 3.50564 23.236 3.68541C29.7528 4.89891 34.8314 9.88767 36.2246 16.3596C36.4045 17.2135 37.1685 17.7978 37.9774 17.7978C38.1124 17.7978 38.2472 17.7978 38.337 17.7528C39.3258 17.5282 39.9101 16.5843 39.7302 15.6404C38.1124 7.68541 31.8652 1.618 23.9101 0.134858Z" fill="url(#paint1_linear_495_604)"/>
<path d="M20.2248 39.7754C30.1125 39.7754 38.3821 32.7192 39.9552 22.9663C40.1349 21.9775 39.4608 21.0787 38.472 20.8989C37.4833 20.7191 36.5844 21.3933 36.4047 22.3821C35.1013 30.3821 28.3148 36.1349 20.2248 36.1349C11.1911 36.1349 3.82036 28.7641 3.82036 19.7303C3.82036 11.8203 9.43834 5.07872 17.1687 3.59557C18.1575 3.4158 18.7867 2.47197 18.6069 1.48321C18.4271 0.494452 17.4833 -0.134761 16.4945 0.0450137C7.10126 1.88771 0.224854 10.1574 0.224854 19.7754C0.224854 30.7866 9.21362 39.7754 20.2248 39.7754Z" fill="url(#paint2_linear_495_604)"/>
</g>
<defs>
<linearGradient id="paint0_linear_495_604" x1="27.7213" y1="6.74146" x2="17.2576" y2="20.2721" gradientUnits="userSpaceOnUse">
<stop stop-color="#EC6A6A"/>
<stop offset="1" stop-color="#F47E51"/>
</linearGradient>
<linearGradient id="paint1_linear_495_604" x1="36.8833" y1="0.104248" x2="26.708" y2="17.9472" gradientUnits="userSpaceOnUse">
<stop stop-color="#EC6A6A"/>
<stop offset="1" stop-color="#F47E51"/>
</linearGradient>
<linearGradient id="paint2_linear_495_604" x1="33.6227" y1="0.0144051" x2="10.5609" y2="39.7746" gradientUnits="userSpaceOnUse">
<stop stop-color="#EC6A6A"/>
<stop offset="1" stop-color="#F47E51"/>
</linearGradient>
<clipPath id="clip0_495_604">
<rect width="40" height="40" fill="white"/>
</clipPath>
</defs>
</svg>
