<svg width="40" height="40" viewBox="0 0 40 40" fill="none" xmlns="http://www.w3.org/2000/svg">
<path fill-rule="evenodd" clip-rule="evenodd" d="M5 0C2.23858 0 0 2.23858 0 5V35C0 37.7614 2.23858 40 5 40H35C37.7614 40 40 37.7614 40 35V5C40 2.23858 37.7614 0 35 0H5ZM31.3403 8.70739C33.672 10.8062 34.9647 15.4464 34.0915 22.7964C33.3274 29.2812 28.9557 30.4298 27.4882 30.8153C27.3443 30.8531 27.2283 30.8836 27.1464 30.9111C26.7501 31.0428 23.2623 31.9452 18.7208 31.5513C18.5625 31.7404 18.412 31.9204 18.2689 32.0916C15.9573 34.8571 15.5589 35.3336 14.7367 35.0672C13.9732 34.8269 14.0184 33.6318 14.0184 33.6318L14.0245 30.6818H14.0184C7.383 28.7501 7.47568 21.6293 7.55373 17.8281C7.63178 14.0281 8.34398 10.9586 10.3659 8.86715C14.8684 4.59154 27.5781 5.12203 31.3415 8.70617L31.3403 8.70739ZM15.4001 33.9903C16.294 33.0598 19.1684 29.4757 19.1684 29.4757C23.0196 29.733 26.0867 28.944 26.4171 28.8342C26.4942 28.8086 26.6052 28.7818 26.7435 28.7484C27.9933 28.4466 31.4663 27.608 32.1086 22.2562C32.108 22.2296 32.1173 22.1353 32.1324 21.9835C32.2852 20.4443 33.0251 12.9909 29.8659 10.1903C27.0269 7.52203 15.8842 6.69398 11.9342 10.3976C10.222 12.1476 9.64154 14.7464 9.58056 17.9196C9.57847 18.0284 9.57606 18.1406 9.57358 18.2559L9.57358 18.256L9.57357 18.2563L9.57357 18.2566C9.50382 21.503 9.38121 27.2104 14.8135 28.7671C14.8135 28.7671 14.7915 33.2708 14.7915 33.6647C14.7867 34.2647 15.1074 34.2928 15.4001 33.9903ZM20.7586 11.094C20.2891 11.094 20.2891 11.8257 20.7586 11.8318C24.4013 11.8598 27.4013 14.3989 27.4342 19.0562C27.4342 19.5476 28.1537 19.5415 28.1476 19.0501H28.1464C28.1074 14.0318 24.8318 11.122 20.7586 11.094ZM26.2635 18.3013C26.2574 18.7928 25.5391 18.7696 25.5501 18.2842C25.6062 15.861 24.1415 13.9635 21.3611 13.7525C20.8928 13.7184 20.9415 12.9806 21.4111 13.0147C24.6171 13.255 26.3232 15.5342 26.2635 18.3013ZM24.7818 21.4318C24.1793 21.083 23.5659 21.3001 23.3123 21.6428L22.7818 22.3293C22.5123 22.6781 22.0086 22.6318 22.0086 22.6318C18.333 21.6598 17.3501 17.8135 17.3501 17.8135C17.3501 17.8135 17.305 17.2928 17.6415 17.0135L18.305 16.4647C18.6367 16.2013 18.8464 15.5671 18.5086 14.944C17.8282 13.7146 17.3162 13.0925 16.9732 12.6758C16.8613 12.5399 16.7674 12.4258 16.6915 12.3196C16.3671 11.9135 15.8793 11.822 15.372 12.0964H15.361C14.3062 12.7135 13.1513 13.8684 13.5208 15.0574C13.6301 15.2748 13.7553 15.5746 13.9069 15.9375L13.9069 15.9376C14.6293 17.6676 15.9501 20.831 19.0025 23.3269C20.7379 24.755 23.4842 26.2184 24.6501 26.5562L24.661 26.5732C25.8098 26.9562 26.9269 25.7562 27.5232 24.6696V24.6611C27.7879 24.1354 27.7001 23.6379 27.3135 23.3123C26.6281 22.644 25.594 21.9062 24.7818 21.4318ZM23.7147 17.6745C23.6537 16.4171 23.0854 15.805 21.9135 15.7367C21.4391 15.7086 21.483 14.9708 21.9525 14.9989C23.494 15.0842 24.3501 15.9989 24.4281 17.6403C24.4501 18.1318 23.7367 18.1659 23.7147 17.6745Z" fill="#2F3338"/>
</svg>
