<svg width="60" height="37" viewBox="0 0 60 37" fill="none" xmlns="http://www.w3.org/2000/svg">
<path d="M57.2834 20.9569H2.7166C1.99612 20.9569 1.30514 20.6707 0.795675 20.1612C0.286213 19.6518 0 18.9608 0 18.2403C0 17.5198 0.286213 16.8288 0.795675 16.3194C1.30514 15.8099 1.99612 15.5237 2.7166 15.5237H57.2834C58.0039 15.5237 58.6949 15.8099 59.2043 16.3194C59.7138 16.8288 60 17.5198 60 18.2403C60 18.9608 59.7138 19.6518 59.2043 20.1612C58.6949 20.6707 58.0039 20.9569 57.2834 20.9569Z" fill="#2F3338"/>
<path d="M57.2834 5.43321H2.7166C1.99612 5.43321 1.30514 5.147 0.795675 4.63753C0.286213 4.12807 0 3.43709 0 2.7166C0 1.99612 0.286213 1.30514 0.795675 0.795675C1.30514 0.286213 1.99612 0 2.7166 0H57.2834C58.0039 0 58.6949 0.286213 59.2043 0.795675C59.7138 1.30514 60 1.99612 60 2.7166C60 3.43709 59.7138 4.12807 59.2043 4.63753C58.6949 5.147 58.0039 5.43321 57.2834 5.43321Z" fill="#2F3338"/>
<path d="M57.2834 36.4808H2.7166C1.99612 36.4808 1.30514 36.1946 0.795675 35.6851C0.286213 35.1757 0 34.4847 0 33.7642C0 33.0437 0.286213 32.3527 0.795675 31.8433C1.30514 31.3338 1.99612 31.0476 2.7166 31.0476H57.2834C58.0039 31.0476 58.6949 31.3338 59.2043 31.8433C59.7138 32.3527 60 33.0437 60 33.7642C60 34.4847 59.7138 35.1757 59.2043 35.6851C58.6949 36.1946 58.0039 36.4808 57.2834 36.4808Z" fill="#2F3338"/>
</svg>
