<svg width="25" height="25" viewBox="0 0 25 25" fill="none" xmlns="http://www.w3.org/2000/svg">
<g clip-path="url(#clip0_591_212)">
<path d="M9.37163 17.0602L9.37163 17.0602L5.54414 13.2314C5.35324 13.033 5.24765 12.7677 5.25004 12.4923C5.25244 12.2163 5.36317 11.9522 5.55838 11.757C5.75358 11.5618 6.01765 11.4511 6.29371 11.4487C6.56907 11.4463 6.83439 11.5518 7.0328 11.7427L9.93914 14.6497L10.116 14.8266L10.2927 14.6497L17.2529 7.68693C17.4513 7.49605 17.7166 7.39047 17.992 7.39286C18.2681 7.39526 18.5321 7.50599 18.7273 7.7012C18.9225 7.8964 19.0333 8.16047 19.0357 8.43653C19.0381 8.7119 18.9325 8.97723 18.7416 9.17564L10.8609 17.0602C10.7631 17.158 10.647 17.2356 10.5193 17.2886C10.3915 17.3415 10.2546 17.3688 10.1163 17.3688C9.97797 17.3688 9.84103 17.3415 9.71326 17.2886C9.58549 17.2356 9.46941 17.158 9.37163 17.0602Z" fill="#2F3338" stroke="#FAFAFA" stroke-width="0.5"/>
<path d="M12.5 25C14.9723 25 17.389 24.2669 19.4446 22.8934C21.5002 21.5199 23.1024 19.5676 24.0485 17.2835C24.9946 14.9995 25.2421 12.4861 24.7598 10.0614C24.2775 7.63661 23.087 5.40933 21.3388 3.66117C19.5907 1.91301 17.3634 0.722505 14.9386 0.24019C12.5139 -0.242126 10.0005 0.00541603 7.71646 0.951511C5.43238 1.89761 3.48015 3.49976 2.10663 5.55538C0.733112 7.61099 0 10.0277 0 12.5C0.00373082 15.8141 1.32189 18.9913 3.66529 21.3347C6.00868 23.6781 9.18594 24.9963 12.5 25V25ZM12.5 1.06384C14.7619 1.06384 16.9729 1.73455 18.8536 2.99118C20.7343 4.2478 22.2001 6.03388 23.0656 8.12357C23.9312 10.2133 24.1577 12.5127 23.7164 14.7311C23.2752 16.9495 22.186 18.9872 20.5866 20.5866C18.9872 22.186 16.9495 23.2752 14.7311 23.7164C12.5127 24.1577 10.2133 23.9312 8.12356 23.0656C6.03388 22.2001 4.24779 20.7343 2.99117 18.8536C1.73455 16.9729 1.06383 14.7619 1.06383 12.5C1.06728 9.468 2.27326 6.56117 4.41721 4.41722C6.56117 2.27327 9.468 1.06728 12.5 1.06384V1.06384Z" fill="#2F3338"/>
</g>
<defs>
<clipPath id="clip0_591_212">
<rect width="25" height="25" fill="white"/>
</clipPath>
</defs>
</svg>
