<svg width="48" height="47" viewBox="0 0 48 47" fill="none" xmlns="http://www.w3.org/2000/svg">
<path d="M41.3711 44.9299L2.78659 6.34531C2.27713 5.83584 1.99091 5.14487 1.99091 4.42438C1.99091 3.70389 2.27713 3.01291 2.78659 2.50345C3.29605 1.99399 3.98703 1.70777 4.70752 1.70777C5.42801 1.70777 6.11899 1.99399 6.62845 2.50345L45.213 41.088C45.7225 41.5975 46.0087 42.2884 46.0087 43.0089C46.0087 43.7294 45.7225 44.4204 45.213 44.9299C44.7035 45.4393 44.0125 45.7255 43.2921 45.7255C42.5716 45.7255 41.8806 45.4393 41.3711 44.9299Z" fill="#2F3338"/>
<path d="M45.2131 6.34517L6.62851 44.9297C6.11905 45.4392 5.42807 45.7254 4.70758 45.7254C3.98709 45.7254 3.29611 45.4392 2.78665 44.9297C2.27719 44.4203 1.99098 43.7293 1.99098 43.0088C1.99098 42.2883 2.27719 41.5973 2.78665 41.0879L41.3712 2.50331C41.8807 1.99385 42.5716 1.70764 43.2921 1.70764C44.0126 1.70764 44.7036 1.99385 45.2131 2.50331C45.7225 3.01278 46.0087 3.70376 46.0087 4.42425C46.0087 5.14474 45.7225 5.83571 45.2131 6.34517Z" fill="#2F3338"/>
</svg>
