<svg width="30" height="25" viewBox="0 0 30 25" fill="none" xmlns="http://www.w3.org/2000/svg">
<g clip-path="url(#clip0_244_12811)">
<path fill-rule="evenodd" clip-rule="evenodd" d="M23.1818 20.8333V18.0556C25.4412 18.0556 27.2727 16.1901 27.2727 13.8889C27.2727 11.5877 25.4412 9.72222 23.1818 9.72222C23.1391 9.72237 23.1391 9.72237 23.0966 9.7231L21.9188 9.74747L21.724 8.56411C21.1777 5.24481 18.3424 2.77778 15 2.77778C12.5351 2.77778 10.3013 4.12004 9.09057 6.25553L8.71454 6.91876L7.96317 6.94881C5.04455 7.06549 2.72727 9.5145 2.72727 12.5C2.72727 15.0886 4.4656 17.2637 6.81818 17.8806V20.7181C2.94858 20.0569 0 16.6292 0 12.5C0 8.27607 3.0914 4.76869 7.11803 4.23649C8.87594 1.61815 11.8001 0 15 0C19.3072 0 23.0114 2.92447 24.171 7.017C27.4679 7.50504 30 10.3958 30 13.8889C30 17.7242 26.9474 20.8333 23.1818 20.8333ZM13.6364 19.7962V11.1111H16.3636V19.7962L19.4903 16.6796L21.4188 18.6018L15 25L8.58121 18.6018L10.5097 16.6796L13.6364 19.7962Z" fill="#2F3338"/>
</g>
<defs>
<clipPath id="clip0_244_12811">
<rect width="30" height="25" fill="white"/>
</clipPath>
</defs>
</svg>
