<svg width="204" height="36" viewBox="0 0 204 36" fill="none" xmlns="http://www.w3.org/2000/svg">
<path d="M55.0001 11L51.1334 26H48.4867L45.8006 15.5084C45.6891 15.0621 45.6202 14.574 45.594 14.0439H45.5546C45.5219 14.539 45.4431 15.0203 45.3185 15.4875L42.6226 26H39.9169L35.9714 11H38.5394L41.0976 21.9833C41.2024 22.4435 41.268 22.9246 41.2943 23.4268H41.3435C41.3698 23.0711 41.4616 22.59 41.6191 21.9833L44.5117 11H46.9222L49.5985 22.0669C49.6903 22.4435 49.7592 22.8899 49.8052 23.4058H49.8445C49.8642 23.0572 49.9396 22.5969 50.0707 22.0252L52.5798 11H55.0001ZM66.8936 26H58.9732V11H66.5788V13.1131H61.3149V17.3598H66.1655V19.4624H61.3149V23.8974H66.8936V26ZM71.4176 26V11H75.8944C77.2588 11 78.3377 11.3173 79.1315 11.9519C79.9316 12.5865 80.3318 13.4128 80.3318 14.4309C80.3318 15.2817 80.1055 16.0209 79.653 16.6485C79.2003 17.2762 78.5739 17.7226 77.7736 17.9874V18.0293C78.7445 18.1479 79.5185 18.5314 80.0957 19.1799C80.6794 19.8215 80.9714 20.6582 80.9714 21.6904C80.9714 22.9735 80.4957 24.0125 79.5446 24.8075C78.5935 25.6025 77.3932 26 75.9436 26H71.4176ZM73.7495 12.9979V17.2657H75.2647C76.0781 17.2657 76.7143 17.0634 77.1734 16.659C77.6392 16.2476 77.8721 15.6687 77.8721 14.9226C77.8721 13.6395 77.0652 12.9979 75.4516 12.9979H73.7495ZM73.7495 19.2637V24.0125H75.7468C76.6192 24.0125 77.2915 23.7999 77.7639 23.3745C78.2426 22.9421 78.482 22.3494 78.482 21.5963C78.482 20.0412 77.4686 19.2637 75.4418 19.2637H73.7495Z" fill="#FAFAFA"/>
<path d="M89.2767 20.4939V25.7571H86.9714V11.2429H91.2033C92.8051 11.2429 94.0473 11.631 94.9289 12.407C95.8105 13.1829 96.2518 14.276 96.2518 15.6863C96.2518 17.0965 95.7916 18.2504 94.8701 19.1478C93.9497 20.0452 92.7045 20.4939 91.1345 20.4939H89.2767ZM89.2767 13.2268V18.5304H90.7749C91.7671 18.5304 92.5232 18.2908 93.0422 17.8118C93.5602 17.3327 93.8202 16.6579 93.8202 15.7875C93.8202 14.0803 92.8669 13.2268 90.9602 13.2268H89.2767ZM106.456 25.7571H98.6257V11.2429H106.145V13.2875H100.94V17.3968H105.737V19.4311H100.94V23.7226H106.456V25.7571ZM119.716 25.7571H117.011L114.784 21.8704C114.583 21.5129 114.384 21.2092 114.19 20.9595C114.002 20.7031 113.808 20.4939 113.606 20.3319C113.412 20.17 113.198 20.052 112.965 19.9777C112.731 19.9035 112.468 19.8664 112.176 19.8664H111.243V25.7571H108.937V11.2429H113.529C114.183 11.2429 114.787 11.3239 115.338 11.4859C115.89 11.6477 116.369 11.8942 116.778 12.2248C117.187 12.5486 117.504 12.9569 117.732 13.4494C117.965 13.9353 118.081 14.5054 118.081 15.1599C118.081 15.6728 118.007 16.1451 117.858 16.5769C117.715 17.002 117.507 17.3833 117.235 17.7206C116.97 18.0512 116.645 18.3347 116.262 18.5709C115.886 18.8071 115.461 18.9893 114.988 19.1175V19.1579C115.241 19.3064 115.461 19.4717 115.65 19.6539C115.838 19.8293 116.016 20.0115 116.185 20.2004C116.353 20.3894 116.518 20.6053 116.681 20.8482C116.849 21.0844 117.034 21.361 117.235 21.6781L119.716 25.7571ZM111.243 13.1964V17.9131H113.169C113.526 17.9131 113.853 17.8556 114.151 17.7408C114.456 17.6262 114.719 17.4609 114.939 17.2449C115.159 17.029 115.332 16.7659 115.455 16.4555C115.578 16.1451 115.64 15.7975 115.64 15.4129C115.64 14.718 115.428 14.1748 115.007 13.7835C114.586 13.3921 113.979 13.1964 113.188 13.1964H111.243ZM120.708 25.1802V22.7004C120.922 22.9029 121.175 23.0851 121.467 23.2469C121.765 23.4089 122.08 23.5472 122.411 23.6619C122.741 23.7699 123.072 23.8543 123.403 23.915C123.733 23.9757 124.038 24.0061 124.317 24.0061C125.29 24.0061 126.013 23.8374 126.487 23.5C126.966 23.1626 127.206 22.6734 127.206 22.0324C127.206 21.6882 127.125 21.3914 126.963 21.1417C126.808 20.8853 126.587 20.6525 126.302 20.4434C126.017 20.2341 125.679 20.0351 125.29 19.8462C124.907 19.6505 124.495 19.4481 124.054 19.2389C123.581 18.9757 123.14 18.7092 122.731 18.4393C122.323 18.1695 121.966 17.8725 121.661 17.5486C121.363 17.2179 121.126 16.8468 120.951 16.4353C120.783 16.0236 120.698 15.5411 120.698 14.9879C120.698 14.3064 120.845 13.716 121.136 13.2166C121.434 12.7105 121.824 12.2956 122.304 11.9716C122.79 11.641 123.341 11.3981 123.958 11.2429C124.573 11.0811 125.203 11 125.844 11C127.304 11 128.368 11.1721 129.035 11.5163V13.8947C128.244 13.301 127.226 13.0041 125.981 13.0041C125.637 13.0041 125.293 13.0378 124.95 13.1053C124.612 13.1728 124.307 13.2841 124.035 13.4393C123.769 13.5945 123.552 13.7935 123.383 14.0364C123.214 14.2794 123.131 14.5729 123.131 14.917C123.131 15.2409 123.196 15.5209 123.325 15.7571C123.455 15.9932 123.643 16.2092 123.889 16.4049C124.142 16.6006 124.447 16.7928 124.803 16.9817C125.167 17.1639 125.585 17.3631 126.058 17.579C126.545 17.8421 127.002 18.1187 127.43 18.4089C127.864 18.6991 128.244 19.0196 128.569 19.3704C128.9 19.7213 129.159 20.1128 129.347 20.5445C129.541 20.9697 129.639 21.4554 129.639 22.0021C129.639 22.7375 129.496 23.3583 129.21 23.8644C128.925 24.3704 128.539 24.7821 128.053 25.0991C127.573 25.4162 127.019 25.6457 126.389 25.7874C125.761 25.9291 125.095 26 124.395 26C124.162 26 123.873 25.9798 123.529 25.9393C123.192 25.9055 122.845 25.8516 122.488 25.7773C122.132 25.7098 121.794 25.6255 121.476 25.5242C121.158 25.423 120.902 25.3084 120.708 25.1802ZM134.512 20.4939V25.7571H132.207V11.2429H136.438C138.04 11.2429 139.282 11.631 140.164 12.407C141.047 13.1829 141.487 14.276 141.487 15.6863C141.487 17.0965 141.027 18.2504 140.106 19.1478C139.185 20.0452 137.94 20.4939 136.371 20.4939H134.512ZM134.512 13.2268V18.5304H136.01C137.002 18.5304 137.758 18.2908 138.277 17.8118C138.795 17.3327 139.055 16.6579 139.055 15.7875C139.055 14.0803 138.102 13.2268 136.195 13.2268H134.512ZM151.692 25.7571H143.861V11.2429H151.381V13.2875H146.176V17.3968H150.972V19.4311H146.176V23.7226H151.692V25.7571ZM163.901 25.1499C162.851 25.7167 161.544 26 159.981 26C157.957 26 156.336 25.3353 155.116 24.0061C153.897 22.6768 153.287 20.9326 153.287 18.7733C153.287 16.4521 153.972 14.5764 155.341 13.1457C156.715 11.7152 158.45 11 160.544 11C161.893 11 163.012 11.1991 163.901 11.5972V13.9859C162.96 13.4056 161.923 13.1154 160.788 13.1154C159.276 13.1154 158.051 13.6181 157.111 14.6235C156.176 15.6289 155.71 16.9718 155.71 18.6518C155.71 20.251 156.147 21.5263 157.023 22.4778C157.899 23.4224 159.05 23.8947 160.477 23.8947C161.793 23.8947 162.934 23.5708 163.901 22.9231V25.1499ZM175.497 13.2875H171.489V25.7571H169.173V13.2875H165.176V11.2429H175.497V13.2875ZM179.914 25.7571H177.53V11.2429H179.914V25.7571ZM194.291 11.2429L189.282 25.7571H186.694L181.772 11.2429H184.301L187.745 22.255C187.855 22.606 187.939 23.0141 187.998 23.4797H188.036C188.081 23.0952 188.176 22.6802 188.318 22.2348L191.84 11.2429H194.291ZM203.971 25.7571H196.14V11.2429H203.659V13.2875H198.455V17.3968H203.251V19.4311H198.455V23.7226H203.971V25.7571Z" fill="#FAFAFA"/>
<path fill-rule="evenodd" clip-rule="evenodd" d="M35.1529 7.15621L36.54 0L29.3534 1.22029L30.8124 2.71359L27.7996 5.6446L24.7736 8.5877L16.4532 16.6831L11.8337 11.975L4.9989 18.6243C4.384 15.0035 5.49081 11.1514 8.32261 8.39649C12.3277 4.50039 18.4586 4.072 22.9341 7.06439L25.9952 4.08679C19.8395 -0.5467 11.0526 -0.148701 5.3662 5.3837C-0.3202 10.9154 -0.924099 19.6537 3.58481 25.8885L11.7645 17.9308L16.384 22.6389L27.1521 12.1627C28.9625 16.4256 28.1029 21.5444 24.5831 24.9688C19.9952 29.4326 12.6154 29.3468 8.13211 24.7775L0 32.6893L2.95641 35.702L8.48311 30.3253C14.4946 33.8113 22.3229 33.0577 27.5399 27.9823C32.7569 22.9069 33.6951 15.1314 30.3354 9.0661L33.7619 5.73259L35.1529 7.15621Z" fill="#FAFAFA"/>
</svg>
