<svg width="206" height="38" viewBox="0 0 206 38" fill="none" xmlns="http://www.w3.org/2000/svg">
<path fill-rule="evenodd" clip-rule="evenodd" d="M39 3.39893L35.6636 0.1619L30.6586 5.01788L27.3213 8.25491L18.1453 17.1585L12.9314 12.0999L5.39362 19.4132C4.66082 15.4856 5.84541 11.285 8.96846 8.25491C13.3854 3.96989 20.2187 3.42676 25.2497 6.62248L28.6256 3.34762C21.6991 -1.61055 11.9028 -1.06699 5.63162 5.01788C-0.63958 11.1019 -1.19983 20.6068 3.91054 27.3262L12.9314 18.5739L18.1453 23.6326L30.0208 12.1103C32.0955 16.7206 31.2031 22.2949 27.3213 26.0612C22.2616 30.9707 14.0286 30.9707 8.96846 26.0612L0 34.763L3.33684 38L9.4319 32.0864C16.1827 35.7992 24.9051 34.8812 30.6586 29.299C36.4122 23.7169 37.3578 15.2542 33.5316 8.70454L39 3.39893Z" fill="#FAFAFA"/>
<path d="M57.1914 14.3965L53.7373 27H51.373L48.9736 18.1846C48.874 17.8096 48.8125 17.3994 48.7891 16.9541H48.7539C48.7246 17.3701 48.6543 17.7744 48.543 18.167L46.1348 27H43.7178L40.1934 14.3965H42.4873L44.7725 23.625C44.8662 24.0117 44.9248 24.416 44.9482 24.8379H44.9922C45.0156 24.5391 45.0977 24.1348 45.2383 23.625L47.8223 14.3965H49.9756L52.3662 23.6953C52.4482 24.0117 52.5098 24.3867 52.5508 24.8203H52.5859C52.6035 24.5273 52.6709 24.1406 52.7881 23.6602L55.0293 14.3965H57.1914ZM67.8156 27H60.7404V14.3965H67.5344V16.1719H62.8322V19.7402H67.1652V21.5068H62.8322V25.2334H67.8156V27ZM71.8568 27V14.3965H75.8559C77.0746 14.3965 78.0385 14.6631 78.7475 15.1963C79.4623 15.7295 79.8197 16.4238 79.8197 17.2793C79.8197 17.9941 79.6176 18.6152 79.2133 19.1426C78.809 19.6699 78.2494 20.0449 77.5346 20.2676V20.3027C78.4018 20.4023 79.0932 20.7246 79.6088 21.2695C80.1303 21.8086 80.391 22.5117 80.391 23.3789C80.391 24.457 79.9662 25.3301 79.1166 25.998C78.267 26.666 77.1947 27 75.8998 27H71.8568ZM73.9398 16.0752V19.6611H75.2934C76.0199 19.6611 76.5883 19.4912 76.9984 19.1514C77.4145 18.8057 77.6225 18.3193 77.6225 17.6924C77.6225 16.6143 76.9018 16.0752 75.4604 16.0752H73.9398ZM73.9398 21.3398V25.3301H75.724C76.5033 25.3301 77.1039 25.1514 77.5258 24.7939C77.9535 24.4307 78.1674 23.9326 78.1674 23.2998C78.1674 21.9932 77.2621 21.3398 75.4516 21.3398H73.9398Z" fill="#FAFAFA"/>
<path d="M93.6387 22.4297V27H91.5557V14.3965H95.3789C96.8262 14.3965 97.9482 14.7334 98.7451 15.4072C99.542 16.0811 99.9404 17.0303 99.9404 18.2549C99.9404 19.4795 99.5244 20.4814 98.6924 21.2607C97.8604 22.04 96.7354 22.4297 95.3174 22.4297H93.6387ZM93.6387 16.1191V20.7246H94.9922C95.8887 20.7246 96.5713 20.5166 97.04 20.1006C97.5088 19.6846 97.7432 19.0986 97.7432 18.3428C97.7432 16.8604 96.8818 16.1191 95.1592 16.1191H93.6387ZM109.16 27H102.085V14.3965H108.879V16.1719H104.177V19.7402H108.51V21.5068H104.177V25.2334H109.16V27ZM121.14 27H118.696L116.684 23.625C116.502 23.3145 116.323 23.0508 116.147 22.834C115.978 22.6113 115.802 22.4297 115.62 22.2891C115.444 22.1484 115.251 22.0459 115.04 21.9814C114.829 21.917 114.592 21.8848 114.328 21.8848H113.484V27H111.401V14.3965H115.55C116.142 14.3965 116.687 14.4668 117.185 14.6074C117.683 14.748 118.116 14.9619 118.485 15.249C118.854 15.5303 119.142 15.8848 119.347 16.3125C119.558 16.7344 119.663 17.2295 119.663 17.7979C119.663 18.2432 119.596 18.6533 119.461 19.0283C119.332 19.3975 119.145 19.7285 118.898 20.0215C118.658 20.3086 118.365 20.5547 118.02 20.7598C117.68 20.9648 117.296 21.123 116.868 21.2344V21.2695C117.097 21.3984 117.296 21.542 117.466 21.7002C117.636 21.8525 117.797 22.0107 117.949 22.1748C118.102 22.3389 118.251 22.5264 118.397 22.7373C118.55 22.9424 118.717 23.1826 118.898 23.458L121.14 27ZM113.484 16.0928V20.1885H115.225C115.547 20.1885 115.843 20.1387 116.112 20.0391C116.388 19.9395 116.625 19.7959 116.824 19.6084C117.023 19.4209 117.179 19.1924 117.29 18.9229C117.401 18.6533 117.457 18.3516 117.457 18.0176C117.457 17.4141 117.267 16.9424 116.886 16.6025C116.505 16.2627 115.957 16.0928 115.242 16.0928H113.484ZM122.036 26.499V24.3457C122.229 24.5215 122.458 24.6797 122.722 24.8203C122.991 24.9609 123.275 25.0811 123.574 25.1807C123.873 25.2744 124.172 25.3477 124.471 25.4004C124.77 25.4531 125.045 25.4795 125.297 25.4795C126.176 25.4795 126.829 25.333 127.257 25.04C127.69 24.7471 127.907 24.3223 127.907 23.7656C127.907 23.4668 127.834 23.209 127.688 22.9922C127.547 22.7695 127.348 22.5674 127.09 22.3857C126.832 22.2041 126.527 22.0312 126.176 21.8672C125.83 21.6973 125.458 21.5215 125.06 21.3398C124.632 21.1113 124.233 20.8799 123.864 20.6455C123.495 20.4111 123.173 20.1533 122.897 19.8721C122.628 19.585 122.414 19.2627 122.256 18.9053C122.104 18.5479 122.027 18.1289 122.027 17.6484C122.027 17.0566 122.159 16.5439 122.423 16.1104C122.692 15.6709 123.044 15.3105 123.478 15.0293C123.917 14.7422 124.415 14.5312 124.972 14.3965C125.528 14.2559 126.097 14.1855 126.677 14.1855C127.995 14.1855 128.956 14.335 129.56 14.6338V16.6992C128.845 16.1836 127.925 15.9258 126.8 15.9258C126.489 15.9258 126.179 15.9551 125.868 16.0137C125.563 16.0723 125.288 16.1689 125.042 16.3037C124.802 16.4385 124.605 16.6113 124.453 16.8223C124.301 17.0332 124.225 17.2881 124.225 17.5869C124.225 17.8682 124.283 18.1113 124.4 18.3164C124.518 18.5215 124.688 18.709 124.91 18.8789C125.139 19.0488 125.414 19.2158 125.736 19.3799C126.064 19.5381 126.442 19.7109 126.87 19.8984C127.31 20.127 127.723 20.3672 128.109 20.6191C128.502 20.8711 128.845 21.1494 129.138 21.4541C129.437 21.7588 129.671 22.0986 129.841 22.4736C130.017 22.8428 130.104 23.2646 130.104 23.7393C130.104 24.3779 129.976 24.917 129.718 25.3564C129.46 25.7959 129.111 26.1533 128.672 26.4287C128.238 26.7041 127.737 26.9033 127.169 27.0264C126.601 27.1494 126 27.2109 125.367 27.2109C125.156 27.2109 124.896 27.1934 124.585 27.1582C124.28 27.1289 123.967 27.082 123.645 27.0176C123.322 26.959 123.018 26.8857 122.73 26.7979C122.443 26.71 122.212 26.6104 122.036 26.499ZM134.508 22.4297V27H132.425V14.3965H136.248C137.695 14.3965 138.817 14.7334 139.614 15.4072C140.411 16.0811 140.81 17.0303 140.81 18.2549C140.81 19.4795 140.394 20.4814 139.562 21.2607C138.729 22.04 137.604 22.4297 136.187 22.4297H134.508ZM134.508 16.1191V20.7246H135.861C136.758 20.7246 137.44 20.5166 137.909 20.1006C138.378 19.6846 138.612 19.0986 138.612 18.3428C138.612 16.8604 137.751 16.1191 136.028 16.1191H134.508ZM150.029 27H142.954V14.3965H149.748V16.1719H145.046V19.7402H149.379V21.5068H145.046V25.2334H150.029V27ZM161.06 26.4727C160.11 26.9648 158.93 27.2109 157.518 27.2109C155.689 27.2109 154.225 26.6338 153.123 25.4795C152.021 24.3252 151.471 22.8105 151.471 20.9355C151.471 18.9199 152.089 17.291 153.325 16.0488C154.567 14.8066 156.135 14.1855 158.027 14.1855C159.246 14.1855 160.257 14.3584 161.06 14.7041V16.7783C160.21 16.2744 159.272 16.0225 158.247 16.0225C156.882 16.0225 155.774 16.459 154.925 17.332C154.081 18.2051 153.659 19.3711 153.659 20.8301C153.659 22.2188 154.055 23.3262 154.846 24.1523C155.637 24.9727 156.677 25.3828 157.966 25.3828C159.155 25.3828 160.187 25.1016 161.06 24.5391V26.4727ZM171.536 16.1719H167.915V27H165.823V16.1719H162.211V14.3965H171.536V16.1719ZM175.526 27H173.373V14.3965H175.526V27ZM188.517 14.3965L183.99 27H181.652L177.205 14.3965H179.49L182.602 23.959C182.701 24.2637 182.777 24.6182 182.83 25.0225H182.865C182.906 24.6885 182.991 24.3281 183.12 23.9414L186.302 14.3965H188.517ZM197.262 27H190.187V14.3965H196.98V16.1719H192.278V19.7402H196.611V21.5068H192.278V25.2334H197.262V27Z" fill="#FAFAFA"/>
</svg>
