<svg width="191" height="36" viewBox="0 0 191 36" fill="none" xmlns="http://www.w3.org/2000/svg">
<path fill-rule="evenodd" clip-rule="evenodd" d="M36 3.22004L32.9202 0.153379L28.3003 4.75378L25.2197 7.82044L16.7495 16.2554L11.9367 11.463L4.97873 18.3914C4.30229 14.6705 5.39576 10.691 8.27858 7.82044C12.3558 3.76094 18.6634 3.24641 23.3074 6.27393L26.4236 3.17143C20.0299 -1.52578 10.9872 -1.01083 5.19842 4.75378C-0.590382 10.5176 -1.10753 19.5223 3.60973 25.888L11.9367 17.5963L16.7495 22.3888L27.7115 11.4729C29.6267 15.8405 28.8029 21.1215 25.2197 24.6895C20.5492 29.3406 12.9495 29.3406 8.27858 24.6895L0 32.9333L3.08016 36L8.70637 30.3977C14.9379 33.9151 22.9893 33.0454 28.3003 27.757C33.6112 22.4687 34.4842 14.4514 30.9522 8.24641L36 3.22004Z" fill="#2F3338"/>
<path d="M54.1914 12.3965L50.7373 25H48.373L45.9736 16.1846C45.874 15.8096 45.8125 15.3994 45.7891 14.9541H45.7539C45.7246 15.3701 45.6543 15.7744 45.543 16.167L43.1348 25H40.7178L37.1934 12.3965H39.4873L41.7725 21.625C41.8662 22.0117 41.9248 22.416 41.9482 22.8379H41.9922C42.0156 22.5391 42.0977 22.1348 42.2383 21.625L44.8223 12.3965H46.9756L49.3662 21.6953C49.4482 22.0117 49.5098 22.3867 49.5508 22.8203H49.5859C49.6035 22.5273 49.6709 22.1406 49.7881 21.6602L52.0293 12.3965H54.1914ZM64.8156 25H57.7404V12.3965H64.5344V14.1719H59.8322V17.7402H64.1652V19.5068H59.8322V23.2334H64.8156V25ZM68.8568 25V12.3965H72.8559C74.0746 12.3965 75.0385 12.6631 75.7475 13.1963C76.4623 13.7295 76.8197 14.4238 76.8197 15.2793C76.8197 15.9941 76.6176 16.6152 76.2133 17.1426C75.809 17.6699 75.2494 18.0449 74.5346 18.2676V18.3027C75.4018 18.4023 76.0932 18.7246 76.6088 19.2695C77.1303 19.8086 77.391 20.5117 77.391 21.3789C77.391 22.457 76.9662 23.3301 76.1166 23.998C75.267 24.666 74.1947 25 72.8998 25H68.8568ZM70.9398 14.0752V17.6611H72.2934C73.0199 17.6611 73.5883 17.4912 73.9984 17.1514C74.4145 16.8057 74.6225 16.3193 74.6225 15.6924C74.6225 14.6143 73.9018 14.0752 72.4604 14.0752H70.9398ZM70.9398 19.3398V23.3301H72.724C73.5033 23.3301 74.1039 23.1514 74.5258 22.7939C74.9535 22.4307 75.1674 21.9326 75.1674 21.2998C75.1674 19.9932 74.2621 19.3398 72.4516 19.3398H70.9398Z" fill="#2F3338"/>
<path d="M86.6387 20.4297V25H84.5557V12.3965H88.3789C89.8262 12.3965 90.9482 12.7334 91.7451 13.4072C92.542 14.0811 92.9404 15.0303 92.9404 16.2549C92.9404 17.4795 92.5244 18.4814 91.6924 19.2607C90.8604 20.04 89.7354 20.4297 88.3174 20.4297H86.6387ZM86.6387 14.1191V18.7246H87.9922C88.8887 18.7246 89.5713 18.5166 90.04 18.1006C90.5088 17.6846 90.7432 17.0986 90.7432 16.3428C90.7432 14.8604 89.8818 14.1191 88.1592 14.1191H86.6387ZM102.16 25H95.085V12.3965H101.879V14.1719H97.1768V17.7402H101.51V19.5068H97.1768V23.2334H102.16V25ZM114.14 25H111.696L109.684 21.625C109.502 21.3145 109.323 21.0508 109.147 20.834C108.978 20.6113 108.802 20.4297 108.62 20.2891C108.444 20.1484 108.251 20.0459 108.04 19.9814C107.829 19.917 107.592 19.8848 107.328 19.8848H106.484V25H104.401V12.3965H108.55C109.142 12.3965 109.687 12.4668 110.185 12.6074C110.683 12.748 111.116 12.9619 111.485 13.249C111.854 13.5303 112.142 13.8848 112.347 14.3125C112.558 14.7344 112.663 15.2295 112.663 15.7979C112.663 16.2432 112.596 16.6533 112.461 17.0283C112.332 17.3975 112.145 17.7285 111.898 18.0215C111.658 18.3086 111.365 18.5547 111.02 18.7598C110.68 18.9648 110.296 19.123 109.868 19.2344V19.2695C110.097 19.3984 110.296 19.542 110.466 19.7002C110.636 19.8525 110.797 20.0107 110.949 20.1748C111.102 20.3389 111.251 20.5264 111.397 20.7373C111.55 20.9424 111.717 21.1826 111.898 21.458L114.14 25ZM106.484 14.0928V18.1885H108.225C108.547 18.1885 108.843 18.1387 109.112 18.0391C109.388 17.9395 109.625 17.7959 109.824 17.6084C110.023 17.4209 110.179 17.1924 110.29 16.9229C110.401 16.6533 110.457 16.3516 110.457 16.0176C110.457 15.4141 110.267 14.9424 109.886 14.6025C109.505 14.2627 108.957 14.0928 108.242 14.0928H106.484ZM115.036 24.499V22.3457C115.229 22.5215 115.458 22.6797 115.722 22.8203C115.991 22.9609 116.275 23.0811 116.574 23.1807C116.873 23.2744 117.172 23.3477 117.471 23.4004C117.77 23.4531 118.045 23.4795 118.297 23.4795C119.176 23.4795 119.829 23.333 120.257 23.04C120.69 22.7471 120.907 22.3223 120.907 21.7656C120.907 21.4668 120.834 21.209 120.688 20.9922C120.547 20.7695 120.348 20.5674 120.09 20.3857C119.832 20.2041 119.527 20.0312 119.176 19.8672C118.83 19.6973 118.458 19.5215 118.06 19.3398C117.632 19.1113 117.233 18.8799 116.864 18.6455C116.495 18.4111 116.173 18.1533 115.897 17.8721C115.628 17.585 115.414 17.2627 115.256 16.9053C115.104 16.5479 115.027 16.1289 115.027 15.6484C115.027 15.0566 115.159 14.5439 115.423 14.1104C115.692 13.6709 116.044 13.3105 116.478 13.0293C116.917 12.7422 117.415 12.5312 117.972 12.3965C118.528 12.2559 119.097 12.1855 119.677 12.1855C120.995 12.1855 121.956 12.335 122.56 12.6338V14.6992C121.845 14.1836 120.925 13.9258 119.8 13.9258C119.489 13.9258 119.179 13.9551 118.868 14.0137C118.563 14.0723 118.288 14.1689 118.042 14.3037C117.802 14.4385 117.605 14.6113 117.453 14.8223C117.301 15.0332 117.225 15.2881 117.225 15.5869C117.225 15.8682 117.283 16.1113 117.4 16.3164C117.518 16.5215 117.688 16.709 117.91 16.8789C118.139 17.0488 118.414 17.2158 118.736 17.3799C119.064 17.5381 119.442 17.7109 119.87 17.8984C120.31 18.127 120.723 18.3672 121.109 18.6191C121.502 18.8711 121.845 19.1494 122.138 19.4541C122.437 19.7588 122.671 20.0986 122.841 20.4736C123.017 20.8428 123.104 21.2646 123.104 21.7393C123.104 22.3779 122.976 22.917 122.718 23.3564C122.46 23.7959 122.111 24.1533 121.672 24.4287C121.238 24.7041 120.737 24.9033 120.169 25.0264C119.601 25.1494 119 25.2109 118.367 25.2109C118.156 25.2109 117.896 25.1934 117.585 25.1582C117.28 25.1289 116.967 25.082 116.645 25.0176C116.322 24.959 116.018 24.8857 115.73 24.7979C115.443 24.71 115.212 24.6104 115.036 24.499ZM127.508 20.4297V25H125.425V12.3965H129.248C130.695 12.3965 131.817 12.7334 132.614 13.4072C133.411 14.0811 133.81 15.0303 133.81 16.2549C133.81 17.4795 133.394 18.4814 132.562 19.2607C131.729 20.04 130.604 20.4297 129.187 20.4297H127.508ZM127.508 14.1191V18.7246H128.861C129.758 18.7246 130.44 18.5166 130.909 18.1006C131.378 17.6846 131.612 17.0986 131.612 16.3428C131.612 14.8604 130.751 14.1191 129.028 14.1191H127.508ZM143.029 25H135.954V12.3965H142.748V14.1719H138.046V17.7402H142.379V19.5068H138.046V23.2334H143.029V25ZM154.06 24.4727C153.11 24.9648 151.93 25.2109 150.518 25.2109C148.689 25.2109 147.225 24.6338 146.123 23.4795C145.021 22.3252 144.471 20.8105 144.471 18.9355C144.471 16.9199 145.089 15.291 146.325 14.0488C147.567 12.8066 149.135 12.1855 151.027 12.1855C152.246 12.1855 153.257 12.3584 154.06 12.7041V14.7783C153.21 14.2744 152.272 14.0225 151.247 14.0225C149.882 14.0225 148.774 14.459 147.925 15.332C147.081 16.2051 146.659 17.3711 146.659 18.8301C146.659 20.2188 147.055 21.3262 147.846 22.1523C148.637 22.9727 149.677 23.3828 150.966 23.3828C152.155 23.3828 153.187 23.1016 154.06 22.5391V24.4727ZM164.536 14.1719H160.915V25H158.823V14.1719H155.211V12.3965H164.536V14.1719ZM168.526 25H166.373V12.3965H168.526V25ZM181.517 12.3965L176.99 25H174.652L170.205 12.3965H172.49L175.602 21.959C175.701 22.2637 175.777 22.6182 175.83 23.0225H175.865C175.906 22.6885 175.991 22.3281 176.12 21.9414L179.302 12.3965H181.517ZM190.262 25H183.187V12.3965H189.98V14.1719H185.278V17.7402H189.611V19.5068H185.278V23.2334H190.262V25Z" fill="#2F3338"/>
</svg>
