<svg width="16" height="16" viewBox="0 0 16 16" fill="none" xmlns="http://www.w3.org/2000/svg">
<path d="M8.00414 16C7.77721 16.0013 7.55503 15.935 7.36592 15.8096C7.17681 15.6841 7.02934 15.5052 6.94232 15.2956C6.8553 15.086 6.83266 14.8552 6.8773 14.6327C6.92194 14.4102 7.03183 14.2061 7.19296 14.0463L13.2483 8.00235L7.19296 1.95843C7.00578 1.73986 6.90797 1.45872 6.91908 1.17117C6.93019 0.88363 7.04939 0.610866 7.25287 0.40739C7.45634 0.203914 7.7291 0.0847126 8.01665 0.073606C8.30419 0.0624994 8.58534 0.160306 8.8039 0.34748L15.659 7.20259C15.8718 7.41665 15.9912 7.70623 15.9912 8.00806C15.9912 8.3099 15.8718 8.59947 15.659 8.81354L8.8039 15.6686C8.5911 15.8797 8.30387 15.9987 8.00414 16Z" fill="#F47E51"/>
<path d="M1.14916 15.9999C0.92223 16.0012 0.700046 15.935 0.510937 15.8095C0.321828 15.6841 0.174362 15.5051 0.0873396 15.2955C0.000317752 15.086 -0.0223172 14.8552 0.0223205 14.6327C0.0669583 14.4102 0.176846 14.206 0.337975 14.0462L6.39332 8.0023L0.337975 1.95838C0.122834 1.74324 0.00196973 1.45145 0.00196973 1.14719C0.00196974 0.842938 0.122834 0.551145 0.337975 0.336005C0.553115 0.120865 0.844908 2.26687e-09 1.14916 0C1.45342 -2.26687e-09 1.74521 0.120865 1.96035 0.336005L8.81546 7.19111C9.02825 7.40518 9.14769 7.69475 9.14769 7.99659C9.14769 8.29842 9.02825 8.588 8.81546 8.80206L1.96035 15.6572C1.85454 15.7651 1.72835 15.851 1.58911 15.9098C1.44986 15.9687 1.30033 15.9993 1.14916 15.9999Z" fill="#F47E51"/>
</svg>
