<svg width="16" height="24" viewBox="0 0 16 24" fill="none" xmlns="http://www.w3.org/2000/svg">
<path d="M5.85367 -5.65957e-07H10.1463C11.6988 -5.65957e-07 13.1877 0.64362 14.2855 1.78927C15.3833 2.93492 16 4.48875 16 6.10894L16 17.8911C16 19.5112 15.3833 21.0651 14.2855 22.2107C13.1877 23.3564 11.6988 24 10.1463 24H5.85367C4.30118 24 2.81228 23.3564 1.71451 22.2107C0.616734 21.0651 1.15931e-05 19.5112 1.15931e-05 17.8911L1.15931e-05 6.12116C-0.0015278 5.31789 0.148746 4.5222 0.44223 3.77962C0.735715 3.03703 1.16665 2.36215 1.71036 1.79358C2.25408 1.22502 2.8999 0.773947 3.61086 0.46618C4.32182 0.158414 5.08397 -2.17249e-06 5.85367 -5.65957e-07V-5.65957e-07ZM10.1463 22.7782C11.3883 22.7782 12.5795 22.2633 13.4577 21.3468C14.3359 20.4303 14.8293 19.1872 14.8293 17.8911L14.8293 6.12116C14.8293 4.82501 14.3359 3.58194 13.4577 2.66542C12.5795 1.7489 11.3883 1.23401 10.1463 1.23401H5.85367C4.61168 1.23401 3.42056 1.7489 2.54234 2.66542C1.66412 3.58194 1.17074 4.82501 1.17074 6.12116L1.17074 17.8911C1.17074 19.1872 1.66412 20.4303 2.54234 21.3468C3.42056 22.2633 4.61168 22.7782 5.85367 22.7782H10.1463Z" fill="#2F3338"/>
<path d="M7.97274 13.9038C8.12799 13.9038 8.27688 13.9682 8.38666 14.0828C8.49643 14.1973 8.55811 14.3527 8.55811 14.5147V17.5651C8.55811 17.7272 8.49643 17.8825 8.38666 17.9971C8.27688 18.1117 8.12799 18.176 7.97274 18.176C7.81749 18.176 7.6686 18.1117 7.55882 17.9971C7.44905 17.8825 7.38737 17.7272 7.38737 17.5651V14.5147C7.38737 14.3527 7.44905 14.1973 7.55882 14.0828C7.6686 13.9682 7.81749 13.9038 7.97274 13.9038V13.9038Z" fill="#2F3338"/>
</svg>
