<svg width="80" height="80" viewBox="0 0 80 80" fill="none" xmlns="http://www.w3.org/2000/svg">
<g clip-path="url(#clip0_244_14694)">
<path d="M71.2547 24.5478L19.7505 10.7473C16.7283 9.93747 13.5994 11.7348 12.7867 14.7678L3.95697 47.7207C3.14398 50.7548 4.95695 53.8751 7.97751 54.6845L59.4817 68.485C62.5039 69.2948 65.6328 67.4975 66.4455 64.4645L75.2752 31.5115C76.0881 28.4778 74.2756 25.3572 71.2547 24.5478ZM69.4302 27.9832C67.1772 29.289 40.7127 44.6257 39.6255 45.2558C38.7174 45.7819 37.3117 45.4058 36.7881 44.4955L19.6127 14.6347L69.4302 27.9832ZM7.79876 48.0287L16.2678 16.422L27.7854 36.4461L7.79876 48.0287ZM9.80194 51.249L29.6754 39.732L33.5024 46.3855C35.0706 49.1121 38.8057 50.112 41.5261 48.5355L48.1672 44.687L59.6194 64.5976L9.80194 51.249ZM62.9644 62.8103L51.4468 42.7862L71.4334 31.2036L62.9644 62.8103Z" fill="#F47E51"/>
</g>
<defs>
<clipPath id="clip0_244_14694">
<rect width="64.6929" height="64.6929" fill="white" transform="translate(16.7437) rotate(15)"/>
</clipPath>
</defs>
</svg>
