<svg width="26" height="26" viewBox="0 0 26 26" fill="none" xmlns="http://www.w3.org/2000/svg">
<path d="M23.8923 24.9459H2.10853C1.73579 24.9459 1.37832 24.7979 1.11476 24.5343C0.851194 24.2707 0.703125 23.9133 0.703125 23.5405V8.43241C0.703125 8.33922 0.740142 8.24985 0.806033 8.18396C0.871925 8.11807 0.961292 8.08105 1.05448 8.08105H24.9464C25.0396 8.08105 25.1289 8.11807 25.1948 8.18396C25.2607 8.24985 25.2977 8.33922 25.2977 8.43241V23.5405C25.2977 23.9133 25.1497 24.2707 24.8861 24.5343C24.6225 24.7979 24.2651 24.9459 23.8923 24.9459ZM1.40583 8.78376V23.5405C1.40583 23.7269 1.47986 23.9056 1.61164 24.0374C1.74343 24.1692 1.92216 24.2432 2.10853 24.2432H23.8923C24.0787 24.2432 24.2574 24.1692 24.3892 24.0374C24.521 23.9056 24.595 23.7269 24.595 23.5405V8.78376H1.40583Z" fill="#2F3338"/>
<path d="M24.9464 8.78373H1.05448C0.961292 8.78373 0.871925 8.74671 0.806033 8.68082C0.740142 8.61493 0.703125 8.52556 0.703125 8.43238V4.56751C0.703125 4.19478 0.851194 3.83731 1.11476 3.57374C1.37832 3.31018 1.73579 3.16211 2.10853 3.16211H5.27069C5.36388 3.16211 5.45324 3.19913 5.51914 3.26502C5.58503 3.33091 5.62204 3.42028 5.62204 3.51346C5.62204 3.60664 5.58503 3.69601 5.51914 3.7619C5.45324 3.82779 5.36388 3.86481 5.27069 3.86481H2.10853C1.92216 3.86481 1.74343 3.93885 1.61164 4.07063C1.47986 4.20241 1.40583 4.38115 1.40583 4.56751V8.08103H24.595V4.56751C24.595 4.38115 24.521 4.20241 24.3892 4.07063C24.2574 3.93885 24.0787 3.86481 23.8923 3.86481H20.7302C20.637 3.86481 20.5476 3.82779 20.4817 3.7619C20.4158 3.69601 20.3788 3.60664 20.3788 3.51346C20.3788 3.42028 20.4158 3.33091 20.4817 3.26502C20.5476 3.19913 20.637 3.16211 20.7302 3.16211H23.8923C24.2651 3.16211 24.6225 3.31018 24.8861 3.57374C25.1497 3.83731 25.2977 4.19478 25.2977 4.56751V8.43238C25.2977 8.52556 25.2607 8.61493 25.1948 8.68082C25.1289 8.74671 25.0396 8.78373 24.9464 8.78373Z" fill="#2F3338"/>
<path d="M18.2698 3.86481H7.72928C7.6361 3.86481 7.54673 3.82779 7.48084 3.7619C7.41495 3.69601 7.37793 3.60664 7.37793 3.51346C7.37793 3.42028 7.41495 3.33091 7.48084 3.26502C7.54673 3.19913 7.6361 3.16211 7.72928 3.16211H18.2698C18.363 3.16211 18.4524 3.19913 18.5183 3.26502C18.5842 3.33091 18.6212 3.42028 18.6212 3.51346C18.6212 3.60664 18.5842 3.69601 18.5183 3.7619C18.4524 3.82779 18.363 3.86481 18.2698 3.86481Z" fill="#2F3338"/>
<path d="M20.3784 5.97287H18.6216C18.4353 5.97287 18.2565 5.89884 18.1248 5.76706C17.993 5.63528 17.9189 5.45654 17.9189 5.27017V1.75666C17.9189 1.57029 17.993 1.39155 18.1248 1.25977C18.2565 1.12799 18.4353 1.05396 18.6216 1.05396H20.3784C20.5648 1.05396 20.7435 1.12799 20.8753 1.25977C21.0071 1.39155 21.0811 1.57029 21.0811 1.75666V5.27017C21.0811 5.45654 21.0071 5.63528 20.8753 5.76706C20.7435 5.89884 20.5648 5.97287 20.3784 5.97287ZM18.6216 1.75666V5.27017H20.3784V1.75666H18.6216Z" fill="#2F3338"/>
<path d="M7.3784 5.97287H5.62165C5.43528 5.97287 5.25654 5.89884 5.12476 5.76706C4.99298 5.63528 4.91895 5.45654 4.91895 5.27017V1.75666C4.91895 1.57029 4.99298 1.39155 5.12476 1.25977C5.25654 1.12799 5.43528 1.05396 5.62165 1.05396H7.3784C7.56477 1.05396 7.74351 1.12799 7.87529 1.25977C8.00707 1.39155 8.08111 1.57029 8.08111 1.75666V5.27017C8.08111 5.45654 8.00707 5.63528 7.87529 5.76706C7.74351 5.89884 7.56477 5.97287 7.3784 5.97287ZM7.3784 1.75666H5.62165V5.27017H7.3784V1.75666Z" fill="#2F3338"/>
<path d="M21.3225 13.7027H19.6094C19.4639 13.7025 19.3244 13.6446 19.2215 13.5417C19.1186 13.4388 19.0607 13.2993 19.0605 13.1538V11.4407C19.0607 11.2952 19.1186 11.1557 19.2215 11.0528C19.3244 10.9499 19.4639 10.892 19.6094 10.8918H21.3225C21.468 10.892 21.6075 10.9499 21.7104 11.0528C21.8133 11.1557 21.8712 11.2952 21.8714 11.4407V13.1538C21.8712 13.2993 21.8133 13.4388 21.7104 13.5417C21.6075 13.6446 21.468 13.7025 21.3225 13.7027V13.7027ZM19.7632 13H21.1687V11.5945H19.7632V13Z" fill="#2F3338"/>
<path d="M16.345 13.7027H14.6322C14.4866 13.7026 14.347 13.6447 14.2441 13.5418C14.1411 13.4389 14.0832 13.2994 14.083 13.1538V11.4407C14.0832 11.2951 14.1411 11.1556 14.2441 11.0527C14.347 10.9498 14.4866 10.8919 14.6322 10.8918H16.345C16.4905 10.892 16.63 10.9499 16.7329 11.0528C16.8358 11.1557 16.8936 11.2952 16.8938 11.4407V13.1538C16.8936 13.2993 16.8358 13.4388 16.7329 13.5417C16.63 13.6446 16.4905 13.7025 16.345 13.7027ZM14.7857 13H16.1911V11.5945H14.7857V13Z" fill="#2F3338"/>
<path d="M11.3681 13.7027H9.65526C9.50976 13.7025 9.37028 13.6446 9.26739 13.5417C9.16451 13.4388 9.10663 13.2993 9.10645 13.1538V11.4407C9.10663 11.2952 9.16451 11.1557 9.26739 11.0528C9.37028 10.9499 9.50976 10.892 9.65526 10.8918H11.3681C11.5137 10.8919 11.6532 10.9498 11.7562 11.0527C11.8591 11.1556 11.9171 11.2951 11.9173 11.4407V13.1538C11.9171 13.2994 11.8591 13.4389 11.7562 13.5418C11.6532 13.6447 11.5137 13.7026 11.3681 13.7027V13.7027ZM9.80915 13H11.2146V11.5945H9.80915V13Z" fill="#2F3338"/>
<path d="M21.3225 17.919H19.6094C19.4639 17.9188 19.3244 17.8609 19.2215 17.758C19.1186 17.6551 19.0607 17.5157 19.0605 17.3702V15.657C19.0607 15.5115 19.1186 15.372 19.2215 15.2691C19.3244 15.1662 19.4639 15.1083 19.6094 15.1082H21.3225C21.468 15.1083 21.6075 15.1662 21.7104 15.2691C21.8133 15.372 21.8712 15.5115 21.8714 15.657V17.3702C21.8712 17.5157 21.8133 17.6551 21.7104 17.758C21.6075 17.8609 21.468 17.9188 21.3225 17.919V17.919ZM19.7632 17.2163H21.1687V15.8109H19.7632V17.2163Z" fill="#2F3338"/>
<path d="M16.345 17.919H14.6322C14.4866 17.9189 14.347 17.861 14.2441 17.7581C14.1411 17.6552 14.0832 17.5157 14.083 17.3702V15.657C14.0832 15.5114 14.1411 15.3719 14.2441 15.269C14.347 15.1661 14.4866 15.1082 14.6322 15.1082H16.345C16.4905 15.1083 16.63 15.1662 16.7329 15.2691C16.8358 15.372 16.8936 15.5115 16.8938 15.657V17.3702C16.8936 17.5157 16.8358 17.6551 16.7329 17.758C16.63 17.8609 16.4905 17.9188 16.345 17.919V17.919ZM14.7857 17.2163H16.1911V15.8109H14.7857V17.2163Z" fill="#2F3338"/>
<path d="M11.3681 17.919H9.65526C9.50976 17.9188 9.37028 17.8609 9.26739 17.758C9.16451 17.6551 9.10663 17.5157 9.10645 17.3702V15.657C9.10663 15.5115 9.16451 15.372 9.26739 15.2691C9.37028 15.1662 9.50976 15.1083 9.65526 15.1082H11.3681C11.5137 15.1082 11.6532 15.1661 11.7562 15.269C11.8591 15.3719 11.9171 15.5114 11.9173 15.657V17.3702C11.9171 17.5157 11.8591 17.6552 11.7562 17.7581C11.6532 17.861 11.5137 17.9189 11.3681 17.919V17.919ZM9.80915 17.2163H11.2146V15.8109H9.80915V17.2163Z" fill="#2F3338"/>
<path d="M6.38993 17.919H4.67674C4.53124 17.9188 4.39176 17.8609 4.28888 17.758C4.186 17.6551 4.12812 17.5157 4.12793 17.3702V15.657C4.12812 15.5115 4.186 15.372 4.28888 15.2691C4.39176 15.1662 4.53124 15.1083 4.67674 15.1082H6.38993C6.53543 15.1083 6.67491 15.1662 6.77779 15.2691C6.88067 15.372 6.93855 15.5115 6.93874 15.657V17.3702C6.93855 17.5157 6.88067 17.6551 6.77779 17.758C6.67491 17.8609 6.53543 17.9188 6.38993 17.919V17.919ZM4.83063 17.2163H6.23604V15.8109H4.83063V17.2163Z" fill="#2F3338"/>
<path d="M16.345 22.135H14.6322C14.4866 22.1349 14.347 22.0771 14.2441 21.9742C14.1411 21.8713 14.0832 21.7318 14.083 21.5862V19.873C14.0832 19.7275 14.1411 19.5879 14.2441 19.485C14.347 19.3822 14.4866 19.3243 14.6322 19.3242H16.345C16.4905 19.3244 16.63 19.3823 16.7329 19.4852C16.8358 19.588 16.8936 19.7275 16.8938 19.873V21.5862C16.8936 21.7317 16.8358 21.8712 16.7329 21.9741C16.63 22.077 16.4905 22.1348 16.345 22.135ZM14.7857 21.4323H16.1911V20.0269H14.7857V21.4323Z" fill="#2F3338"/>
<path d="M11.3681 22.135H9.65526C9.50976 22.1348 9.37028 22.077 9.26739 21.9741C9.16451 21.8712 9.10663 21.7317 9.10645 21.5862V19.873C9.10663 19.7275 9.16451 19.588 9.26739 19.4852C9.37028 19.3823 9.50976 19.3244 9.65526 19.3242H11.3681C11.5137 19.3243 11.6532 19.3822 11.7562 19.485C11.8591 19.5879 11.9171 19.7275 11.9173 19.873V21.5862C11.9171 21.7318 11.8591 21.8713 11.7562 21.9742C11.6532 22.0771 11.5137 22.1349 11.3681 22.135V22.135ZM9.80915 21.4323H11.2146V20.0269H9.80915V21.4323Z" fill="#2F3338"/>
<path d="M6.38993 22.135H4.67674C4.53124 22.1348 4.39176 22.077 4.28888 21.9741C4.186 21.8712 4.12812 21.7317 4.12793 21.5862V19.873C4.12812 19.7275 4.186 19.588 4.28888 19.4852C4.39176 19.3823 4.53124 19.3244 4.67674 19.3242H6.38993C6.53543 19.3244 6.67491 19.3823 6.77779 19.4852C6.88067 19.588 6.93855 19.7275 6.93874 19.873V21.5862C6.93855 21.7317 6.88067 21.8712 6.77779 21.9741C6.67491 22.077 6.53543 22.1348 6.38993 22.135V22.135ZM4.83063 21.4323H6.23604V20.0269H4.83063V21.4323Z" fill="#2F3338"/>
</svg>
