<svg width="72" height="72" viewBox="0 0 72 72" fill="none" xmlns="http://www.w3.org/2000/svg">
<path d="M36 0.75C16.5633 0.75 0.75 16.5633 0.75 36C0.75 55.4367 16.5633 71.25 36 71.25C55.4367 71.25 71.25 55.4367 71.25 36C71.25 16.5633 55.4367 0.75 36 0.75ZM36 66.375C19.2511 66.375 5.625 52.7489 5.625 36C5.625 19.2511 19.2511 5.625 36 5.625C52.7489 5.625 66.375 19.2511 66.375 36C66.375 52.7489 52.7489 66.375 36 66.375ZM46.9375 36.25C47.5606 36.25 48.185 36.0117 48.6608 35.5359C49.6133 34.584 49.6132 33.0415 48.6608 32.0892L37.7234 21.1517C37.7234 21.1517 37.7234 21.1517 37.7233 21.1517C36.7714 20.1992 35.229 20.1993 34.2767 21.1517L23.3392 32.0891C23.3392 32.0891 23.3392 32.0891 23.3392 32.0892C22.3866 33.0411 22.3875 34.5835 23.3391 35.5358C24.291 36.4883 25.8335 36.4882 26.7858 35.5358L33.5625 28.7592V49.125C33.5625 50.4723 34.654 51.5625 36 51.5625C37.346 51.5625 38.4375 50.4723 38.4375 49.125V28.7592L45.2142 35.5358C45.69 36.0117 46.3144 36.25 46.9375 36.25Z" fill="#F47E51" stroke="#FAFAFA" stroke-width="0.5"/>
</svg>
