<svg width="40" height="40" viewBox="0 0 40 40" fill="none" xmlns="http://www.w3.org/2000/svg">
<g clip-path="url(#clip0_495_608)">
<path d="M9.42627 40.0763C8.85986 40.0763 8.29773 39.9182 7.80426 39.6069C6.95038 39.0677 6.4212 38.1433 6.38886 37.1335L6.29028 33.8998C2.23511 30.2637 0 25.1584 0 19.5255C0 14.1492 2.06085 9.20502 5.80231 5.60364C9.5047 2.04041 14.5468 0.078125 20 0.078125C25.4532 0.078125 30.4953 2.04041 34.1977 5.60364C37.9391 9.20502 40 14.1492 40 19.5255C40 23.3383 38.9551 26.9821 36.9781 30.0626C36.5118 30.7889 35.5453 31.0001 34.819 30.5338C34.093 30.0677 33.8818 29.101 34.3481 28.3749C36.0013 25.799 36.875 22.7386 36.875 19.5255C36.875 10.22 29.6204 3.20313 20 3.20313C10.3796 3.20313 3.125 10.22 3.125 19.5255C3.125 24.2651 4.99664 28.5498 8.39508 31.59C9.02191 32.1545 9.38171 32.9193 9.41193 33.7469C9.41223 33.75 9.41223 33.7534 9.41223 33.7567L9.50867 36.9077L13.0478 35.3461C13.685 35.0656 14.4037 35.0116 15.0729 35.1941C16.6458 35.6281 18.302 35.8475 20 35.8475C23.4854 35.8475 26.7877 34.9146 29.549 33.1491C30.2762 32.6843 31.2424 32.897 31.7072 33.6243C32.1719 34.3512 31.9592 35.3174 31.2323 35.7822C27.9672 37.8696 24.0833 38.9728 20 38.9728C18.0341 38.9728 16.1102 38.7186 14.2816 38.2175L10.6516 39.819C10.2582 39.9915 9.84131 40.0763 9.42627 40.0763ZM10.1669 25.9085L16.0065 21.4063C16.4011 21.1102 16.9443 21.1063 17.3425 21.4026L21.6635 24.7614C22.9587 25.7278 24.8123 25.387 25.6757 24.0244L31.1069 15.4117C31.6315 14.5895 30.6119 13.6603 29.834 14.249L23.9972 18.6719C23.6026 18.9682 23.0594 18.9719 22.6611 18.6755L18.3401 15.3952C17.045 14.4287 15.1913 14.7693 14.328 16.1319L8.89404 24.7455C8.36945 25.5676 9.38904 26.4972 10.1669 25.9085Z" fill="url(#paint0_linear_495_608)"/>
</g>
<defs>
<linearGradient id="paint0_linear_495_608" x1="33.6" y1="0.0781258" x2="10.4016" y2="40.0772" gradientUnits="userSpaceOnUse">
<stop stop-color="#EC6A6A"/>
<stop offset="1" stop-color="#F47E51"/>
</linearGradient>
<clipPath id="clip0_495_608">
<rect width="40" height="40" fill="white"/>
</clipPath>
</defs>
</svg>
