<svg width="100" height="100" viewBox="0 0 100 100" fill="none" xmlns="http://www.w3.org/2000/svg">
<path d="M17.8254 27.9031C17.8254 28.2672 17.6855 28.6164 17.4364 28.8739C17.1873 29.1313 16.8495 29.276 16.4973 29.276H14.132C13.7798 29.276 13.442 29.1313 13.1929 28.8739C12.9438 28.6164 12.8039 28.2672 12.8039 27.9031C12.8039 27.539 12.9438 27.1898 13.1929 26.9324C13.442 26.6749 13.7798 26.5302 14.132 26.5302H16.4973C16.8495 26.5302 17.1873 26.6749 17.4364 26.9324C17.6855 27.1898 17.8254 27.539 17.8254 27.9031ZM23.5459 26.5302H21.1807C20.8285 26.5302 20.4907 26.6749 20.2416 26.9324C19.9925 27.1898 19.8526 27.539 19.8526 27.9031C19.8526 28.2672 19.9925 28.6164 20.2416 28.8739C20.4907 29.1313 20.8285 29.276 21.1807 29.276H23.5459C23.8982 29.276 24.236 29.1313 24.4851 28.8739C24.7341 28.6164 24.8741 28.2672 24.8741 27.9031C24.8741 27.539 24.7341 27.1898 24.4851 26.9324C24.236 26.6749 23.8982 26.5302 23.5459 26.5302ZM30.5946 26.5302H28.2294C27.8772 26.5302 27.5394 26.6749 27.2903 26.9324C27.0412 27.1898 26.9013 27.539 26.9013 27.9031C26.9013 28.2672 27.0412 28.6164 27.2903 28.8739C27.5394 29.1313 27.8772 29.276 28.2294 29.276H30.5946C30.9469 29.276 31.2847 29.1313 31.5338 28.8739C31.7828 28.6164 31.9228 28.2672 31.9228 27.9031C31.9228 27.539 31.7828 27.1898 31.5338 26.9324C31.2847 26.6749 30.9469 26.5302 30.5946 26.5302ZM92 26.7545V77.2455C91.9983 78.7711 91.4113 80.2338 90.3676 81.3126C89.324 82.3914 87.9089 82.9983 86.433 83H12.567C11.0911 82.9983 9.67603 82.3914 8.63238 81.3126C7.58873 80.2338 7.00167 78.7711 7 77.2455L7 26.7545C7.00167 25.2289 7.58873 23.7662 8.63238 22.6874C9.67603 21.6086 11.0911 21.0017 12.567 21H86.433C87.9089 21.0017 89.324 21.6086 90.3676 22.6874C91.4113 23.7662 91.9983 25.2289 92 26.7545ZM89.3438 34.6803H9.65625V77.2455C9.65713 78.0432 9.96408 78.8079 10.5098 79.372C11.0554 79.9361 11.7953 80.2534 12.567 80.2543H86.433C87.2047 80.2534 87.9446 79.9361 88.4902 79.372C89.0359 78.8079 89.3429 78.0432 89.3438 77.2455V34.6803ZM89.3438 26.7545C89.3429 25.9568 89.0359 25.1921 88.4902 24.628C87.9446 24.0639 87.2047 23.7466 86.433 23.7457H12.567C11.7953 23.7466 11.0554 24.0639 10.5098 24.628C9.96408 25.1921 9.65713 25.9568 9.65625 26.7545V31.9345H89.3438V26.7545ZM18.1767 69.3812C18.1758 68.2266 18.4834 67.0943 19.0655 66.1089C19.6476 65.1236 20.4816 64.3235 21.4755 63.7969C22.4695 63.2703 23.5848 63.0376 24.6986 63.1245C25.8123 63.2114 26.8813 63.6145 27.7875 64.2894L35.8437 56.8816C35.3302 55.9741 35.0454 54.9478 35.0157 53.8969C34.9859 52.8461 35.2121 51.8043 35.6735 50.8674C36.1349 49.9304 36.8166 49.1284 37.6561 48.5348C38.4955 47.9413 39.4658 47.5753 40.4778 47.4705C41.4898 47.3657 42.5111 47.5255 43.4478 47.9351C44.3844 48.3448 45.2065 48.9911 45.8385 49.8149C46.4705 50.6386 46.8921 51.6133 47.0646 52.6494C47.237 53.6855 47.1549 54.7498 46.8257 55.7445L53.3335 60.3729C54.2404 59.2877 55.4803 58.5571 56.8458 58.3034C58.2112 58.0497 59.6196 58.2882 60.8354 58.9791L69.6229 49.5843C68.8232 48.2766 68.5183 46.7099 68.7666 45.1843C69.0148 43.6587 69.7987 42.2813 70.9682 41.316C72.1378 40.3506 73.6107 39.8651 75.1049 39.9525C76.5991 40.0398 78.0097 40.6938 79.0665 41.7893C80.1233 42.8848 80.752 44.3447 80.8323 45.8895C80.9125 47.4344 80.4387 48.9555 79.5015 50.1617C78.5643 51.3679 77.2296 52.1743 75.753 52.4266C74.2764 52.6789 72.7617 52.3592 71.4989 51.5289L62.8287 60.7982C63.4321 61.6575 63.8146 62.661 63.9405 63.7148C64.0663 64.7686 63.9314 65.8382 63.5483 66.8234C63.1652 67.8086 62.5465 68.6771 61.7501 69.3478C60.9537 70.0184 60.0057 70.4691 58.9948 70.6577C57.984 70.8463 56.9433 70.7667 55.9704 70.4262C54.9974 70.0857 54.124 69.4956 53.4319 68.711C52.7397 67.9264 52.2515 66.9731 52.013 65.9404C51.7745 64.9076 51.7935 63.8291 52.0681 62.806L45.4326 58.0868C44.4371 59.1495 43.1096 59.8135 41.6856 59.9608C40.2616 60.1082 38.8332 59.7295 37.6536 58.8918L29.5536 66.3396C30.0029 67.1772 30.2608 68.1101 30.3074 69.0667C30.354 70.0233 30.1881 70.9782 29.8224 71.8583C29.4567 72.7383 28.9009 73.5202 28.1976 74.1438C27.4944 74.7675 26.6623 75.2164 25.7652 75.4562C24.8682 75.696 23.9299 75.7203 23.0223 75.5272C22.1147 75.3342 21.2619 74.9289 20.5294 74.3424C19.7968 73.7559 19.2038 73.0038 18.796 72.1438C18.3881 71.2838 18.1761 70.3386 18.1763 69.3808L18.1767 69.3812ZM71.3392 46.2358C71.3392 46.9338 71.5394 47.6161 71.9145 48.1965C72.2896 48.7768 72.8227 49.2292 73.4466 49.4963C74.0704 49.7634 74.7568 49.8333 75.4191 49.6972C76.0813 49.561 76.6896 49.225 77.1671 48.7314C77.6446 48.2379 77.9697 47.6091 78.1015 46.9245C78.2332 46.24 78.1656 45.5304 77.9072 44.8856C77.6488 44.2407 77.2113 43.6896 76.6498 43.3018C76.0884 42.914 75.4284 42.7071 74.7531 42.7071C73.8481 42.7082 72.9803 43.0803 72.3403 43.7418C71.7003 44.4034 71.3403 45.3003 71.3392 46.2358ZM54.5037 64.4795C54.5037 65.1775 54.704 65.8598 55.0792 66.4401C55.4544 67.0205 55.9876 67.4727 56.6115 67.7398C57.2353 68.0068 57.9218 68.0767 58.584 67.9404C59.2463 67.8042 59.8546 67.468 60.332 66.9744C60.8094 66.4808 61.1345 65.8519 61.2661 65.1673C61.3977 64.4827 61.33 63.7732 61.0715 63.1284C60.813 62.4836 60.3753 61.9325 59.8138 61.5448C59.2523 61.1571 58.5922 60.9503 57.917 60.9504C57.0119 60.9516 56.1443 61.3238 55.5044 61.9854C54.8645 62.647 54.5046 63.544 54.5037 64.4795ZM37.6684 53.7173C37.6684 54.4152 37.8686 55.0975 38.2437 55.6778C38.6188 56.2581 39.152 56.7104 39.7757 56.9775C40.3995 57.2447 41.0859 57.3146 41.7481 57.1785C42.4103 57.0424 43.0187 56.7063 43.4961 56.2129C43.9736 55.7194 44.2988 55.0907 44.4306 54.4062C44.5624 53.7217 44.4949 53.0121 44.2366 52.3673C43.9783 51.7224 43.5408 51.1712 42.9795 50.7834C42.4182 50.3955 41.7582 50.1885 41.083 50.1883C40.1778 50.1892 39.3098 50.5612 38.6697 51.2228C38.0295 51.8844 37.6694 52.7815 37.6684 53.7173ZM20.8329 69.3812C20.8329 70.0791 21.0331 70.7614 21.4082 71.3418C21.7833 71.9222 22.3165 72.3745 22.9403 72.6416C23.5641 72.9087 24.2505 72.9786 24.9128 72.8425C25.575 72.7064 26.1834 72.3703 26.6608 71.8767C27.1383 71.3832 27.4635 70.7544 27.5952 70.0699C27.7269 69.3853 27.6593 68.6758 27.401 68.0309C27.1426 67.3861 26.705 66.8349 26.1436 66.4471C25.5821 66.0594 24.9221 65.8524 24.2469 65.8524C23.3418 65.8535 22.4741 66.2256 21.8341 66.8871C21.1941 67.5487 20.834 68.4456 20.8329 69.3812Z" fill="#F47E51"/>
</svg>
