<svg width="100" height="100" viewBox="0 0 100 100" fill="none" xmlns="http://www.w3.org/2000/svg">
<g clip-path="url(#clip0_568_292)">
<path d="M100 33.7283C100 34.1427 99.8354 34.5401 99.5424 34.8332C99.2493 35.1262 98.8519 35.2908 98.4375 35.2908H22.1369L24.3938 43.1229H94.9818C95.3962 43.1229 95.7937 43.2875 96.0867 43.5805C96.3797 43.8735 96.5443 44.271 96.5443 44.6854C96.5443 45.0998 96.3797 45.4972 96.0867 45.7902C95.7937 46.0832 95.3962 46.2479 94.9818 46.2479H25.2943L27.551 54.0799H91.526C91.9404 54.0799 92.3378 54.2445 92.6308 54.5375C92.9239 54.8306 93.0885 55.228 93.0885 55.6424C93.0885 56.0568 92.9239 56.4542 92.6308 56.7472C92.3378 57.0403 91.9404 57.2049 91.526 57.2049H28.4512L30.708 65.0369H88.3547C88.7691 65.0369 89.1665 65.2015 89.4595 65.4946C89.7526 65.7876 89.9172 66.185 89.9172 66.5994C89.9172 67.0138 89.7526 67.4112 89.4595 67.7043C89.1665 67.9973 88.7691 68.1619 88.3547 68.1619H29.5312C29.1923 68.1619 28.8626 68.0517 28.5917 67.8479C28.3209 67.6441 28.1237 67.3577 28.0299 67.032L13.6506 17.125H1.5625C1.1481 17.125 0.750671 16.9604 0.457646 16.6674C0.16462 16.3743 0 15.9769 0 15.5625C0 15.1481 0.16462 14.7507 0.457646 14.4576C0.750671 14.1646 1.1481 14 1.5625 14H14.8264C15.1653 13.9999 15.4952 14.1101 15.7661 14.3138C16.037 14.5176 16.2342 14.804 16.3281 15.1297L21.2367 32.1654H98.4375C98.6427 32.1654 98.8459 32.2059 99.0355 32.2844C99.2251 32.363 99.3974 32.4781 99.5425 32.6232C99.6876 32.7683 99.8027 32.9406 99.8812 33.1303C99.9597 33.3199 100 33.5231 100 33.7283ZM32.8234 78.374C32.8234 76.9149 33.2561 75.4885 34.0668 74.2753C34.8775 73.062 36.0297 72.1164 37.3778 71.558C38.7258 70.9997 40.2092 70.8536 41.6403 71.1383C43.0714 71.4229 44.386 72.1256 45.4178 73.1574C46.4495 74.1892 47.1521 75.5037 47.4368 76.9349C47.7214 78.366 47.5753 79.8494 47.0169 81.1974C46.4585 82.5455 45.5128 83.6977 44.2996 84.5083C43.0863 85.3189 41.6599 85.7516 40.2008 85.7516C38.2448 85.7493 36.3696 84.9713 34.9866 83.5883C33.6036 82.2052 32.8256 80.33 32.8234 78.374ZM35.9484 78.374C35.9484 79.2151 36.1978 80.0373 36.6651 80.7366C37.1324 81.436 37.7966 81.981 38.5736 82.3029C39.3507 82.6247 40.2058 82.7089 41.0307 82.5448C41.8556 82.3807 42.6133 81.9757 43.208 81.381C43.8028 80.7862 44.2078 80.0285 44.3718 79.2035C44.5359 78.3786 44.4516 77.5236 44.1298 76.7465C43.8079 75.9695 43.2628 75.3053 42.5634 74.8381C41.8641 74.3708 41.0419 74.1214 40.2008 74.1215C39.0734 74.1229 37.9926 74.5714 37.1955 75.3686C36.3983 76.1658 35.9498 77.2466 35.9484 78.374ZM76.7729 85.7516C75.3137 85.7516 73.8873 85.3189 72.6741 84.5082C71.4609 83.6976 70.5153 82.5454 69.9569 81.1973C69.3985 79.8492 69.2524 78.3658 69.5371 76.9347C69.8217 75.5036 70.5244 74.1891 71.5561 73.1573C72.5879 72.1255 73.9025 71.4229 75.3336 71.1382C76.7647 70.8536 78.248 70.9997 79.5961 71.5581C80.9442 72.1165 82.0964 73.0621 82.9071 74.2753C83.7177 75.4885 84.1504 76.9149 84.1504 78.374C84.1482 80.33 83.3702 82.2052 81.9871 83.5883C80.604 84.9713 78.7288 85.7493 76.7729 85.7516ZM76.7729 82.6266C77.6139 82.6264 78.436 82.3769 79.1352 81.9095C79.8344 81.4421 80.3794 80.7779 80.7011 80.0009C81.0229 79.2238 81.107 78.3688 80.9428 77.5439C80.7786 76.7191 80.3735 75.9614 79.7788 75.3667C79.184 74.7721 78.4263 74.3672 77.6014 74.2031C76.7765 74.0391 75.9215 74.1234 75.1445 74.4453C74.3675 74.7671 73.7034 75.3122 73.2362 76.0115C72.7689 76.7108 72.5195 77.533 72.5195 78.374C72.5209 79.5016 72.9695 80.5825 73.7669 81.3798C74.5643 82.177 75.6453 82.6254 76.7729 82.6266Z" fill="#F47E51"/>
</g>
<defs>
<clipPath id="clip0_568_292">
<rect width="100" height="100" fill="white"/>
</clipPath>
</defs>
</svg>
