<svg width="100" height="100" viewBox="0 0 100 100" fill="none" xmlns="http://www.w3.org/2000/svg">
<path d="M51.1751 54.1178C51.0086 54.0817 50.8378 54.0752 50.6691 54.1005C48.9788 53.9037 47.7036 52.4736 47.7007 50.7724C47.7007 49.9571 47.0397 49.2961 46.2245 49.2961C45.4092 49.2961 44.7482 49.9571 44.7482 50.7724C44.7525 53.6132 46.6526 56.1015 49.3918 56.8533V58.3296C49.3918 59.1448 50.0528 59.8058 50.868 59.8058C51.6833 59.8058 52.3443 59.1448 52.3443 58.3296V56.9427C55.5059 56.281 57.6547 53.3364 57.3224 50.1237C56.9893 46.9109 54.2826 44.4695 51.0526 44.4687C49.2015 44.4687 47.7007 42.968 47.7007 41.1169C47.7007 39.2658 49.2015 37.765 51.0526 37.765C52.9037 37.765 54.4044 39.2658 54.4044 41.1169C54.4044 41.9321 55.0654 42.5931 55.8807 42.5931C56.696 42.5931 57.357 41.9321 57.357 41.1169C57.3526 38.1341 55.2629 35.5615 52.3443 34.9459V33.6022C52.3443 32.787 51.6833 32.126 50.868 32.126C50.0528 32.126 49.3918 32.787 49.3918 33.6022V35.036C46.3456 35.8678 44.3849 38.8254 44.8044 41.9552C45.2239 45.0851 47.8946 47.4213 51.0526 47.4205C52.8792 47.4205 54.3691 48.8831 54.4023 50.709C54.4362 52.5348 53.0003 54.0515 51.1751 54.1178V54.1178Z" fill="#F47E51"/>
<path d="M29.6455 46.0586C29.6455 57.8816 39.2297 67.4658 51.0527 67.4658C62.8758 67.4658 72.4599 57.8816 72.4599 46.0586C72.4599 34.2355 62.8758 24.6514 51.0527 24.6514C39.2354 24.6643 29.6592 34.2413 29.6455 46.0586ZM51.0527 27.6039C61.2453 27.6039 69.5074 35.866 69.5074 46.0586C69.5074 56.2511 61.2453 64.5133 51.0527 64.5133C40.8602 64.5133 32.598 56.2511 32.598 46.0586C32.6096 35.8711 40.8652 27.6154 51.0527 27.6039Z" fill="#F47E51"/>
<path d="M79.7372 71.1055L68.173 76.5693C66.5763 73.5995 63.5135 71.7095 60.1429 71.6144L49.4674 71.321C47.7771 71.2727 46.1185 70.8445 44.6155 70.0682L43.5292 69.5052C37.9673 66.606 31.3378 66.6132 25.7817 69.5239L25.8494 67.063C25.8718 66.2478 25.2295 65.5688 24.4143 65.5464L12.708 65.2242C11.8927 65.2019 11.2144 65.8441 11.1921 66.6594L10.4849 92.3483C10.4626 93.1636 11.1049 93.8426 11.9201 93.8649L23.6264 94.1871H23.6668C24.4669 94.1871 25.1214 93.5507 25.143 92.7513L25.1769 91.5222L28.2181 89.8939C29.4118 89.2516 30.8073 89.0988 32.1113 89.4679L50.2719 94.5649C50.3036 94.5742 50.3353 94.5814 50.3677 94.5887C51.6804 94.8633 53.0182 95.001 54.359 95.0002C57.199 95.0017 60.006 94.3897 62.5873 93.2047C62.6507 93.1758 62.712 93.1419 62.7703 93.1037L89.1015 76.072C89.7575 75.6474 89.9694 74.786 89.5852 74.1055C87.6303 70.6369 83.2945 69.3156 79.7372 71.1055V71.1055ZM13.4771 90.9542L14.1028 68.2164L22.8573 68.4571L22.2316 91.1957L13.4771 90.9542ZM61.2573 90.5679C58.0503 92.0153 54.4685 92.4146 51.0215 91.7104L32.91 86.6264C30.8715 86.0504 28.6895 86.289 26.8247 87.2917L25.2706 88.1242L25.6865 73.0063C30.6112 69.7308 36.9271 69.3942 42.1719 72.1269L43.2582 72.6898C45.1569 73.6702 47.2509 74.2108 49.3867 74.2728L60.0629 74.5662C63.0616 74.6527 65.6082 76.7878 66.2166 79.7259L50.3144 79.2869C49.4991 79.2645 48.8208 79.9075 48.7978 80.722C48.7754 81.5373 49.4184 82.2163 50.2329 82.2387L67.7823 82.7216H67.8234C68.6228 82.7209 69.2766 82.0844 69.2982 81.2857C69.3162 80.6442 69.2686 80.0019 69.1555 79.3705L81.0167 73.766C81.0282 73.761 81.0398 73.7552 81.0513 73.7495C82.7337 72.8982 84.7679 73.1829 86.1519 74.4638L61.2573 90.5679Z" fill="#F47E51"/>
<path d="M52.5287 20.5007V6.47626C52.5287 5.661 51.8677 5 51.0524 5C50.2372 5 49.5762 5.661 49.5762 6.47626V20.5007C49.5762 21.316 50.2372 21.977 51.0524 21.977C51.8677 21.977 52.5287 21.316 52.5287 20.5007Z" fill="#F47E51"/>
<path d="M63.601 20.5003V13.8571C63.601 13.0419 62.94 12.3809 62.1247 12.3809C61.3094 12.3809 60.6484 13.0419 60.6484 13.8571V20.5003C60.6484 21.3155 61.3094 21.9765 62.1247 21.9765C62.94 21.9765 63.601 21.3155 63.601 20.5003Z" fill="#F47E51"/>
<path d="M41.4564 20.5003V13.8571C41.4564 13.0419 40.7954 12.3809 39.9802 12.3809C39.1649 12.3809 38.5039 13.0419 38.5039 13.8571V20.5003C38.5039 21.3155 39.1649 21.9765 39.9802 21.9765C40.7954 21.9765 41.4564 21.3155 41.4564 20.5003Z" fill="#F47E51"/>
</svg>
