<svg width="100" height="100" viewBox="0 0 100 100" fill="none" xmlns="http://www.w3.org/2000/svg">
<path d="M50.7358 2.1739C50.2861 1.89092 49.7139 1.89073 49.2641 2.1739C39.0896 8.58081 33.2547 18.1325 33.2546 28.3801L33.2546 33.3297L21.686 41.3093C21.3578 41.5356 21.1437 41.8925 21.0982 42.2883L18.8044 62.2538C18.7494 62.7318 18.9472 63.2038 19.3264 63.4997C19.7056 63.7959 20.2114 63.8732 20.6617 63.7041L33.2545 58.9754V64.3377C33.2545 65.1004 33.8728 65.7186 34.6354 65.7186L40.7342 65.7186L40.7343 71.4165C40.7343 72.1792 41.3526 72.7975 42.1153 72.7975L57.8845 72.7976C58.2508 72.7975 58.602 72.6522 58.861 72.3932C59.1199 72.1342 59.2653 71.783 59.2654 71.4167L59.2654 65.7187H65.3642C65.7305 65.7186 66.0817 65.5732 66.3406 65.3143C66.5996 65.0553 66.745 64.7041 66.7451 64.3378L66.7451 58.9755L79.338 63.7043C79.7884 63.8734 80.2943 63.796 80.6734 63.4998C80.7183 63.465 80.7604 63.4275 80.8001 63.3878C81.0957 63.0922 81.2439 62.6753 81.1954 62.2539L78.9017 42.2885C78.8562 41.8927 78.6418 41.5357 78.314 41.3094L66.7453 33.3297L66.7453 28.3803C66.7452 18.1325 60.91 8.58072 50.7358 2.1739ZM21.8061 60.3244L23.7703 43.2267L33.2546 36.6848L33.2547 56.0254L21.8061 60.3244ZM56.5036 70.0358L43.4963 70.0358L43.4963 65.7187L56.5037 65.7188L56.5036 70.0358ZM76.2296 43.2267L78.1938 60.3244L66.7452 56.0254L66.7452 36.6847L76.2296 43.2267ZM63.9833 62.9569L36.0165 62.9568L36.0166 28.3801C36.0167 19.3478 41.1013 10.8634 50.0001 4.9856C58.899 10.8634 63.9836 19.3478 63.9835 28.3801L63.9833 62.9569ZM44.8279 22.5998C43.4465 23.9812 42.6856 25.8181 42.6855 27.7719C42.6856 31.8051 45.9668 35.0863 50.0001 35.0864C51.9538 35.0863 53.7908 34.3254 55.1721 32.944C56.5536 31.5626 57.3145 29.7256 57.3146 27.7719C57.3145 25.8181 56.5537 23.9813 55.1721 22.5997C53.7906 21.2181 51.9537 20.4573 50 20.4572C48.0462 20.4573 46.2094 21.2183 44.8279 22.5998ZM54.5526 27.7719C54.5527 30.2822 52.5101 32.3246 50 32.3245C47.4897 32.3245 45.4473 30.2821 45.4473 27.7719C45.4473 26.5167 45.9578 25.3786 46.7823 24.554C47.6067 23.7297 48.7449 23.2191 50.0001 23.2191C52.5103 23.2191 54.5527 25.2615 54.5526 27.7719ZM51.381 80.7349L51.3809 89.1002C51.3808 89.4815 51.2262 89.8269 50.9764 90.0767C50.7264 90.3267 50.3813 90.481 50 90.4811C49.2374 90.4811 48.6191 89.8629 48.619 89.1001L48.6191 80.7348C48.6195 79.972 49.2377 79.3541 50.0001 79.3538C50.7627 79.354 51.381 79.9722 51.381 80.7349ZM59.0629 77.5262V85.8915C59.0628 86.2728 58.9084 86.6181 58.6585 86.868C58.4086 87.1178 58.0633 87.2723 57.682 87.2724C56.9194 87.2724 56.3011 86.6541 56.301 85.8914L56.301 77.5261C56.3012 76.7635 56.9193 76.1454 57.682 76.1451C58.4447 76.1452 59.063 76.7635 59.0629 77.5262ZM65.3643 72.9366C66.1269 72.9366 66.7452 73.5549 66.7453 74.3176L66.7453 82.6829C66.7452 83.0642 66.5907 83.4095 66.3408 83.6593C66.091 83.9092 65.7457 84.0637 65.3644 84.0638C64.6018 84.0638 63.9835 83.4455 63.9834 82.6828L63.9834 74.3175C63.9835 73.5548 64.6016 72.9367 65.3643 72.9366ZM43.6988 77.5262L43.6988 85.8915C43.6987 86.2728 43.5442 86.6181 43.2944 86.868C43.0445 87.1178 42.6992 87.2723 42.3179 87.2724C41.5553 87.2724 40.937 86.6541 40.9369 85.8914L40.9369 77.5261C40.9371 76.7635 41.5552 76.1454 42.3179 76.1451C43.0805 76.1453 43.6988 76.7636 43.6988 77.5262ZM36.0166 74.3176L36.0167 82.683C36.0166 83.0643 35.8622 83.4096 35.6123 83.6594C35.3624 83.9093 35.0171 84.0638 34.6358 84.0639C33.8732 84.0639 33.2549 83.4456 33.2548 82.6829L33.2547 74.3175C33.2549 73.5549 33.873 72.9368 34.6357 72.9365C35.3984 72.9365 36.0166 73.5548 36.0166 74.3176Z" fill="#F47E51"/>
</svg>
