<svg width="60" height="60" viewBox="0 0 60 60" fill="none" xmlns="http://www.w3.org/2000/svg">
<g clip-path="url(#clip0_244_12970)">
<path d="M57.2341 57.6563H54.6639V20.3363C54.6639 18.5992 53.2506 17.186 51.5136 17.186H45.7686C44.0316 17.186 42.6184 18.5993 42.6184 20.3363V57.6563H36.092V37.2451C36.092 35.5081 34.6788 34.0949 32.9418 34.0949H27.1968C25.4597 34.0949 24.0465 35.5082 24.0465 37.2451V57.6563H17.5201V47.0855C17.5201 45.3484 16.1068 43.9353 14.3699 43.9353H8.62477C6.8877 43.9353 5.47453 45.3485 5.47453 47.0855V57.6563H2.76562C2.1184 57.6563 1.59375 58.1809 1.59375 58.8281C1.59375 59.4754 2.1184 60 2.76562 60H57.2341C57.8814 60 58.406 59.4754 58.406 58.8281C58.406 58.1809 57.8814 57.6563 57.2341 57.6563ZM15.1761 57.6563H7.81816V47.0855C7.81816 46.6408 8.17992 46.279 8.62465 46.279H14.3696C14.8144 46.279 15.1761 46.6408 15.1761 47.0855V57.6563ZM33.7481 57.6563H26.3902V37.2451C26.3902 36.8004 26.7519 36.4387 27.1966 36.4387H32.9416C33.3862 36.4387 33.7481 36.8004 33.7481 37.2451V57.6563ZM52.3201 57.6563H44.9621V20.3363C44.9621 19.8915 45.3239 19.5298 45.7686 19.5298H51.5136C51.9584 19.5298 52.3201 19.8915 52.3201 20.3363V57.6563Z" fill="#2F3338"/>
<path d="M54.6611 1.23234C54.6775 0.912539 54.565 0.587344 54.3208 0.343125C54.0766 0.0989062 53.7514 -0.0137109 53.4316 0.0028125C53.4127 0.00199219 53.3941 0 53.3749 0H46.285C45.6378 0 45.1132 0.524648 45.1132 1.17188C45.1132 1.8191 45.6378 2.34375 46.285 2.34375H50.6628L39.078 13.9287L34.7092 9.55992C34.4895 9.3402 34.1914 9.21668 33.8806 9.21668C33.5698 9.21668 33.2717 9.3402 33.052 9.55992L11.9853 30.6267C11.5277 31.0843 11.5277 31.8264 11.9853 32.2841C12.2142 32.5127 12.5141 32.6271 12.8139 32.6271C13.1138 32.6271 13.4138 32.5127 13.6426 32.2839L33.8806 12.0457L38.2494 16.4145C38.707 16.8721 39.449 16.8721 39.9067 16.4145L52.3202 4.00113V7.96324C52.3202 8.61047 52.8448 9.13512 53.4921 9.13512C54.1393 9.13512 54.6639 8.61047 54.6639 7.96324V1.28906C54.6639 1.26996 54.6619 1.25133 54.6611 1.23234Z" fill="#2F3338"/>
<path d="M8.86401 36.716C9.51122 36.716 10.0359 36.1913 10.0359 35.5441C10.0359 34.8969 9.51122 34.3723 8.86401 34.3723C8.2168 34.3723 7.69214 34.8969 7.69214 35.5441C7.69214 36.1913 8.2168 36.716 8.86401 36.716Z" fill="#2F3338"/>
</g>
<defs>
<clipPath id="clip0_244_12970">
<rect width="60" height="60" fill="white"/>
</clipPath>
</defs>
</svg>
