<svg width="76" height="72" viewBox="0 0 76 72" fill="none" xmlns="http://www.w3.org/2000/svg">
<path d="M10.2162 66.7081H2.32427C1.75083 66.7081 1.20088 66.4803 0.795392 66.0748C0.389908 65.6694 0.162109 65.1194 0.162109 64.546V40.2162C0.162109 39.6428 0.389908 39.0928 0.795392 38.6874C1.20088 38.2819 1.75083 38.0541 2.32427 38.0541H10.2162C10.7896 38.0541 11.3396 38.2819 11.745 38.6874C12.1505 39.0928 12.3783 39.6428 12.3783 40.2162V64.546C12.3783 65.1194 12.1505 65.6694 11.745 66.0748C11.3396 66.4803 10.7896 66.7081 10.2162 66.7081ZM2.32427 40.2162V64.546H10.2162V40.2162H2.32427Z" fill="#2F3338"/>
<path d="M46.785 57.6919H28.4066C28.1199 57.6919 27.8449 57.578 27.6421 57.3752C27.4394 57.1725 27.3255 56.8975 27.3255 56.6108C27.3255 56.3241 27.4394 56.0491 27.6421 55.8464C27.8449 55.6436 28.1199 55.5297 28.4066 55.5297H46.785C47.6053 55.5297 48.392 55.2038 48.972 54.6238C49.5521 54.0438 49.8779 53.257 49.8779 52.4367C49.8779 51.6164 49.5521 50.8297 48.972 50.2497C48.392 49.6696 47.6053 49.3438 46.785 49.3438H36.8109C36.5385 49.3441 36.2761 49.2409 36.0768 49.0551C32.7013 45.9188 28.2629 44.1778 23.6552 44.1827H11.2974C11.0107 44.1827 10.7357 44.0688 10.533 43.866C10.3302 43.6633 10.2163 43.3883 10.2163 43.1016C10.2163 42.8149 10.3302 42.5399 10.533 42.3372C10.7357 42.1344 11.0107 42.0205 11.2974 42.0205H23.6563C28.6614 42.015 33.4933 43.8522 37.2304 47.1816H46.785C48.1787 47.1816 49.5154 47.7353 50.5009 48.7208C51.4864 49.7063 52.0401 51.043 52.0401 52.4367C52.0401 53.8305 51.4864 55.1672 50.5009 56.1527C49.5154 57.1382 48.1787 57.6919 46.785 57.6919V57.6919Z" fill="#2F3338"/>
<path d="M37.9623 71.0346C35.31 71.0356 32.6804 70.5456 30.2066 69.5892L10.9115 62.1297C10.7776 62.0796 10.6549 62.0034 10.5507 61.9055C10.4464 61.8077 10.3626 61.6901 10.3041 61.5597C10.2456 61.4292 10.2136 61.2884 10.2098 61.1455C10.2061 61.0026 10.2308 60.8603 10.2824 60.727C10.334 60.5936 10.4116 60.4719 10.5106 60.3687C10.6096 60.2656 10.728 60.1831 10.8591 60.126C10.9902 60.069 11.1313 60.0385 11.2743 60.0363C11.4173 60.0342 11.5592 60.0604 11.692 60.1135L30.986 67.573C33.5138 68.5488 36.2181 68.9836 38.9244 68.8494C41.6306 68.7151 44.2786 68.0147 46.6974 66.7935L73.5201 53.2324C72.396 52.0824 70.9701 51.2731 69.4064 50.8977C67.8428 50.5223 66.2048 50.596 64.6812 51.1103L50.4769 55.9373C50.3416 55.9865 50.1979 56.0083 50.0542 56.0012C49.9105 55.9942 49.7696 55.9586 49.6398 55.8964C49.51 55.8342 49.394 55.7467 49.2984 55.6391C49.2029 55.5315 49.1298 55.4059 49.0835 55.2696C49.0371 55.1334 49.0184 54.9893 49.0285 54.8457C49.0386 54.7022 49.0772 54.5621 49.1422 54.4336C49.2071 54.3052 49.297 54.1911 49.4067 54.0978C49.5163 54.0046 49.6434 53.9342 49.7806 53.8908L63.986 49.0627C65.9112 48.4131 67.9814 48.3246 69.9549 48.8073C71.9285 49.2901 73.7241 50.3243 75.132 51.7892L75.3039 51.9686C75.5121 52.1858 75.6664 52.4488 75.7545 52.7364C75.8426 53.0241 75.862 53.3284 75.8111 53.6249C75.7602 53.9214 75.6405 54.2018 75.4615 54.4437C75.2825 54.6855 75.0493 54.882 74.7806 55.0173L47.6725 68.7243C44.6614 70.2443 41.3353 71.0356 37.9623 71.0346V71.0346Z" fill="#2F3338"/>
<path d="M49.8714 41.8476C49.2855 41.8476 48.6974 41.8227 48.1028 41.773C43.0797 41.3292 38.3954 39.0532 34.9421 35.3785C31.4889 31.7039 29.508 26.8873 29.3768 21.8464C29.2457 16.8055 30.9734 11.8924 34.2309 8.04315C37.4883 4.19388 42.048 1.67736 47.0412 0.972962C47.1941 0.951805 47.3499 0.963668 47.4979 1.00775C47.6459 1.05183 47.7827 1.12711 47.8992 1.22852C48.0156 1.32993 48.109 1.45512 48.1731 1.59565C48.2371 1.73618 48.2703 1.8888 48.2703 2.04323V22.9297H69.1568C69.3114 22.9297 69.4641 22.9627 69.6048 23.0267C69.7454 23.0906 69.8707 23.184 69.9723 23.3005C70.0738 23.417 70.1492 23.5539 70.1933 23.7019C70.2375 23.85 70.2494 24.0058 70.2282 24.1589C69.5401 29.0671 67.1004 33.5611 63.3593 36.8119C59.6181 40.0627 54.8277 41.8512 49.8714 41.8476ZM46.1082 3.32648C42.8677 4.00751 39.8714 5.55138 37.436 7.7949C35.0007 10.0384 33.2166 12.8982 32.2726 16.072C31.3285 19.2459 31.2594 22.6158 32.0727 25.8256C32.8859 29.0355 34.5512 31.966 36.8927 34.3074C39.2341 36.6488 42.1646 38.3142 45.3744 39.1274C48.5843 39.9407 51.9542 39.8716 55.128 38.9275C58.3019 37.9834 61.1617 36.1994 63.4052 33.764C65.6487 31.3286 67.1926 28.3324 67.8736 25.0919H47.1893C46.9025 25.0919 46.6276 24.978 46.4248 24.7752C46.2221 24.5725 46.1082 24.2975 46.1082 24.0108V3.32648Z" fill="#2F3338"/>
<path d="M69.1567 19.6864H52.5945C52.3078 19.6864 52.0328 19.5725 51.8301 19.3698C51.6273 19.1671 51.5134 18.8921 51.5134 18.6054V2.0432C51.5134 1.88873 51.5465 1.73604 51.6105 1.59543C51.6744 1.45482 51.7678 1.32955 51.8842 1.22806C52.0003 1.12582 52.1371 1.04996 52.2853 1.00573C52.4335 0.961492 52.5895 0.949933 52.7426 0.971849C57.1588 1.59665 61.2523 3.63993 64.4061 6.79376C67.5599 9.94758 69.6032 14.0411 70.228 18.4573C70.2492 18.6103 70.2373 18.7661 70.1932 18.9142C70.149 19.0623 70.0736 19.1992 69.9721 19.3157C69.8706 19.4322 69.7453 19.5255 69.6046 19.5895C69.4639 19.6535 69.3112 19.6865 69.1567 19.6864ZM53.6756 17.5243H67.8724C67.1334 14.038 65.3988 10.841 62.8789 8.32101C60.3589 5.80106 57.1619 4.06643 53.6756 3.32752V17.5243Z" fill="#2F3338"/>
</svg>
