<svg width="70" height="70" viewBox="0 0 70 70" fill="none" xmlns="http://www.w3.org/2000/svg">
<path d="M35.0947 68.0722C28.5381 68.1012 22.1208 66.1806 16.6582 62.5545C11.1955 58.9284 6.93384 53.7604 4.4147 47.7071C1.89555 41.6537 1.23257 34.9881 2.50996 28.5571C3.78735 22.1261 6.94747 16.2199 11.5889 11.5888C11.7664 11.4114 12.0071 11.3118 12.258 11.3119C12.5089 11.312 12.7495 11.4117 12.9269 11.5892C13.1043 11.7667 13.2039 12.0074 13.2038 12.2584C13.2037 12.5093 13.1039 12.7499 12.9264 12.9273C7.62649 18.2308 4.41209 25.2645 3.87074 32.7427C3.32939 40.221 5.49726 47.6443 9.9781 53.6559C14.4589 59.6674 20.9535 63.8658 28.2747 65.4835C35.5959 67.1012 43.2548 66.0303 49.8514 62.4665C49.961 62.4021 50.0823 62.3605 50.2083 62.344C50.3343 62.3276 50.4623 62.3367 50.5847 62.3708C50.7071 62.4049 50.8213 62.4633 50.9207 62.5425C51.02 62.6217 51.1023 62.7202 51.1628 62.8319C51.2232 62.9437 51.2605 63.0664 51.2725 63.1929C51.2845 63.3194 51.2708 63.447 51.2324 63.5681C51.194 63.6892 51.1315 63.8013 51.0488 63.8978C50.9661 63.9942 50.8649 64.073 50.751 64.1294C45.9414 66.7253 40.5601 68.0805 35.0947 68.0722V68.0722Z" fill="#2F3338"/>
<path d="M57.7424 58.6884C57.5552 58.6885 57.3721 58.6331 57.2164 58.5291C57.0607 58.4251 56.9393 58.2772 56.8677 58.1042C56.7961 57.9312 56.7774 57.7408 56.8141 57.5572C56.8507 57.3735 56.9411 57.2049 57.0737 57.0727C62.2866 51.8569 65.4852 44.9644 66.1027 37.6162C66.7203 30.2679 64.717 22.9382 60.4477 16.9255C56.1785 10.9129 49.9188 6.60542 42.7777 4.7662C35.6366 2.92698 28.0749 3.67474 21.4323 6.877C21.2079 6.97586 20.9539 6.98373 20.7239 6.89896C20.4938 6.81419 20.3057 6.64341 20.1991 6.42261C20.0925 6.20181 20.0758 5.94825 20.1525 5.71538C20.2292 5.4825 20.3933 5.28851 20.6103 5.1743C27.6553 1.7783 35.675 0.985442 43.2486 2.93617C50.8222 4.8869 57.461 9.45531 61.9889 15.8321C66.5167 22.2089 68.6415 29.9825 67.9866 37.7759C67.3318 45.5693 63.9397 52.8793 58.4112 58.4112C58.2339 58.5886 57.9933 58.6883 57.7424 58.6884V58.6884Z" fill="#2F3338"/>
<path d="M66.2019 58.6884H57.7423C57.4915 58.6884 57.2508 58.5887 57.0734 58.4113C56.896 58.2339 56.7964 57.9933 56.7964 57.7424V49.2838C56.7964 49.0329 56.896 48.7923 57.0734 48.6149C57.2508 48.4375 57.4915 48.3378 57.7423 48.3378C57.9932 48.3378 58.2338 48.4375 58.4112 48.6149C58.5886 48.7923 58.6883 49.0329 58.6883 49.2838V56.7984H66.2019C66.4528 56.7984 66.6934 56.898 66.8708 57.0754C67.0482 57.2528 67.1479 57.4934 67.1479 57.7443C67.1479 57.9952 67.0482 58.2358 66.8708 58.4132C66.6934 58.5906 66.4528 58.6903 66.2019 58.6903V58.6884Z" fill="#2F3338"/>
<path d="M12.2576 21.6622C12.0067 21.6622 11.7661 21.5625 11.5887 21.3851C11.4113 21.2077 11.3116 20.9671 11.3116 20.7162V13.2035H3.798C3.54712 13.2035 3.30651 13.1039 3.12911 12.9265C2.95171 12.7491 2.85205 12.5085 2.85205 12.2576C2.85205 12.0067 2.95171 11.7661 3.12911 11.5887C3.30651 11.4113 3.54712 11.3116 3.798 11.3116H12.2576C12.5085 11.3116 12.7491 11.4113 12.9265 11.5887C13.1039 11.7661 13.2035 12.0067 13.2035 12.2576V20.7162C13.2035 20.9671 13.1039 21.2077 12.9265 21.3851C12.7491 21.5625 12.5085 21.6622 12.2576 21.6622Z" fill="#2F3338"/>
<path d="M34.9999 54.8649C31.071 54.8649 27.2303 53.6998 23.9636 51.517C20.6968 49.3343 18.1507 46.2318 16.6471 42.602C15.1436 38.9721 14.7502 34.978 15.5167 31.1246C16.2832 27.2712 18.1752 23.7316 20.9533 20.9534C23.7315 18.1753 27.271 16.2833 31.1244 15.5168C34.9778 14.7503 38.972 15.1437 42.6018 16.6473C46.2317 18.1508 49.3341 20.6969 51.5169 23.9637C53.6997 27.2304 54.8648 31.0711 54.8648 35C54.8587 40.2667 52.7639 45.3159 49.0398 49.04C45.3157 52.764 40.2665 54.8589 34.9999 54.8649ZM34.9999 17.027C31.4452 17.027 27.9703 18.0811 25.0146 20.056C22.059 22.0309 19.7554 24.8379 18.395 28.122C17.0347 31.4062 16.6788 35.0199 17.3723 38.5064C18.0657 41.9928 19.7775 45.1953 22.2911 47.7088C24.8046 50.2224 28.0071 51.9341 31.4935 52.6276C34.9799 53.3211 38.5937 52.9652 41.8778 51.6049C45.162 50.2445 47.969 47.9409 49.9439 44.9853C51.9188 42.0296 52.9729 38.5547 52.9729 35C52.9676 30.2349 51.0723 25.6664 47.7029 22.297C44.3334 18.9276 39.765 17.0323 34.9999 17.027V17.027Z" fill="#2F3338"/>
<path d="M50.523 46.7572C50.3704 46.7572 50.2201 46.7203 50.0849 46.6496C49.9496 46.579 49.8335 46.4766 49.7464 46.3514C48.1635 44.0586 46.0656 42.1683 43.6209 40.832C41.1761 39.4957 38.4524 38.7505 35.6679 38.6561C35.4333 38.6466 35.2015 38.6466 35 38.6476C34.7825 38.6542 34.5649 38.6476 34.3435 38.6561C31.5571 38.7491 28.8313 39.4936 26.3844 40.8299C23.9376 42.1662 21.8379 44.0573 20.2537 46.3514C20.1101 46.5571 19.8906 46.6973 19.6436 46.7412C19.3965 46.7851 19.1422 46.7291 18.9365 46.5855C18.7307 46.4419 18.5905 46.2224 18.5466 45.9754C18.5027 45.7283 18.5587 45.474 18.7023 45.2683C20.4669 42.7494 22.7889 40.6718 25.4877 39.1971C28.1865 37.7224 31.1893 36.8905 34.2622 36.7661C34.7702 36.7481 35.2375 36.7472 35.7303 36.7661C38.8045 36.8893 41.8088 37.7206 44.509 39.1953C47.2092 40.6701 49.5325 42.7484 51.2977 45.2683C51.3968 45.41 51.4552 45.5762 51.4664 45.7488C51.4777 45.9214 51.4414 46.0937 51.3615 46.2471C51.2816 46.4005 51.1612 46.5291 51.0134 46.6189C50.8656 46.7086 50.696 46.7561 50.523 46.7562V46.7572Z" fill="#2F3338"/>
<path d="M35.0001 38.7025C33.5593 38.7025 32.1509 38.2752 30.9529 37.4746C29.755 36.674 28.8215 35.5362 28.2703 34.205C27.7192 32.8738 27.5752 31.409 27.8566 29.9959C28.138 28.5829 28.8322 27.2851 29.8514 26.2666C30.8705 25.2481 32.1688 24.5548 33.582 24.2743C34.9952 23.9938 36.4599 24.1387 37.7908 24.6907C39.1216 25.2427 40.2589 26.177 41.0586 27.3755C41.8584 28.5739 42.2848 29.9826 42.2839 31.4234C42.2826 33.3544 41.5147 35.2058 40.1488 36.5708C38.783 37.9357 36.9311 38.7025 35.0001 38.7025ZM35.0001 26.0362C33.9337 26.0362 32.8912 26.3525 32.0045 26.9449C31.1178 27.5374 30.4267 28.3795 30.0186 29.3647C29.6105 30.35 29.5038 31.4341 29.7118 32.48C29.9199 33.526 30.4334 34.4867 31.1875 35.2408C31.9415 35.9948 32.9023 36.5084 33.9482 36.7164C34.9941 36.9245 36.0782 36.8177 37.0635 36.4096C38.0487 36.0015 38.8908 35.3104 39.4833 34.4237C40.0758 33.537 40.392 32.4945 40.392 31.4281C40.392 29.9981 39.8239 28.6267 38.8127 27.6155C37.8016 26.6043 36.4301 26.0362 35.0001 26.0362V26.0362Z" fill="#2F3338"/>
</svg>
