<svg width="81" height="52" viewBox="0 0 81 52" fill="none" xmlns="http://www.w3.org/2000/svg">
<path d="M79.8851 29.4516L74.114 4.25393C73.5521 1.80096 71.099 0.262214 68.646 0.823933L64.0079 1.88612C61.5549 2.448 60.0162 4.90081 60.5779 7.35393L60.6938 7.86003L58.902 8.63971C57.4718 9.26175 55.9726 9.17581 54.5674 8.39065C53.1632 7.60612 51.9167 6.87487 50.817 6.22971C45.6767 3.21409 42.8448 1.553 38.557 3.15612C37.3518 3.60675 36.1556 4.48737 34.9263 5.648H19.4842C19.2082 3.8519 17.8684 2.31581 15.9923 1.88612L11.3542 0.823933C8.90025 0.262214 6.44791 1.80081 5.88619 4.25393L0.115252 29.4514C-0.15631 30.6366 0.0516586 31.8591 0.700721 32.8939C1.34978 33.9288 2.35994 34.6482 3.5451 34.9194L8.18322 35.9816C8.5226 36.0594 8.86494 36.0977 9.20525 36.0977C10.0531 36.0977 10.8873 35.8591 11.6256 35.396C12.4607 34.8722 13.0899 34.1131 13.4445 33.2169L30.1037 49.6897C31.1362 50.7225 32.5132 51.2913 33.981 51.2913H33.982C35.4498 51.2911 36.8268 50.7222 37.8595 49.6896C38.4454 49.1036 38.8821 48.4066 39.1501 47.645L40.8563 49.3513C41.8888 50.3839 43.2659 50.9528 44.7337 50.9527H44.7346C46.2024 50.9525 47.5795 50.3836 48.6121 49.351C49.2046 48.7585 49.6443 48.0525 49.9115 47.2813C50.8898 48.0911 52.1112 48.5316 53.4034 48.5316H53.4043C54.8721 48.5314 56.2492 47.9625 57.2818 46.9299C58.3143 45.8974 58.8831 44.5203 58.8832 43.0525C58.8832 42.8711 58.8745 42.6911 58.8574 42.5128C60.186 42.4257 61.4204 41.8689 62.3662 40.9233C63.7779 39.5114 64.2568 37.5152 63.8043 35.7063L67.1246 34.2408C67.4603 34.6944 67.8809 35.0867 68.3745 35.3961C69.1131 35.8594 69.947 36.0978 70.7948 36.0978C71.1351 36.0978 71.4774 36.0594 71.8168 35.9817L76.4549 34.9196C77.6401 34.6481 78.6503 33.9289 79.2993 32.8941C79.9485 31.8591 80.1565 30.6366 79.8851 29.4516V29.4516ZM39.6513 6.08315C42.414 5.05003 44.1535 5.94362 49.2357 8.92503C50.3487 9.578 51.6103 10.3182 53.0432 11.1188C55.2998 12.3792 57.8234 12.5166 60.1488 11.5052L61.4038 10.9591L66.0612 31.2942L62.1981 32.9992L47.9631 18.7646C45.1948 15.9966 40.8506 15.6049 37.6324 17.8336C32.706 21.2449 29.4484 22.5319 26.3288 19.7386C28.5892 17.6353 30.6959 15.1403 32.5888 12.8986C35.2382 9.76112 37.7409 6.79753 39.6513 6.08315V6.08315ZM9.96494 32.7486C9.63728 32.9541 9.2526 33.0205 8.88088 32.9355L4.24275 31.8733C3.87135 31.7883 3.55353 31.561 3.34791 31.2333C3.1426 30.9057 3.07619 30.5207 3.16135 30.1492L8.93244 4.95159C9.08494 4.28581 9.67916 3.83362 10.3353 3.83362C10.4413 3.83362 10.5488 3.84549 10.6567 3.87003L15.2948 4.93221C16.0682 5.1094 16.5534 5.88284 16.3762 6.65628L10.6049 31.8541C10.5199 32.2255 10.2928 32.5432 9.96494 32.7486V32.7486ZM60.1567 38.7135C59.7142 39.156 59.1217 39.3997 58.4882 39.3999C57.8549 39.4 57.2626 39.1564 56.8203 38.7139L45.7229 27.6157C45.1128 27.0055 44.1237 27.0053 43.5131 27.6157C42.9029 28.2258 42.9029 29.2152 43.5131 29.8253C43.5131 29.8253 55.0188 41.331 55.0723 41.3846C55.5148 41.8269 55.7584 42.4191 55.7584 43.0522C55.7582 43.6855 55.5146 44.2778 55.0721 44.7202C54.6296 45.1628 54.0371 45.4066 53.4037 45.4067C53.4035 45.4067 53.4035 45.4067 53.4034 45.4067C52.7703 45.4067 52.1781 45.1632 51.7359 44.7208L39.7979 32.7821C39.1879 32.1719 38.1988 32.1719 37.5881 32.7821C36.9779 33.3922 36.9779 34.3816 37.5881 34.9917L46.4421 43.8464C46.8595 44.2841 47.0885 44.8596 47.0885 45.4736C47.0884 46.1069 46.8448 46.6992 46.4023 47.1416C45.9598 47.5842 45.3673 47.828 44.7338 47.828C44.7337 47.828 44.7337 47.828 44.7335 47.828C44.1004 47.828 43.5084 47.5844 43.066 47.1421L33.372 37.4477C32.762 36.8375 31.7729 36.8375 31.1621 37.4477C30.552 38.0578 30.552 39.0472 31.1621 39.6574L35.6815 44.1767C36.1037 44.6153 36.3357 45.1942 36.3356 45.8122C36.3356 46.4455 36.0918 47.0378 35.6495 47.4802C35.207 47.9228 34.6145 48.1666 33.981 48.1667C33.9809 48.1667 33.9809 48.1667 33.9807 48.1667C33.3476 48.1667 32.7556 47.9232 32.307 47.4744L14.3095 29.6774L19.0973 8.77299H31.9979C31.4134 9.44753 30.8159 10.1547 30.2012 10.8825C27.9413 13.5586 25.6048 16.3258 23.0776 18.4447C22.4181 18.9978 22.3301 19.9802 22.8807 20.6417C25.1803 23.4036 27.6278 24.3711 29.9792 24.371C33.6806 24.3708 37.1437 21.9732 39.4115 20.4027C41.4188 19.0127 44.0267 19.2475 45.7532 20.9742L60.1567 35.3775C61.0765 36.2972 61.0763 37.7938 60.1567 38.7135V38.7135ZM76.6521 31.2333C76.4467 31.561 76.1287 31.7883 75.7573 31.8733L71.1192 32.9355C70.7473 33.0205 70.3626 32.9541 70.0351 32.7486C69.7073 32.5432 69.4801 32.2253 69.3951 31.8539L63.6242 6.65628C63.447 5.88284 63.9321 5.1094 64.7056 4.93221L69.3437 3.87003C70.1165 3.69315 70.8907 4.17815 71.0678 4.95159L76.839 30.1494C76.924 30.5207 76.8576 30.9057 76.6521 31.2333V31.2333Z" fill="#2F3338"/>
</svg>
