<svg width="70" height="70" viewBox="0 0 70 70" fill="none" xmlns="http://www.w3.org/2000/svg">
<g clip-path="url(#clip0_244_12964)">
<path d="M69.001 2.02933C68.8842 1.51636 68.4838 1.11564 67.9707 0.999021C56.3624 -1.63856 45.5906 0.963475 38.4164 8.13752L34.9513 11.6027L21.266 9.09004C20.8779 9.01867 20.4781 9.11861 20.1691 9.36388L4.58592 21.7354C4.21282 22.0316 4.02086 22.5005 4.07911 22.9731C4.13721 23.4459 4.43717 23.8542 4.87084 24.051L16.9973 29.5566L13.2432 33.3106C12.7093 33.8445 12.7093 34.7102 13.2432 35.2441L17.5128 39.5136L13.5239 43.5027C12.99 44.0366 12.99 44.9023 13.5239 45.4363L24.5635 56.4761C24.82 56.7324 25.1677 56.8765 25.5303 56.8765C25.8929 56.8765 26.2405 56.7324 26.497 56.4761L30.4861 52.487L34.7556 56.7566C35.0121 57.013 35.3598 57.1571 35.7224 57.1571C36.085 57.1571 36.4326 57.013 36.6891 56.7566L40.4431 53.0026L45.9487 65.1291C46.1456 65.5628 46.5539 65.8628 47.0267 65.9209C47.0825 65.9278 47.1383 65.9311 47.1938 65.9311C47.6078 65.9311 48.0033 65.743 48.2644 65.4141L60.636 49.831C60.8812 49.522 60.981 49.122 60.9099 48.7341L58.3973 35.0487L61.8623 31.5837C69.0365 24.4094 71.6384 13.6373 69.001 2.02933V2.02933ZM8.03807 22.4862L21.3829 11.8915L32.6025 13.9515L19.0627 27.4914L8.03807 22.4862ZM25.5303 53.5759L16.4241 44.4697L19.4464 41.4474L28.5526 50.5537L25.5303 53.5759ZM58.1084 48.6171L47.5138 61.9619L42.5086 50.9373L56.0485 37.3974L58.1084 48.6171ZM35.7224 53.8564L16.1436 34.2775L40.35 10.0711C46.6734 3.74789 56.1728 1.36775 66.5175 3.48265C68.6325 13.8275 66.2524 23.3268 59.929 29.6501L35.7224 53.8564ZM50.5653 12.193C48.6311 12.193 46.8125 12.9463 45.4446 14.3141C42.6211 17.1377 42.6211 21.7319 45.4446 24.5555C46.8125 25.9233 48.6311 26.6766 50.5653 26.6766C52.4996 26.6766 54.3182 25.9233 55.6861 24.5555C57.0538 23.1877 57.8071 21.3692 57.8071 19.4347C57.8071 17.5003 57.0538 15.6818 55.6861 14.3139C54.3182 12.9462 52.4996 12.193 50.5653 12.193V12.193ZM53.7524 22.6219C51.9951 24.3794 49.1353 24.3793 47.3781 22.6219C45.6207 20.8645 45.6207 18.0049 47.3781 16.2475C48.2568 15.3688 49.4109 14.9294 50.5654 14.9294C51.7196 14.9294 52.8739 15.3688 53.7526 16.2475C55.51 18.0049 55.51 20.8645 53.7524 22.6219ZM14.4539 57.4797L8.59739 63.3361C8.33038 63.6029 7.98038 63.7365 7.63065 63.7365C7.28065 63.7365 6.93092 63.6029 6.66391 63.3361C6.13002 62.8022 6.13002 61.9365 6.66391 61.4025L12.5204 55.5461C13.0547 55.0124 13.9201 55.0126 14.454 55.5461C14.9878 56.0801 14.9878 56.9458 14.4539 57.4797V57.4797ZM22.0781 60.6114L16.2218 66.4678C15.9548 66.7346 15.6049 66.8682 15.255 66.8682C14.9052 66.8682 14.5553 66.7346 14.2883 66.4678C13.7544 65.9339 13.7544 65.0682 14.2883 64.5341L20.1447 58.6778C20.6787 58.144 21.5441 58.144 22.0783 58.6778C22.6122 59.2118 22.6122 60.0775 22.0781 60.6114ZM29.7027 61.8097C30.2365 62.3436 30.2365 63.2093 29.7027 63.7434L23.8463 69.5997C23.5793 69.8666 23.2294 70.0002 22.8796 70.0002C22.5297 70.0002 22.1798 69.8666 21.9128 69.5997C21.379 69.0658 21.379 68.2001 21.9128 67.6661L27.7692 61.8097C28.3032 61.2759 29.1686 61.2759 29.7027 61.8097V61.8097ZM11.3221 49.8553L5.46571 55.7117C5.1987 55.9786 4.84883 56.1121 4.49897 56.1121C4.14911 56.1121 3.79924 55.9786 3.53223 55.7117C2.99834 55.1778 2.99834 54.3121 3.53223 53.7781L9.38858 47.9217C9.9226 47.388 10.788 47.388 11.3222 47.9217C11.8559 48.4557 11.8559 49.3214 11.3221 49.8553ZM8.19024 42.2309L2.33389 48.0874C2.06688 48.3543 1.71702 48.4879 1.36715 48.4879C1.01729 48.4879 0.667427 48.3543 0.400415 48.0874C-0.133472 47.5535 -0.133472 46.6878 0.400415 46.1538L6.25676 40.2973C6.79079 39.7636 7.65622 39.7636 8.19038 40.2973C8.72426 40.8312 8.72426 41.6969 8.19024 42.2309V42.2309Z" fill="#2F3338"/>
</g>
<defs>
<clipPath id="clip0_244_12964">
<rect width="70" height="70" fill="white"/>
</clipPath>
</defs>
</svg>
