<svg width="70" height="70" viewBox="0 0 70 70" fill="none" xmlns="http://www.w3.org/2000/svg">
<path d="M63.3783 68.1081H6.62158C5.36717 68.1081 4.16415 67.6098 3.27715 66.7228C2.39016 65.8358 1.89185 64.6327 1.89185 63.3783V6.62158C1.89185 5.36717 2.39016 4.16415 3.27715 3.27715C4.16415 2.39016 5.36717 1.89185 6.62158 1.89185H63.3783C64.6327 1.89185 65.8358 2.39016 66.7228 3.27715C67.6098 4.16415 68.1081 5.36717 68.1081 6.62158V63.3783C68.1081 64.6327 67.6098 65.8358 66.7228 66.7228C65.8358 67.6098 64.6327 68.1081 63.3783 68.1081ZM6.62158 3.78374C5.86893 3.78374 5.14712 4.08272 4.61492 4.61492C4.08272 5.14712 3.78374 5.86893 3.78374 6.62158V63.3783C3.78374 64.131 4.08272 64.8528 4.61492 65.385C5.14712 65.9172 5.86893 66.2162 6.62158 66.2162H63.3783C64.131 66.2162 64.8528 65.9172 65.385 65.385C65.9172 64.8528 66.2162 64.131 66.2162 63.3783V6.62158C66.2162 5.86893 65.9172 5.14712 65.385 4.61492C64.8528 4.08272 64.131 3.78374 63.3783 3.78374H6.62158Z" fill="#2F3338"/>
<path d="M34.9999 47.6851C34.749 47.6851 34.5084 47.5854 34.331 47.408C34.1536 47.2306 34.054 46.99 34.054 46.7391V23.2608C34.054 23.0099 34.1536 22.7693 34.331 22.5919C34.5084 22.4145 34.749 22.3148 34.9999 22.3148C35.2508 22.3148 35.4914 22.4145 35.6688 22.5919C35.8462 22.7693 35.9458 23.0099 35.9458 23.2608V46.7391C35.9458 46.99 35.8462 47.2306 35.6688 47.408C35.4914 47.5854 35.2508 47.6851 34.9999 47.6851Z" fill="#2F3338"/>
<path d="M34.9999 68.1082C34.749 68.1082 34.5084 68.0085 34.331 67.8311C34.1536 67.6537 34.054 67.4131 34.054 67.1622V54.4771C34.054 54.2262 34.1536 53.9856 34.331 53.8082C34.5084 53.6308 34.749 53.5311 34.9999 53.5311C35.2508 53.5311 35.4914 53.6308 35.6688 53.8082C35.8462 53.9856 35.9458 54.2262 35.9458 54.4771V67.1622C35.9458 67.4131 35.8462 67.6537 35.6688 67.8311C35.4914 68.0085 35.2508 68.1082 34.9999 68.1082Z" fill="#2F3338"/>
<path d="M34.9999 16.4689C34.749 16.4689 34.5084 16.3692 34.331 16.1918C34.1536 16.0144 34.054 15.7738 34.054 15.5229V2.83779C34.054 2.58691 34.1536 2.34631 34.331 2.16891C34.5084 1.99151 34.749 1.89185 34.9999 1.89185C35.2508 1.89185 35.4914 1.99151 35.6688 2.16891C35.8462 2.34631 35.9458 2.58691 35.9458 2.83779V15.5229C35.9458 15.7738 35.8462 16.0144 35.6688 16.1918C35.4914 16.3692 35.2508 16.4689 34.9999 16.4689Z" fill="#2F3338"/>
<path d="M46.2661 35.946H22.7877C22.5369 35.946 22.2963 35.8463 22.1189 35.6689C21.9415 35.4915 21.8418 35.2509 21.8418 35C21.8418 34.7491 21.9415 34.5085 22.1189 34.3311C22.2963 34.1537 22.5369 34.0541 22.7877 34.0541H46.2661C46.517 34.0541 46.7576 34.1537 46.935 34.3311C47.1124 34.5085 47.2121 34.7491 47.2121 35C47.2121 35.2509 47.1124 35.4915 46.935 35.6689C46.7576 35.8463 46.517 35.946 46.2661 35.946Z" fill="#2F3338"/>
<path d="M15.05 35.946H2.83779C2.58691 35.946 2.34631 35.8463 2.16891 35.6689C1.99151 35.4915 1.89185 35.2509 1.89185 35C1.89185 34.7491 1.99151 34.5085 2.16891 34.3311C2.34631 34.1537 2.58691 34.0541 2.83779 34.0541H15.05C15.3008 34.0541 15.5414 34.1537 15.7188 34.3311C15.8962 34.5085 15.9959 34.7491 15.9959 35C15.9959 35.2509 15.8962 35.4915 15.7188 35.6689C15.5414 35.8463 15.3008 35.946 15.05 35.946Z" fill="#2F3338"/>
<path d="M67.1622 35.946H54.0041C53.7532 35.946 53.5126 35.8463 53.3352 35.6689C53.1578 35.4915 53.0581 35.2509 53.0581 35C53.0581 34.7491 53.1578 34.5085 53.3352 34.3311C53.5126 34.1537 53.7532 34.0541 54.0041 34.0541H67.1622C67.413 34.0541 67.6536 34.1537 67.831 34.3311C68.0084 34.5085 68.1081 34.7491 68.1081 35C68.1081 35.2509 68.0084 35.4915 67.831 35.6689C67.6536 35.8463 67.413 35.946 67.1622 35.946Z" fill="#2F3338"/>
<path d="M54.004 35.946C53.8046 35.9447 53.6107 35.8805 53.45 35.7624C53.2893 35.6444 53.1701 35.4786 53.1092 35.2887C53.0484 35.0988 53.0491 34.8946 53.1112 34.7051C53.1734 34.5157 53.2938 34.3507 53.4553 34.2338C54.431 33.5331 55.1592 32.5409 55.5351 31.3999C55.9111 30.259 55.9153 29.0283 55.5472 27.8848C55.1791 26.7413 54.4578 25.7441 53.4869 25.0367C52.5161 24.3293 51.3458 23.9482 50.1445 23.9482C48.9433 23.9482 47.773 24.3293 46.8022 25.0367C45.8313 25.7441 45.1099 26.7413 44.7418 27.8848C44.3738 29.0283 44.378 30.259 44.7539 31.3999C45.1298 32.5409 45.858 33.5331 46.8337 34.2338C46.9465 34.3006 47.0442 34.3902 47.1206 34.4968C47.197 34.6034 47.2504 34.7247 47.2774 34.853C47.3044 34.9813 47.3044 35.1138 47.2774 35.2422C47.2505 35.3705 47.1971 35.4918 47.1208 35.5984C47.0444 35.7051 46.9468 35.7946 46.834 35.8615C46.7212 35.9283 46.5957 35.971 46.4655 35.9868C46.3353 36.0026 46.2033 35.9911 46.0778 35.9532C45.9523 35.9152 45.836 35.8515 45.7364 35.7662C44.4362 34.8315 43.4661 33.5084 42.9656 31.9873C42.4651 30.4662 42.46 28.8255 42.951 27.3013C43.4421 25.7771 44.4039 24.448 45.6983 23.5051C46.9926 22.5623 48.5527 22.0543 50.154 22.0543C51.7553 22.0543 53.3154 22.5623 54.6097 23.5051C55.904 24.448 56.8659 25.7771 57.357 27.3013C57.848 28.8255 57.8429 30.4662 57.3424 31.9873C56.8419 33.5084 55.8717 34.8315 54.5716 35.7662C54.4066 35.8857 54.2076 35.9487 54.004 35.946V35.946Z" fill="#2F3338"/>
<path d="M18.9189 47.9311C17.3214 47.9268 15.7663 47.4171 14.4762 46.475C13.1861 45.5329 12.2272 44.2067 11.7369 42.6864C11.2466 41.166 11.2499 39.5295 11.7465 38.0111C12.2431 36.4928 13.2074 35.1706 14.5013 34.2338C14.705 34.1132 14.9465 34.0733 15.1781 34.122C15.4097 34.1707 15.6147 34.3045 15.7525 34.497C15.8903 34.6894 15.9509 34.9265 15.9225 35.1615C15.894 35.3965 15.7784 35.6123 15.5986 35.7662C14.6229 36.4669 13.8947 37.4592 13.5188 38.6001C13.1429 39.741 13.1387 40.9718 13.5068 42.1152C13.8748 43.2587 14.5962 44.2559 15.5671 44.9633C16.5379 45.6707 17.7082 46.0518 18.9094 46.0518C20.1107 46.0518 21.281 45.6707 22.2518 44.9633C23.2227 44.2559 23.9441 43.2587 24.3121 42.1152C24.6802 40.9718 24.676 39.741 24.3001 38.6001C23.9242 37.4592 23.196 36.4669 22.2203 35.7662C22.1074 35.6994 22.0097 35.6098 21.9334 35.5032C21.857 35.3966 21.8036 35.2753 21.7766 35.147C21.7496 35.0187 21.7496 34.8862 21.7766 34.7578C21.8035 34.6295 21.8569 34.5082 21.9332 34.4016C22.0095 34.295 22.1072 34.2054 22.22 34.1385C22.3328 34.0717 22.4583 34.029 22.5885 34.0132C22.7186 33.9974 22.8507 34.0089 22.9762 34.0469C23.1017 34.0848 23.218 34.1485 23.3176 34.2338C24.6102 35.1696 25.574 36.4902 26.071 38.0067C26.5681 39.5232 26.573 41.158 26.085 42.6774C25.5971 44.1969 24.6413 45.5232 23.3542 46.4667C22.0672 47.4103 20.5148 47.9228 18.9189 47.9311V47.9311Z" fill="#2F3338"/>
<path d="M40.3635 58.1756C39.1654 58.1733 37.9849 57.8865 36.9192 57.3389C35.8536 56.7913 34.9332 55.9984 34.2338 55.0256C34.155 54.9254 34.0972 54.8103 34.064 54.6872C34.0308 54.5642 34.0228 54.4356 34.0406 54.3094C34.0583 54.1831 34.1013 54.0618 34.1671 53.9526C34.2329 53.8434 34.3201 53.7487 34.4235 53.674C34.5268 53.5994 34.6442 53.5464 34.7685 53.5183C34.8929 53.4901 35.0216 53.4874 35.147 53.5103C35.2724 53.5331 35.3919 53.5811 35.4983 53.6513C35.6047 53.7216 35.6959 53.8126 35.7662 53.9189C36.4669 54.8946 37.4592 55.6228 38.6001 55.9987C39.741 56.3746 40.9718 56.3788 42.1152 56.0108C43.2587 55.6427 44.2559 54.9213 44.9633 53.9504C45.6707 52.9796 46.0518 51.8093 46.0518 50.6081C46.0518 49.4068 45.6707 48.2365 44.9633 47.2657C44.2559 46.2948 43.2587 45.5734 42.1152 45.2054C40.9718 44.8373 39.741 44.8415 38.6001 45.2174C37.4592 45.5934 36.4669 46.3216 35.7662 47.2973C35.6994 47.4101 35.6098 47.5078 35.5032 47.5842C35.3966 47.6605 35.2753 47.7139 35.147 47.7409C35.0187 47.7679 34.8862 47.7679 34.7578 47.741C34.6295 47.714 34.5082 47.6607 34.4016 47.5843C34.295 47.508 34.2054 47.4103 34.1385 47.2975C34.0717 47.1847 34.029 47.0592 34.0132 46.929C33.9974 46.7989 34.0089 46.6668 34.0469 46.5413C34.0848 46.4158 34.1485 46.2996 34.2338 46.2C34.9897 45.1451 36.0043 44.3023 37.18 43.7527C38.3556 43.2031 39.6529 42.965 40.9471 43.0614C42.2413 43.1579 43.489 43.5855 44.5703 44.3033C45.6515 45.021 46.53 46.0048 47.1213 47.1601C47.7126 48.3153 47.9969 49.6033 47.9468 50.9001C47.8968 52.1969 47.514 53.4591 46.8354 54.5653C46.1567 55.6715 45.205 56.5846 44.0716 57.2169C42.9382 57.8492 41.6613 58.1793 40.3635 58.1756V58.1756Z" fill="#2F3338"/>
<path d="M29.6364 26.9595C28.3394 26.962 27.0635 26.6311 25.9312 25.9985C24.7988 25.366 23.8481 24.453 23.1702 23.3473C22.4922 22.2415 22.1099 20.9801 22.0598 19.684C22.0098 18.388 22.2937 17.1008 22.8843 15.946C23.4748 14.7913 24.3523 13.8077 25.4325 13.0897C26.5126 12.3717 27.7592 11.9433 29.0525 11.8458C30.3459 11.7482 31.6426 11.9847 32.8182 12.5326C33.9939 13.0804 35.009 13.9212 35.7661 14.9743C35.9009 15.178 35.9516 15.4258 35.9078 15.666C35.864 15.9062 35.729 16.1202 35.5311 16.2632C35.3331 16.4061 35.0876 16.467 34.8458 16.4331C34.6039 16.3991 34.3846 16.273 34.2337 16.0811C33.533 15.1054 32.5407 14.3772 31.3998 14.0013C30.2589 13.6254 29.0281 13.6211 27.8847 13.9892C26.7412 14.3573 25.744 15.0787 25.0366 16.0495C24.3292 17.0204 23.948 18.1906 23.948 19.3919C23.948 20.5931 24.3292 21.7634 25.0366 22.7343C25.744 23.7051 26.7412 24.4265 27.8847 24.7946C29.0281 25.1626 30.2589 25.1584 31.3998 24.7825C32.5407 24.4066 33.533 23.6784 34.2337 22.7027C34.3876 22.5229 34.6034 22.4074 34.8384 22.3789C35.0734 22.3504 35.3105 22.4111 35.5029 22.5489C35.6954 22.6867 35.8292 22.8916 35.8779 23.1232C35.9266 23.3549 35.8867 23.5963 35.7661 23.8C35.0677 24.7746 34.1478 25.5692 33.0821 26.1185C32.0163 26.6678 30.8353 26.9561 29.6364 26.9595Z" fill="#2F3338"/>
</svg>
