<svg width="50" height="50" viewBox="0 0 50 50" fill="none" xmlns="http://www.w3.org/2000/svg">
<g clip-path="url(#clip0_244_13079)">
<path d="M25.0001 46.3235C13.2234 46.3235 3.67651 36.7767 3.67651 25C3.67651 13.2232 13.2234 3.67651 25.0001 3.67651C36.7767 3.67651 46.3236 13.2233 46.3236 25.0001C46.3102 36.7711 36.7712 46.3101 25.0001 46.3235ZM25.0001 5.14701C14.0356 5.14701 5.14712 14.0355 5.14712 25C5.14712 35.9644 14.0356 44.8529 25.0001 44.8529C35.9645 44.8529 44.853 35.9644 44.853 25C44.8409 14.0406 35.9595 5.15923 25.0001 5.14701Z" fill="#F47E51"/>
<path d="M24.9999 36.0293C18.9085 36.0293 13.9705 31.0912 13.9705 24.9999C13.9705 18.9085 18.9085 13.9705 24.9999 13.9705C31.0912 13.9705 36.0293 18.9085 36.0293 24.9999C36.0224 31.0885 31.0885 36.0224 24.9999 36.0293ZM24.9999 15.4411C19.7207 15.4411 15.4411 19.7207 15.4411 24.9999C15.4411 30.2791 19.7207 34.5587 24.9999 34.5587C30.2791 34.5587 34.5587 30.2791 34.5587 24.9999C34.5526 19.7232 30.2765 15.4471 24.9999 15.4411Z" fill="#F47E51"/>
<path d="M25.7353 0H24.2646V50H25.7353V0Z" fill="#F47E51"/>
<path d="M50 24.2646H0V25.7353H50V24.2646Z" fill="#F47E51"/>
</g>
<defs>
<clipPath id="clip0_244_13079">
<rect width="50" height="50" fill="white"/>
</clipPath>
</defs>
</svg>
