<svg width="55" height="56" viewBox="0 0 55 56" fill="none" xmlns="http://www.w3.org/2000/svg">
<path d="M27.4999 18.9077C28.5438 18.9062 29.5791 19.0955 30.5549 19.4663C30.6605 19.5064 30.7728 19.5253 30.8857 19.5219C30.9985 19.5186 31.1095 19.493 31.2125 19.4467C31.3154 19.4004 31.4082 19.3343 31.4856 19.2522C31.563 19.17 31.6235 19.0734 31.6635 18.9679C31.7036 18.8624 31.7225 18.75 31.7191 18.6372C31.7158 18.5244 31.6902 18.4133 31.6439 18.3104C31.5976 18.2074 31.5315 18.1146 31.4494 18.0372C31.3672 17.9598 31.2706 17.8994 31.1651 17.8593C28.9572 17.0198 26.528 16.9637 24.2837 17.7004C22.0394 18.4371 20.1161 19.9219 18.8352 21.9066C17.5544 23.8913 16.9937 26.2556 17.2469 28.6041C17.5002 30.9526 18.552 33.143 20.2265 34.809C21.901 36.475 24.0966 37.5157 26.4464 37.7571C28.7961 37.9984 31.1575 37.4258 33.1357 36.1349C35.1139 34.844 36.589 32.9132 37.3143 30.6652C38.0396 28.4172 37.9712 25.9883 37.1206 23.7847C37.0823 23.6763 37.0227 23.5767 36.9452 23.4917C36.8678 23.4068 36.774 23.3383 36.6696 23.2902C36.5652 23.2421 36.4522 23.2155 36.3373 23.2118C36.2224 23.2082 36.108 23.2277 36.0007 23.2691C35.8935 23.3105 35.7956 23.373 35.713 23.4529C35.6303 23.5328 35.5645 23.6284 35.5195 23.7342C35.4745 23.84 35.4511 23.9537 35.4508 24.0687C35.4506 24.1836 35.4733 24.2975 35.5178 24.4034C36.1793 26.1149 36.2756 27.9931 35.7927 29.7632C35.3099 31.5333 34.2731 33.1024 32.8342 34.2409C31.3954 35.3793 29.6299 36.0274 27.7962 36.0902C25.9624 36.153 24.1567 35.6273 22.6433 34.59C21.1299 33.5526 19.9882 32.0582 19.3853 30.3252C18.7825 28.5923 18.75 26.7119 19.2928 24.9593C19.8356 23.2066 20.9251 21.6736 22.4018 20.5847C23.8786 19.4958 25.6651 18.9082 27.4999 18.9077Z" fill="#F47E51"/>
<path d="M47.5969 0.0659167C47.44 0.000643652 47.2672 -0.0166418 47.1005 0.0162456C46.9338 0.049133 46.7805 0.130717 46.6601 0.250682L41.5039 5.40693C41.4235 5.48688 41.3597 5.58195 41.3162 5.68667C41.2726 5.79139 41.2503 5.90369 41.2504 6.01709V12.5354L27.0922 26.6937C26.9309 26.8549 26.8403 27.0736 26.8403 27.3017C26.8403 27.5297 26.9309 27.7484 27.0922 27.9097C27.2534 28.0709 27.4721 28.1615 27.7002 28.1615C27.9282 28.1615 28.1469 28.0709 28.3082 27.9097L42.4664 13.7515H48.9848C49.2123 13.7505 49.4302 13.6593 49.5906 13.4979L54.7469 8.3417C54.8663 8.22153 54.9476 8.06873 54.9805 7.9025C55.0133 7.73627 54.9963 7.56404 54.9316 7.40745C54.8668 7.25087 54.7572 7.11692 54.6166 7.02244C54.4759 6.92796 54.3104 6.87718 54.141 6.87646H49.3414L51.3137 4.9042C51.4749 4.74294 51.5655 4.52424 51.5655 4.29619C51.5655 4.06814 51.4749 3.84944 51.3137 3.68818C51.1524 3.52693 50.9337 3.43634 50.7057 3.43634C50.4776 3.43634 50.2589 3.52693 50.0976 3.68818L48.1254 5.66045V0.860839C48.1257 0.690933 48.0757 0.524735 47.9816 0.383247C47.8876 0.241758 47.7537 0.13133 47.5969 0.0659167ZM42.9691 6.37373L46.4066 2.93623V7.3792L42.9691 10.8167V6.37373ZM52.0656 8.59521L48.6281 12.0327H44.1851L47.6226 8.59521H52.0656Z" fill="#F47E51"/>
<path d="M54.1406 26.6423H49.8438C49.7051 22.8462 48.5988 19.1486 46.6297 15.9001C46.5112 15.7053 46.3201 15.5655 46.0985 15.5115C45.8769 15.4575 45.6429 15.4937 45.448 15.6123C45.2532 15.7308 45.1134 15.9219 45.0594 16.1435C45.0054 16.3651 45.0416 16.599 45.1602 16.7939C46.9561 19.7755 47.9659 23.1641 48.0949 26.6423H43.8281C43.6002 26.6423 43.3816 26.7329 43.2205 26.894C43.0593 27.0552 42.9688 27.2738 42.9688 27.5017C42.9688 27.7296 43.0593 27.9482 43.2205 28.1094C43.3816 28.2705 43.6002 28.3611 43.8281 28.3611H48.1035C47.8823 33.5266 45.7311 38.421 42.0752 42.0769C38.4193 45.7328 33.5248 47.884 28.3594 48.1052V43.8298C28.3594 43.6019 28.2688 43.3833 28.1077 43.2222C27.9465 43.061 27.7279 42.9705 27.5 42.9705C27.2721 42.9705 27.0535 43.061 26.8923 43.2222C26.7312 43.3833 26.6406 43.6019 26.6406 43.8298V48.1052C21.4752 47.884 16.5807 45.7328 12.9248 42.0769C9.2689 38.421 7.11771 33.5266 6.89648 28.3611H11.1719C11.3998 28.3611 11.6184 28.2705 11.7795 28.1094C11.9407 27.9482 12.0312 27.7296 12.0312 27.5017C12.0312 27.2738 11.9407 27.0552 11.7795 26.894C11.6184 26.7329 11.3998 26.6423 11.1719 26.6423H6.89648C7.11771 21.4769 9.2689 16.5824 12.9248 12.9265C16.5807 9.27061 21.4752 7.11942 26.6406 6.89819V10.7439C26.6406 10.9718 26.7312 11.1904 26.8923 11.3516C27.0535 11.5127 27.2721 11.6033 27.5 11.6033C27.7279 11.6033 27.9465 11.5127 28.1077 11.3516C28.2688 11.1904 28.3594 10.9718 28.3594 10.7439V6.90679C31.8533 7.04288 35.2547 8.06775 38.2422 9.88452C38.4339 9.96356 38.6478 9.97059 38.8444 9.90429C39.0409 9.838 39.2068 9.70286 39.3115 9.52382C39.4162 9.34478 39.4526 9.1339 39.4141 8.93011C39.3755 8.72632 39.2645 8.54336 39.1016 8.41499C35.8574 6.43045 32.1594 5.3092 28.3594 5.15796V0.861084C28.3594 0.633164 28.2688 0.414578 28.1077 0.253414C27.9465 0.09225 27.7279 0.00170898 27.5 0.00170898C27.2721 0.00170898 27.0535 0.09225 26.8923 0.253414C26.7312 0.414578 26.6406 0.633164 26.6406 0.861084V5.17944C21.0195 5.40201 15.6887 7.73471 11.7108 11.7126C7.733 15.6904 5.4003 21.0212 5.17773 26.6423H0.859375C0.631455 26.6423 0.412869 26.7329 0.251705 26.894C0.090541 27.0552 0 27.2738 0 27.5017C0 27.7296 0.090541 27.9482 0.251705 28.1094C0.412869 28.2705 0.631455 28.3611 0.859375 28.3611H5.17773C5.4003 33.9822 7.733 39.313 11.7108 43.2909C15.6887 47.2687 21.0195 49.6014 26.6406 49.824V54.1423C26.6406 54.3703 26.7312 54.5888 26.8923 54.75C27.0535 54.9112 27.2721 55.0017 27.5 55.0017C27.7279 55.0017 27.9465 54.9112 28.1077 54.75C28.2688 54.5888 28.3594 54.3703 28.3594 54.1423V49.824C33.9805 49.6014 39.3113 47.2687 43.2892 43.2909C47.267 39.313 49.5997 33.9822 49.8223 28.3611H54.1406C54.3685 28.3611 54.5871 28.2705 54.7483 28.1094C54.9095 27.9482 55 27.7296 55 27.5017C55 27.2738 54.9095 27.0552 54.7483 26.894C54.5871 26.7329 54.3685 26.6423 54.1406 26.6423Z" fill="#F47E51"/>
</svg>
