<svg width="60" height="32" viewBox="0 0 60 32" fill="none" xmlns="http://www.w3.org/2000/svg">
<path d="M57.2834 18H2.7166C1.99612 18 1.30514 17.7893 0.795675 17.4142C0.286213 17.0391 0 16.5304 0 16C0 15.4696 0.286213 14.9609 0.795675 14.5858C1.30514 14.2107 1.99612 14 2.7166 14H57.2834C58.0039 14 58.6949 14.2107 59.2043 14.5858C59.7138 14.9609 60 15.4696 60 16C60 16.5304 59.7138 17.0391 59.2043 17.4142C58.6949 17.7893 58.0039 18 57.2834 18Z" fill="#2F3338"/>
<path d="M57.2834 4H2.7166C1.99612 4 1.30514 3.78929 0.795675 3.41421C0.286213 3.03914 0 2.53043 0 2C0 1.46957 0.286213 0.960859 0.795675 0.585786C1.30514 0.210714 1.99612 0 2.7166 0H57.2834C58.0039 0 58.6949 0.210714 59.2043 0.585786C59.7138 0.960859 60 1.46957 60 2C60 2.53043 59.7138 3.03914 59.2043 3.41421C58.6949 3.78929 58.0039 4 57.2834 4Z" fill="#2F3338"/>
<path d="M57.2834 32H2.7166C1.99612 32 1.30514 31.7893 0.795675 31.4142C0.286213 31.0391 0 30.5304 0 30C0 29.4696 0.286213 28.9609 0.795675 28.5858C1.30514 28.2107 1.99612 28 2.7166 28H57.2834C58.0039 28 58.6949 28.2107 59.2043 28.5858C59.7138 28.9609 60 29.4696 60 30C60 30.5304 59.7138 31.0391 59.2043 31.4142C58.6949 31.7893 58.0039 32 57.2834 32Z" fill="#2F3338"/>
</svg>
