<svg width="42" height="42" viewBox="0 0 42 42" fill="none" xmlns="http://www.w3.org/2000/svg">
<path d="M39.2834 4.55734L4.55726 39.2834C4.09875 39.7419 3.51002 40.0327 2.92058 40.0917C2.33114 40.1507 1.78929 39.9731 1.41421 39.5981C1.03914 39.223 0.861575 38.6811 0.920578 38.0917C0.979581 37.5023 1.27032 36.9135 1.72884 36.455L36.4549 1.72891C36.9134 1.27039 37.5022 0.979657 38.0916 0.920654C38.681 0.861651 39.2229 1.03921 39.598 1.41429C39.9731 1.78936 40.1506 2.33122 40.0916 2.92066C40.0326 3.51009 39.7419 4.09882 39.2834 4.55734Z" fill="#2F3338"/>
<path d="M1.72885 4.55734L36.4549 39.2834C36.9135 39.7419 37.5022 40.0327 38.0916 40.0917C38.6811 40.1507 39.2229 39.9731 39.598 39.5981C39.9731 39.223 40.1506 38.6811 40.0916 38.0917C40.0326 37.5023 39.7419 36.9135 39.2834 36.455L4.55728 1.72891C4.09876 1.27039 3.51003 0.979657 2.9206 0.920654C2.33116 0.861651 1.7893 1.03921 1.41423 1.41429C1.03916 1.78936 0.861592 2.33122 0.920595 2.92066C0.979598 3.51009 1.27033 4.09882 1.72885 4.55734Z" fill="#2F3338"/>
</svg>
