<svg width="37" height="36" viewBox="0 0 37 36" fill="none" xmlns="http://www.w3.org/2000/svg">
<path fill-rule="evenodd" clip-rule="evenodd" d="M35.1529 7.15621L36.54 0L29.3534 1.22029L30.8124 2.71359L27.7996 5.6446L24.7736 8.5877L16.4532 16.6831L11.8337 11.975L4.9989 18.6243C4.384 15.0035 5.49081 11.1514 8.32261 8.39649C12.3277 4.50039 18.4586 4.072 22.9341 7.06439L25.9952 4.08679C19.8395 -0.5467 11.0526 -0.148701 5.3662 5.3837C-0.3202 10.9154 -0.924099 19.6537 3.58481 25.8885L11.7645 17.9308L16.384 22.6389L27.1521 12.1627C28.9625 16.4256 28.1029 21.5444 24.5831 24.9688C19.9952 29.4326 12.6154 29.3468 8.13211 24.7775L0 32.6893L2.95641 35.702L8.48311 30.3253C14.4946 33.8113 22.3229 33.0577 27.5399 27.9823C32.7569 22.9069 33.6951 15.1314 30.3354 9.0661L33.7619 5.73259L35.1529 7.15621Z" fill="#F47E51"/>
</svg>
