<svg width="100" height="100" viewBox="0 0 100 100" fill="none" xmlns="http://www.w3.org/2000/svg">
<path d="M85.305 82.3399H74.8477C74.561 82.3399 74.286 82.226 74.0832 82.0233C73.8805 81.8206 73.7666 81.5456 73.7666 81.2589V39.2686C73.7666 38.9819 73.8805 38.7069 74.0832 38.5041C74.286 38.3014 74.561 38.1875 74.8477 38.1875H85.305C85.5917 38.1875 85.8667 38.3014 86.0694 38.5041C86.2722 38.7069 86.3861 38.9819 86.3861 39.2686V81.2589C86.3861 81.5456 86.2722 81.8206 86.0694 82.0233C85.8667 82.226 85.5917 82.3399 85.305 82.3399ZM75.9288 80.1778H84.2239V40.3497H75.9288V80.1778Z" fill="#F47E51"/>
<path d="M64.972 82.3395H54.5147C54.228 82.3395 53.953 82.2256 53.7502 82.0229C53.5475 81.8201 53.4336 81.5452 53.4336 81.2584V55.5352C53.4336 55.2485 53.5475 54.9735 53.7502 54.7707C53.953 54.568 54.228 54.4541 54.5147 54.4541H64.972C65.2587 54.4541 65.5337 54.568 65.7364 54.7707C65.9392 54.9735 66.0531 55.2485 66.0531 55.5352V81.2584C66.0531 81.5452 65.9392 81.8201 65.7364 82.0229C65.5337 82.2256 65.2587 82.3395 64.972 82.3395ZM55.5958 80.1773H63.8909V56.6163H55.5958V80.1773Z" fill="#F47E51"/>
<path d="M44.639 82.3399H34.1817C33.8949 82.3399 33.62 82.226 33.4172 82.0233C33.2145 81.8206 33.1006 81.5456 33.1006 81.2589V39.2686C33.1006 38.9819 33.2145 38.7069 33.4172 38.5041C33.62 38.3014 33.8949 38.1875 34.1817 38.1875H44.639C44.9257 38.1875 45.2007 38.3014 45.4034 38.5041C45.6061 38.7069 45.72 38.9819 45.72 39.2686V81.2589C45.72 81.5456 45.6061 81.8206 45.4034 82.0233C45.2007 82.226 44.9257 82.3399 44.639 82.3399ZM35.2627 80.1778H43.5579V40.3497H35.2627V80.1778Z" fill="#F47E51"/>
<path d="M24.3049 82.3395H13.8487C13.5619 82.3395 13.287 82.2256 13.0842 82.0229C12.8815 81.8201 12.7676 81.5452 12.7676 81.2584V55.5352C12.7676 55.2485 12.8815 54.9735 13.0842 54.7707C13.287 54.568 13.5619 54.4541 13.8487 54.4541H24.3049C24.5916 54.4541 24.8666 54.568 25.0693 54.7707C25.2721 54.9735 25.386 55.2485 25.386 55.5352V81.2584C25.386 81.5452 25.2721 81.8201 25.0693 82.0229C24.8666 82.2256 24.5916 82.3395 24.3049 82.3395ZM14.9297 80.1773H23.2238V56.6163H14.9297V80.1773Z" fill="#F47E51"/>
<path d="M80.3178 32.216C78.3563 32.2455 76.4631 31.496 75.0534 30.1317C73.6437 28.7673 72.8325 26.8997 72.7979 24.9382C72.864 22.9879 73.6853 21.1396 75.0883 19.7833C76.4914 18.4271 78.3664 17.6689 80.3178 17.6689C82.2693 17.6689 84.1444 18.4271 85.5474 19.7833C86.9504 21.1396 87.7717 22.9879 87.8379 24.9382C87.8029 26.8996 86.9916 28.7671 85.582 30.1313C84.1724 31.4956 82.2793 32.2453 80.3178 32.216ZM80.3178 19.8225C78.9297 19.7929 77.5864 20.3147 76.5821 21.2735C75.5779 22.2324 74.9946 23.5502 74.96 24.9382C75.022 26.3176 75.6136 27.6199 76.6116 28.574C77.6096 29.5282 78.9371 30.0607 80.3178 30.0607C81.6986 30.0607 83.0261 29.5282 84.0242 28.574C85.0222 27.6199 85.6137 26.3176 85.6757 24.9382C85.6414 23.5501 85.0582 22.2321 84.0539 21.2732C83.0496 20.3143 81.7061 19.7926 80.3178 19.8225V19.8225Z" fill="#F47E51"/>
<path d="M60.0336 47.7079C58.6042 47.6612 57.2202 47.1946 56.0542 46.3664C54.8883 45.5382 53.992 44.385 53.4773 43.0506C52.9625 41.7163 52.8521 40.26 53.1597 38.8633C53.4673 37.4666 54.1794 36.1914 55.2071 35.1968C56.2348 34.2022 57.5326 33.5322 58.9386 33.2705C60.3446 33.0087 61.7966 33.1668 63.1133 33.7249C64.4301 34.283 65.5534 35.2165 66.343 36.409C67.1326 37.6014 67.5537 38.9999 67.5536 40.4301C67.5189 42.3915 66.7078 44.2592 65.2981 45.6235C63.8883 46.9878 61.9951 47.7374 60.0336 47.7079V47.7079ZM60.0336 35.3144C59.0319 35.3608 58.0658 35.7002 57.2553 36.2906C56.4447 36.8809 55.8254 37.6963 55.474 38.6355C55.1226 39.5747 55.0547 40.5964 55.2786 41.5738C55.5026 42.5512 56.0086 43.4414 56.7339 44.1339C57.4591 44.8264 58.3717 45.2907 59.3585 45.4692C60.3452 45.6478 61.3627 45.5327 62.2846 45.1383C63.2066 44.7439 63.9924 44.0875 64.5447 43.2505C65.097 42.4135 65.3914 41.4328 65.3914 40.4301C65.3571 39.0419 64.7739 37.724 63.7696 36.7651C62.7653 35.8062 61.4218 35.2845 60.0336 35.3144V35.3144Z" fill="#F47E51"/>
<path d="M39.9663 32.216C38.0048 32.2453 36.1118 31.4956 34.7021 30.1313C33.2925 28.7671 32.4813 26.8996 32.4463 24.9382C32.5124 22.9879 33.3337 21.1396 34.7367 19.7833C36.1398 18.4271 38.0149 17.6689 39.9663 17.6689C41.9177 17.6689 43.7928 18.4271 45.1958 19.7833C46.5989 21.1396 47.4201 22.9879 47.4863 24.9382C47.4516 26.8997 46.6405 28.7673 45.2308 30.1317C43.8211 31.496 41.9278 32.2455 39.9663 32.216V32.216ZM39.9663 19.8225C38.578 19.7926 37.2346 20.3143 36.2303 21.2732C35.226 22.2321 34.6428 23.5501 34.6085 24.9382C34.6704 26.3176 35.262 27.6199 36.26 28.574C37.258 29.5282 38.5855 30.0607 39.9663 30.0607C41.347 30.0607 42.6746 29.5282 43.6726 28.574C44.6706 27.6199 45.2622 26.3176 45.3241 24.9382C45.2898 23.5501 44.7066 22.2321 43.7023 21.2732C42.698 20.3143 41.3545 19.7926 39.9663 19.8225V19.8225Z" fill="#F47E51"/>
<path d="M19.6825 47.7084C18.7057 47.7421 17.732 47.5788 16.8196 47.2282C15.9072 46.8776 15.0748 46.347 14.3718 45.6678C13.6688 44.9887 13.1098 44.175 12.728 43.2752C12.3462 42.3755 12.1494 41.408 12.1494 40.4306C12.1494 39.4532 12.3462 38.4857 12.728 37.586C13.1098 36.6862 13.6688 35.8725 14.3718 35.1934C15.0748 34.5142 15.9072 33.9836 16.8196 33.633C17.732 33.2824 18.7057 33.1191 19.6825 33.1528C20.6593 33.1191 21.633 33.2824 22.5454 33.633C23.4578 33.9836 24.2902 34.5142 24.9932 35.1934C25.6961 35.8725 26.2552 36.6862 26.637 37.586C27.0188 38.4857 27.2156 39.4532 27.2156 40.4306C27.2156 41.408 27.0188 42.3755 26.637 43.2752C26.2552 44.175 25.6961 44.9887 24.9932 45.6678C24.2902 46.347 23.4578 46.8776 22.5454 47.2282C21.633 47.5788 20.6593 47.7421 19.6825 47.7084ZM19.6825 35.3149C18.9909 35.2831 18.3001 35.3919 17.6517 35.6346C17.0033 35.8774 16.4109 36.2491 15.9103 36.7272C15.4096 37.2054 15.0111 37.7801 14.7388 38.4166C14.4666 39.0532 14.3262 39.7383 14.3262 40.4306C14.3262 41.1229 14.4666 41.808 14.7388 42.4446C15.0111 43.0811 15.4096 43.6558 15.9103 44.134C16.4109 44.6122 17.0033 44.9838 17.6517 45.2266C18.3001 45.4693 18.9909 45.5781 19.6825 45.5463C20.3741 45.5781 21.0649 45.4693 21.7133 45.2266C22.3617 44.9838 22.9541 44.6122 23.4547 44.134C23.9554 43.6558 24.3539 43.0811 24.6262 42.4446C24.8984 41.808 25.0388 41.1229 25.0388 40.4306C25.0388 39.7383 24.8984 39.0532 24.6262 38.4166C24.3539 37.7801 23.9554 37.2054 23.4547 36.7272C22.9541 36.2491 22.3617 35.8774 21.7133 35.6346C21.0649 35.3919 20.3741 35.2831 19.6825 35.3149V35.3149Z" fill="#F47E51"/>
<path d="M64.2862 36.8644C64.057 36.8651 63.8336 36.7928 63.6481 36.6582C63.4626 36.5236 63.3248 36.3334 63.2544 36.1153C63.184 35.8972 63.1848 35.6624 63.2565 35.4447C63.3283 35.2271 63.4674 35.0379 63.6538 34.9044L74.2159 27.3163C74.4489 27.149 74.7388 27.0811 75.0218 27.1275C75.3048 27.174 75.5578 27.3309 75.7251 27.5639C75.8924 27.7969 75.9603 28.0867 75.9139 28.3698C75.8675 28.6528 75.7105 28.9058 75.4775 29.0731L64.9186 36.6612C64.7346 36.7942 64.5132 36.8653 64.2862 36.8644V36.8644Z" fill="#F47E51"/>
<path d="M54.9888 37.6628C54.7065 37.6642 54.4349 37.5552 54.232 37.359L44.9985 28.4271C44.8964 28.3284 44.8148 28.2105 44.7583 28.0802C44.7018 27.9499 44.6715 27.8098 44.6691 27.6678C44.6667 27.5258 44.6924 27.3847 44.7445 27.2526C44.7967 27.1205 44.8744 27 44.9731 26.8979C45.0718 26.7958 45.1897 26.7142 45.32 26.6577C45.4503 26.6012 45.5904 26.5709 45.7324 26.5685C45.8744 26.5661 46.0155 26.5918 46.1476 26.6439C46.2797 26.6961 46.4002 26.7738 46.5023 26.8725L55.7358 35.8044C55.891 35.9544 55.9977 36.1474 56.0423 36.3586C56.0868 36.5698 56.0671 36.7895 55.9857 36.9894C55.9043 37.1893 55.7649 37.3603 55.5855 37.4803C55.4061 37.6003 55.1949 37.6639 54.979 37.6628H54.9888Z" fill="#F47E51"/>
<path d="M24.9439 37.6628C24.7281 37.6639 24.5169 37.6003 24.3374 37.4803C24.158 37.3603 24.0187 37.1893 23.9373 36.9894C23.8559 36.7895 23.8362 36.5698 23.8807 36.3586C23.9252 36.1474 24.032 35.9544 24.1872 35.8044L33.4207 26.8725C33.5227 26.7738 33.6433 26.6961 33.7754 26.6439C33.9075 26.5918 34.0485 26.5661 34.1905 26.5685C34.3325 26.5709 34.4727 26.6012 34.603 26.6577C34.7332 26.7142 34.8511 26.7958 34.9499 26.8979C35.0486 27 35.1263 27.1205 35.1784 27.2526C35.2306 27.3847 35.2562 27.5258 35.2539 27.6678C35.2515 27.8098 35.2212 27.9499 35.1647 28.0802C35.1082 28.2105 35.0265 28.3284 34.9245 28.4271L25.6909 37.359C25.4904 37.5528 25.2228 37.6617 24.9439 37.6628V37.6628Z" fill="#F47E51"/>
</svg>
