<svg width="50" height="50" viewBox="0 0 50 50" fill="none" xmlns="http://www.w3.org/2000/svg">
<path fill-rule="evenodd" clip-rule="evenodd" d="M5 0C2.23858 0 0 2.23858 0 5V45C0 47.7614 2.23858 50 5 50H45C47.7614 50 50 47.7614 50 45V5C50 2.23858 47.7614 0 45 0H5ZM39.1753 10.8843C42.0899 13.5078 43.7058 19.3081 42.6143 28.4956C41.6592 36.6015 36.1945 38.0373 34.3602 38.5192C34.1803 38.5665 34.0353 38.6046 33.9329 38.6389C33.4375 38.8035 29.0777 39.9316 23.4009 39.4392C23.203 39.6756 23.0149 39.9006 22.836 40.1146C19.9465 43.5714 19.4486 44.1671 18.4207 43.834C17.4665 43.5337 17.5229 42.0398 17.5229 42.0398L17.5305 38.3523H17.5229C9.22865 35.9377 9.34451 27.0368 9.44207 22.2852C9.53963 17.5352 10.4299 13.6983 12.9573 11.084C18.5854 5.7395 34.4726 6.40261 39.1768 10.8828L39.1753 10.8843ZM19.25 42.488C20.3674 41.3249 23.9604 36.8447 23.9604 36.8447C28.7744 37.1663 32.6082 36.18 33.0213 36.0429C33.1176 36.0108 33.2564 35.9773 33.4292 35.9356C34.9916 35.5583 39.3327 34.5101 40.1357 27.8203C40.1348 27.7871 40.1465 27.6695 40.1653 27.4802L40.1654 27.4796L40.1654 27.4794C40.3564 25.5554 41.2812 16.2387 37.3323 12.738C33.7835 9.40261 19.8552 8.36755 14.9177 12.9971C12.7774 15.1846 12.0518 18.4331 11.9756 22.3996C11.973 22.5355 11.97 22.6757 11.9669 22.8197L11.9669 22.8208C11.8797 26.8789 11.7264 34.013 18.5168 35.959C18.5168 35.959 18.4893 41.5886 18.4893 42.081C18.4832 42.831 18.8841 42.866 19.25 42.488ZM25.9482 13.8675C25.3613 13.8675 25.3613 14.7822 25.9482 14.7898C30.5015 14.8249 34.2515 17.9986 34.2927 23.8203C34.2927 24.4346 35.1921 24.427 35.1844 23.8127H35.1829C35.1341 17.5398 31.0396 13.9026 25.9482 13.8675ZM32.8293 22.8767C32.8216 23.491 31.9238 23.4621 31.9375 22.8554C32.0076 19.8264 30.1768 17.4544 26.7012 17.1907C26.1159 17.148 26.1768 16.2258 26.7637 16.2685C30.7713 16.5688 32.904 19.4179 32.8293 22.8767ZM30.9771 26.7898C30.2241 26.3538 29.4573 26.6252 29.1402 27.0535L28.4771 27.9118C28.1402 28.3477 27.5107 28.2898 27.5107 28.2898C22.9162 27.0749 21.6875 22.2669 21.6875 22.2669C21.6875 22.2669 21.6311 21.616 22.0518 21.2669L22.8811 20.581C23.2957 20.2517 23.5579 19.459 23.1357 18.68C22.2851 17.1433 21.6451 16.3657 21.2164 15.8448C21.0766 15.6749 20.9592 15.5323 20.8643 15.3996C20.4588 14.8919 19.8491 14.7776 19.2149 15.1206H19.2012C17.8826 15.8919 16.439 17.3355 16.9009 18.8218C17.0376 19.0935 17.1941 19.4684 17.3835 19.922C18.2865 22.0846 19.9376 26.0388 23.753 29.1587C25.9223 30.9438 29.3552 32.773 30.8125 33.1953L30.8262 33.2166C32.2622 33.6953 33.6585 32.1953 34.404 30.8371V30.8264C34.7348 30.1694 34.625 29.5474 34.1418 29.1404C33.2851 28.305 31.9924 27.3828 30.9771 26.7898ZM29.6433 22.0932C29.5671 20.5215 28.8567 19.7563 27.3918 19.6709C26.7988 19.6358 26.8537 18.7136 27.4405 18.7486C29.3674 18.8554 30.4375 19.9986 30.5351 22.0505C30.5625 22.6648 29.6707 22.7075 29.6433 22.0932Z" fill="#FAFAFA"/>
</svg>
