<svg width="50" height="50" viewBox="0 0 50 50" fill="none" xmlns="http://www.w3.org/2000/svg">
<g clip-path="url(#clip0_244_13215)">
<path fill-rule="evenodd" clip-rule="evenodd" d="M43.8912 0C47.2628 0 50 2.73731 50 6.10879V43.8912C50 47.2627 47.2627 50 43.8912 50H6.10879C2.73731 50 0 47.2627 0 43.8912V6.10879C0 2.73731 2.73721 0 6.10879 0L43.8912 0ZM38.1614 12.471C34.8565 9.16231 30.4615 7.33936 25.7788 7.3374C16.1305 7.3374 8.27783 15.1895 8.27402 24.8407C8.27275 27.926 9.07881 30.9372 10.6106 33.5919L8.12734 42.6626L17.4067 40.2285C19.9635 41.6231 22.8422 42.3581 25.7718 42.359H25.779C35.4264 42.359 43.2796 34.5062 43.2836 24.8548C43.2854 20.1775 41.4662 15.7796 38.1614 12.471ZM25.7789 39.4028H25.773C23.1623 39.4019 20.6018 38.7004 18.368 37.3748L17.8366 37.0595L12.3302 38.504L13.7999 33.1352L13.454 32.5847C11.9977 30.2683 11.2283 27.5909 11.2295 24.8418C11.2327 16.8201 17.7595 10.2938 25.7848 10.2938C29.6708 10.2952 33.3237 11.8105 36.0708 14.5606C38.8177 17.3106 40.3295 20.9661 40.328 24.8536C40.3247 32.876 33.7981 39.4027 25.7789 39.4028ZM33.7595 28.5062C33.3221 28.2873 31.1717 27.2294 30.7708 27.0833C30.3699 26.9373 30.0783 26.8645 29.7867 27.3021C29.4951 27.7399 28.6569 28.7252 28.4018 29.0172C28.1467 29.309 27.8915 29.3457 27.4542 29.1266C27.0168 28.9077 25.6075 28.4459 23.9369 26.9557C22.6367 25.7959 21.7588 24.3637 21.5037 23.9258C21.2486 23.4879 21.4765 23.2512 21.6954 23.0332C21.8923 22.8372 22.1329 22.5223 22.3516 22.2669C22.5703 22.0115 22.6432 21.829 22.789 21.5372C22.9348 21.2452 22.8619 20.9899 22.7524 20.771C22.6432 20.5521 21.7684 18.3991 21.4039 17.5233C21.0489 16.6705 20.6884 16.786 20.4198 16.7726C20.165 16.7599 19.8731 16.7571 19.5816 16.7571C19.29 16.7571 18.8161 16.8666 18.4152 17.3044C18.0144 17.7423 16.8845 18.8005 16.8845 20.9532C16.8845 23.1062 18.4517 25.1858 18.6703 25.4778C18.8891 25.7698 21.7545 30.1875 26.1421 32.082C27.1855 32.5327 28.0003 32.8019 28.6355 33.0033C29.6832 33.3363 30.6367 33.2894 31.3903 33.1767C32.2307 33.0512 33.9781 32.1188 34.3426 31.0971C34.707 30.0752 34.707 29.1995 34.5977 29.0172C34.4884 28.8347 34.1968 28.7252 33.7595 28.5062Z" fill="#FAFAFA"/>
</g>
<defs>
<clipPath id="clip0_244_13215">
<rect width="50" height="50" fill="white"/>
</clipPath>
</defs>
</svg>
