<svg width="35" height="35" viewBox="0 0 35 35" fill="none" xmlns="http://www.w3.org/2000/svg">
<g clip-path="url(#clip0_244_13215)">
<path fill-rule="evenodd" clip-rule="evenodd" d="M30.7239 0C33.084 0 35 1.91611 35 4.27615V30.7239C35 33.0839 33.0839 35 30.7239 35H4.27615C1.91611 35 0 33.0839 0 30.7239V4.27615C0 1.91611 1.91605 0 4.27615 0L30.7239 0ZM26.713 8.7297C24.3996 6.41361 21.3231 5.13755 18.0452 5.13618C11.2913 5.13618 5.79448 10.6326 5.79182 17.3885C5.79093 19.5482 6.35517 21.656 7.42745 23.5143L5.68914 29.8638L12.1847 28.16C13.9744 29.1361 15.9895 29.6507 18.0402 29.6513H18.0453C24.7985 29.6513 30.2957 24.1543 30.2985 17.3983C30.2997 14.1243 29.0263 11.0457 26.713 8.7297ZM18.0452 27.582H18.0411C16.2136 27.5813 14.4212 27.0903 12.8576 26.1624L12.4856 25.9416L8.63112 26.9528L9.65993 23.1946L9.4178 22.8093C8.39836 21.1878 7.85982 19.3136 7.86064 17.3893C7.8629 11.7741 12.4316 7.20569 18.0493 7.20569C20.7696 7.20665 23.3266 8.26738 25.2496 10.1925C27.1724 12.1175 28.2306 14.6763 28.2296 17.3975C28.2273 23.0132 23.6587 27.5819 18.0452 27.582ZM23.6316 19.9544C23.3254 19.8011 21.8202 19.0606 21.5396 18.9583C21.2589 18.8561 21.0548 18.8051 20.8507 19.1115C20.6466 19.418 20.0599 20.1076 19.8812 20.312C19.7027 20.5163 19.5241 20.542 19.2179 20.3886C18.9118 20.2354 17.9253 19.9121 16.7558 18.869C15.8457 18.0571 15.2312 17.0546 15.0526 16.748C14.874 16.4415 15.0335 16.2758 15.1868 16.1232C15.3246 15.986 15.493 15.7656 15.6461 15.5868C15.7992 15.4081 15.8502 15.2803 15.9523 15.076C16.0543 14.8716 16.0033 14.693 15.9267 14.5397C15.8502 14.3865 15.2379 12.8794 14.9827 12.2663C14.7342 11.6694 14.4819 11.7502 14.2939 11.7408C14.1155 11.7319 13.9112 11.73 13.7071 11.73C13.503 11.73 13.1713 11.8066 12.8907 12.1131C12.61 12.4196 11.8191 13.1603 11.8191 14.6673C11.8191 16.1743 12.9162 17.6301 13.0692 17.8345C13.2223 18.0389 15.2281 21.1313 18.2995 22.4574C19.0299 22.7729 19.6002 22.9613 20.0449 23.1023C20.7782 23.3354 21.4457 23.3025 21.9732 23.2237C22.5615 23.1358 23.7847 22.4831 24.0398 21.768C24.2949 21.0526 24.2949 20.4397 24.2184 20.312C24.1419 20.1843 23.9377 20.1076 23.6316 19.9544Z" fill="#FAFAFA"/>
</g>
<defs>
<clipPath id="clip0_244_13215">
<rect width="35" height="35" fill="white"/>
</clipPath>
</defs>
</svg>
