<svg width="50" height="50" viewBox="0 0 50 50" fill="none" xmlns="http://www.w3.org/2000/svg">
<path d="M43.7243 49.8008H6.20601C5.38725 49.8186 4.57345 49.6693 3.81435 49.362C3.05524 49.0547 2.36678 48.5958 1.79104 48.0134C1.20692 47.4389 0.746897 46.7507 0.439446 45.9913C0.131995 45.2319 -0.016347 44.4174 0.00359844 43.5984V6.22308C-0.0247312 5.40504 0.114455 4.58985 0.412609 3.82756C0.710763 3.06527 1.16159 2.37197 1.73741 1.79023C2.31939 1.20114 3.01658 0.738375 3.78544 0.430832C4.5543 0.123289 5.37831 -0.0224234 6.20601 0.00279389H43.7422C44.5698 -0.0213517 45.3935 0.124854 46.1622 0.432335C46.9309 0.739816 47.6282 1.20201 48.2108 1.79023C48.7918 2.36326 49.25 3.0487 49.5573 3.80471C49.8646 4.56071 50.0147 5.37141 49.9982 6.18733V43.5627C50.0182 44.3817 49.8698 45.1961 49.5624 45.9555C49.2549 46.7149 48.7949 47.4031 48.2108 47.9776C47.6292 48.5745 46.9303 49.0446 46.1582 49.3584C45.3861 49.6722 44.5575 49.8228 43.7243 49.8008V49.8008ZM34.1079 37.8071C34.4634 37.8388 34.8176 37.7348 35.0995 37.516C35.3814 37.2971 35.5699 36.9796 35.6272 36.6274L40.5784 12.9438C40.5926 12.7912 40.5709 12.6373 40.5151 12.4946C40.4592 12.3518 40.3707 12.2241 40.2567 12.1216C40.0583 11.9334 39.7973 11.8251 39.5238 11.8178C39.4285 11.8178 29.5797 15.4582 9.9775 22.739C9.75629 22.8096 9.56455 22.9512 9.43204 23.1419C9.29953 23.3326 9.23366 23.5616 9.24465 23.7936C9.25712 24.0102 9.3384 24.2171 9.47664 24.3843C9.61488 24.5514 9.80287 24.6701 10.0132 24.7231L17.163 26.9395L20.0408 35.5728C20.116 35.8081 20.2676 36.0115 20.4716 36.1508C20.6757 36.29 20.9203 36.3571 21.1669 36.3414C21.3003 36.341 21.4322 36.3138 21.555 36.2617C21.6778 36.2095 21.7889 36.1333 21.8818 36.0375L25.9393 32.1767L33.2499 37.539C33.5046 37.7081 33.8023 37.8011 34.1079 37.8071V37.8071ZM21.0417 33.4458L18.8789 26.296C29.2699 19.6825 34.5011 16.3757 34.5726 16.3757C34.8408 16.3757 34.9838 16.3757 34.9838 16.6617C34.9898 16.6972 34.9898 16.7335 34.9838 16.769C34.9838 16.769 30.4973 20.8801 21.5422 28.9235L21.0417 33.4458Z" fill="#FAFAFA"/>
</svg>
