<svg width="50" height="50" viewBox="0 0 50 50" fill="none" xmlns="http://www.w3.org/2000/svg">
<g clip-path="url(#clip0_643_2002)">
<path d="M25.0003 46.3235C13.2237 46.3235 3.67676 36.7767 3.67676 25C3.67676 13.2232 13.2237 3.67651 25.0003 3.67651C36.7769 3.67651 46.3238 13.2233 46.3238 25.0001C46.3105 36.7711 36.7714 46.3101 25.0003 46.3235ZM25.0003 5.14701C14.0358 5.14701 5.14736 14.0355 5.14736 25C5.14736 35.9644 14.0358 44.8529 25.0003 44.8529C35.9648 44.8529 44.8532 35.9644 44.8532 25C44.8411 14.0406 35.9598 5.15923 25.0003 5.14701Z" fill="#FAFAFA"/>
<path d="M25.0001 36.0293C18.9088 36.0293 13.9707 31.0912 13.9707 24.9999C13.9707 18.9085 18.9088 13.9705 25.0001 13.9705C31.0915 13.9705 36.0295 18.9085 36.0295 24.9999C36.0226 31.0885 31.0887 36.0224 25.0001 36.0293ZM25.0001 15.4411C19.7209 15.4411 15.4413 19.7207 15.4413 24.9999C15.4413 30.2791 19.7209 34.5587 25.0001 34.5587C30.2793 34.5587 34.5589 30.2791 34.5589 24.9999C34.5529 19.7232 30.2768 15.4471 25.0001 15.4411Z" fill="#FAFAFA"/>
<path d="M25.7353 0H24.2646V50H25.7353V0Z" fill="#FAFAFA"/>
<path d="M50 24.2646H0V25.7353H50V24.2646Z" fill="#FAFAFA"/>
</g>
<defs>
<clipPath id="clip0_643_2002">
<rect width="50" height="50" fill="white"/>
</clipPath>
</defs>
</svg>
