<svg width="60" height="42" viewBox="0 0 60 42" fill="none" xmlns="http://www.w3.org/2000/svg">
<path d="M50.0312 0H9.92032C8.3771 0.00173217 6.89759 0.61554 5.80637 1.70676C4.71515 2.79798 4.10134 4.27749 4.09961 5.82071V10.2549C4.09961 10.445 4.1751 10.6272 4.30948 10.7616C4.44386 10.896 4.62611 10.9715 4.81615 10.9715C5.00619 10.9715 5.18845 10.896 5.32282 10.7616C5.4572 10.6272 5.53269 10.445 5.53269 10.2549V5.82071C5.534 4.65744 5.99669 3.54219 6.81925 2.71964C7.6418 1.89708 8.75705 1.43439 9.92032 1.43308H50.0312C51.1944 1.43439 52.3097 1.89708 53.1322 2.71964C53.9548 3.54219 54.4175 4.65744 54.4188 5.82071V32.8069H5.53273V15.8452C5.53273 15.6551 5.45724 15.4729 5.32286 15.3385C5.18848 15.2041 5.00623 15.1286 4.81619 15.1286C4.62615 15.1286 4.44389 15.2041 4.30952 15.3385C4.17514 15.4729 4.09964 15.6551 4.09964 15.8452V33.5234C4.09964 33.7135 4.17514 33.8957 4.30952 34.0301C4.44389 34.1645 4.62615 34.24 4.81619 34.24H55.1354C55.3254 34.24 55.5077 34.1645 55.6421 34.0301C55.7764 33.8957 55.8519 33.7135 55.8519 33.5234V5.82072C55.8502 4.2775 55.2364 2.79799 54.1451 1.70677C53.0539 0.615549 51.5744 0.00173847 50.0312 0Z" fill="#FAFAFA"/>
<path d="M4.81615 14.3033C5.00619 14.3033 5.18845 14.2278 5.32282 14.0934C5.4572 13.9591 5.53269 13.7768 5.53269 13.5868V12.512C5.53269 12.3219 5.4572 12.1397 5.32282 12.0053C5.18845 11.8709 5.00619 11.7954 4.81615 11.7954C4.62611 11.7954 4.44386 11.8709 4.30948 12.0053C4.1751 12.1397 4.09961 12.3219 4.09961 12.512V13.5868C4.09961 13.7768 4.1751 13.9591 4.30948 14.0934C4.44386 14.2278 4.62611 14.3033 4.81615 14.3033Z" fill="#FAFAFA"/>
<path d="M46.1726 29.2325C47.4112 29.2311 48.5986 28.7385 49.4745 27.8627C50.3503 26.9869 50.8429 25.7995 50.8443 24.5609V9.67805C50.8429 8.43947 50.3503 7.25201 49.4745 6.3762C48.5987 5.50038 47.4112 5.00774 46.1726 5.00635H13.7781C12.5396 5.00775 11.3521 5.50039 10.4763 6.3762C9.60049 7.25202 9.10784 8.43947 9.10645 9.67805V24.5609C9.10786 25.7995 9.6005 26.9869 10.4763 27.8627C11.3521 28.7385 12.5396 29.2312 13.7781 29.2326L46.1726 29.2325ZM10.5395 24.5609V9.67805C10.5405 8.81942 10.882 7.99624 11.4892 7.3891C12.0963 6.78195 12.9195 6.44043 13.7781 6.43943H46.1726C47.0313 6.44043 47.8545 6.78195 48.4616 7.3891C49.0687 7.99624 49.4103 8.81942 49.4113 9.67805V24.5609C49.4103 25.4196 49.0687 26.2427 48.4616 26.8499C47.8545 27.457 47.0313 27.7985 46.1726 27.7995H13.7781C12.9195 27.7985 12.0963 27.457 11.4892 26.8499C10.882 26.2427 10.5405 25.4196 10.5395 24.5609Z" fill="#FAFAFA"/>
<path d="M37.2203 32.8064H22.7302C22.5402 32.8064 22.3579 32.8819 22.2235 33.0163C22.0892 33.1506 22.0137 33.3329 22.0137 33.5229C22.0149 34.5995 22.4431 35.6315 23.2043 36.3927C23.9655 37.1539 24.9976 37.5821 26.0741 37.5833H33.8764C34.953 37.5821 35.985 37.1539 36.7462 36.3927C37.5075 35.6315 37.9356 34.5995 37.9369 33.5229C37.9369 33.3329 37.8614 33.1506 37.727 33.0163C37.5926 32.8819 37.4104 32.8064 37.2203 32.8064ZM33.8764 36.1503H26.0741C25.5023 36.1496 24.9464 35.9627 24.4903 35.618C24.0342 35.2732 23.7027 34.7893 23.5461 34.2395H36.4044C36.2477 34.7893 35.9163 35.2732 35.4602 35.6179C35.0041 35.9627 34.4482 36.1495 33.8764 36.1503Z" fill="#FAFAFA"/>
<path d="M55.3539 32.8064H4.59682C3.37767 32.8064 2.20845 33.2907 1.34638 34.1528C0.484307 35.0148 0 36.1841 0 37.4032C0 38.6224 0.484307 39.7916 1.34638 40.6537C2.20845 41.5157 3.37767 42 4.59682 42H55.3539C56.573 42 57.7423 41.5157 58.6043 40.6537C59.4664 39.7916 59.9507 38.6224 59.9507 37.4032C59.9507 36.1841 59.4664 35.0148 58.6043 34.1528C57.7423 33.2907 56.573 32.8064 55.3539 32.8064ZM55.3539 40.567H4.59682C3.75775 40.567 2.95304 40.2336 2.35972 39.6403C1.76641 39.047 1.43308 38.2423 1.43308 37.4032C1.43308 36.5641 1.76641 35.7594 2.35972 35.1661C2.95304 34.5728 3.75775 34.2395 4.59682 34.2395H55.3539C56.193 34.2395 56.9977 34.5728 57.591 35.1661C58.1843 35.7594 58.5176 36.5641 58.5176 37.4032C58.5176 38.2423 58.1843 39.047 57.591 39.6403C56.9977 40.2336 56.193 40.567 55.3539 40.567Z" fill="#FAFAFA"/>
</svg>
