<svg width="50" height="50" viewBox="0 0 50 50" fill="none" xmlns="http://www.w3.org/2000/svg">
<path d="M37.5844 48.5811C30.8573 48.5811 21.706 44.0459 13.8323 36.1703C2.64111 24.9757 -1.80484 11.2108 3.92287 5.48377L7.09449 2.31553C7.69336 1.71816 8.5047 1.38269 9.35057 1.38269C10.1964 1.38269 11.0078 1.71816 11.6067 2.31553L18.3904 9.09931C18.9878 9.69819 19.3233 10.5095 19.3233 11.3554C19.3233 12.2013 18.9878 13.0126 18.3904 13.6115L16.3789 15.6223C14.0661 17.9324 16.2364 24.0054 21.1148 28.8851C25.9931 33.7649 32.0668 35.9331 34.3776 33.6243L36.3884 31.6128C36.9874 31.0156 37.7987 30.6803 38.6445 30.6803C39.4903 30.6803 40.3016 31.0156 40.9006 31.6128L47.6844 38.3966C48.2821 38.9953 48.6178 39.8067 48.6178 40.6527C48.6178 41.4987 48.2821 42.3101 47.6844 42.9088L44.5161 46.077C42.8195 47.7736 40.4161 48.5811 37.5844 48.5811V48.5811ZM9.34719 2.7331C9.10546 2.73299 8.86609 2.78069 8.64286 2.87346C8.41964 2.96623 8.21697 3.10223 8.04652 3.27364L4.87827 6.43918C-0.324431 11.6419 4.12354 24.5473 14.7877 35.2122C25.4519 45.877 38.36 50.3223 43.5607 45.1216L46.7289 41.9534C47.0733 41.6081 47.2667 41.1403 47.2667 40.6527C47.2667 40.165 47.0733 39.6973 46.7289 39.352L39.9452 32.5676C39.5998 32.2236 39.1323 32.0304 38.6448 32.0304C38.1574 32.0304 37.6898 32.2236 37.3445 32.5676L35.333 34.579C32.4087 37.504 25.7438 35.423 20.1594 29.8399C14.5749 24.2567 12.4952 17.5919 15.4202 14.6669L17.4323 12.6554C17.7766 12.3102 17.97 11.8426 17.97 11.3551C17.97 10.8675 17.7766 10.3999 17.4323 10.0547L10.6479 3.27094C10.4772 3.10001 10.2744 2.96451 10.0512 2.87221C9.82799 2.77991 9.58874 2.73263 9.34719 2.7331V2.7331Z" fill="#FAFAFA"/>
<path d="M15.8982 15.8202C15.719 15.8202 15.5472 15.749 15.4205 15.6222L5.08266 5.28441C5.01961 5.22181 4.96952 5.14741 4.93523 5.06544C4.90094 4.98348 4.88313 4.89557 4.88282 4.80673C4.8825 4.71789 4.89969 4.62985 4.9334 4.54765C4.96711 4.46545 5.01668 4.3907 5.07928 4.32765C5.14188 4.26461 5.21628 4.21451 5.29824 4.18022C5.3802 4.14594 5.46811 4.12813 5.55696 4.12781C5.6458 4.1275 5.73384 4.14469 5.81604 4.1784C5.89824 4.2121 5.97299 4.26167 6.03603 4.32427L16.3739 14.6621C16.4683 14.7566 16.5327 14.877 16.5587 15.008C16.5848 15.1391 16.5714 15.2749 16.5203 15.3984C16.4692 15.5218 16.3826 15.6273 16.2715 15.7016C16.1604 15.7758 16.0298 15.8155 15.8962 15.8155L15.8982 15.8202Z" fill="#FAFAFA"/>
<path d="M45.1956 45.1175C45.1069 45.1178 45.019 45.1004 44.937 45.0664C44.855 45.0324 44.7805 44.9825 44.7179 44.9196L34.3801 34.5817C34.257 34.4543 34.1889 34.2836 34.1905 34.1065C34.192 33.9293 34.2631 33.7598 34.3883 33.6345C34.5136 33.5093 34.6831 33.4382 34.8602 33.4367C35.0374 33.4351 35.2081 33.5032 35.3355 33.6263L45.6733 43.9642C45.7678 44.0587 45.8321 44.179 45.8582 44.3101C45.8843 44.4411 45.8709 44.577 45.8197 44.7004C45.7686 44.8239 45.682 44.9294 45.571 45.0036C45.4599 45.0779 45.3293 45.1175 45.1956 45.1175V45.1175Z" fill="#FAFAFA"/>
<path d="M46.651 24.2946C46.4718 24.2946 46.3 24.2234 46.1732 24.0967C46.0465 23.97 45.9753 23.7981 45.9753 23.6189C45.9696 18.4239 43.9034 13.4432 40.2299 9.76977C36.5564 6.09631 31.5758 4.03005 26.3808 4.02432C26.2016 4.02432 26.0297 3.95314 25.903 3.82642C25.7763 3.69971 25.7051 3.52785 25.7051 3.34865C25.7051 3.16945 25.7763 2.99759 25.903 2.87087C26.0297 2.74416 26.2016 2.67297 26.3808 2.67297C31.934 2.67941 37.2579 4.88828 41.1847 8.81501C45.1114 12.7417 47.3203 18.0657 47.3267 23.6189C47.3267 23.7981 47.2555 23.97 47.1288 24.0967C47.0021 24.2234 46.8302 24.2946 46.651 24.2946Z" fill="#FAFAFA"/>
<path d="M39.8943 24.2946C39.7151 24.2946 39.5432 24.2234 39.4165 24.0966C39.2898 23.9699 39.2186 23.7981 39.2186 23.6189C39.2148 20.2152 37.8611 16.9521 35.4543 14.5453C33.0476 12.1386 29.7844 10.7848 26.3808 10.781C26.2016 10.781 26.0297 10.7099 25.903 10.5831C25.7763 10.4564 25.7051 10.2846 25.7051 10.1054C25.7051 9.92616 25.7763 9.7543 25.903 9.62759C26.0297 9.50087 26.2016 9.42969 26.3808 9.42969C30.1427 9.4338 33.7494 10.93 36.4095 13.5901C39.0696 16.2502 40.5658 19.8569 40.5699 23.6189C40.5699 23.7981 40.4988 23.9699 40.372 24.0966C40.2453 24.2234 40.0735 24.2946 39.8943 24.2946Z" fill="#FAFAFA"/>
<path d="M33.1375 24.2946C32.9583 24.2946 32.7865 24.2234 32.6597 24.0967C32.533 23.97 32.4618 23.7982 32.4618 23.619C32.4599 22.0068 31.8186 20.4612 30.6786 19.3212C29.5386 18.1812 27.993 17.5398 26.3808 17.5379C26.2016 17.5379 26.0297 17.4667 25.903 17.34C25.7763 17.2133 25.7051 17.0414 25.7051 16.8622C25.7051 16.683 25.7763 16.5111 25.903 16.3844C26.0297 16.2577 26.2016 16.1865 26.3808 16.1865C28.3512 16.1888 30.2404 16.9727 31.6337 18.366C33.0271 19.7593 33.8109 21.6485 33.8132 23.619C33.8132 23.7982 33.742 23.97 33.6153 24.0967C33.4886 24.2234 33.3167 24.2946 33.1375 24.2946Z" fill="#FAFAFA"/>
</svg>
