<svg width="50" height="50" viewBox="0 0 50 50" fill="none" xmlns="http://www.w3.org/2000/svg">
<path d="M47.9732 12.1621H2.02724C1.84804 12.1621 1.67618 12.091 1.54946 11.9642C1.42275 11.8375 1.35156 11.6657 1.35156 11.4865C1.35156 11.3073 1.42275 11.1354 1.54946 11.0087C1.67618 10.882 1.84804 10.8108 2.02724 10.8108H47.9732C48.1524 10.8108 48.3243 10.882 48.451 11.0087C48.5777 11.1354 48.6489 11.3073 48.6489 11.4865C48.6489 11.6657 48.5777 11.8375 48.451 11.9642C48.3243 12.091 48.1524 12.1621 47.9732 12.1621Z" fill="#FAFAFA"/>
<path d="M40.9026 9.14606C40.43 9.14619 39.968 9.00618 39.575 8.74373C39.182 8.48129 38.8757 8.10819 38.6948 7.67164C38.5138 7.23508 38.4664 6.75467 38.5585 6.29117C38.6506 5.82767 38.8781 5.40189 39.2122 5.06769C39.5463 4.73349 39.9721 4.50588 40.4355 4.41363C40.899 4.32139 41.3794 4.36867 41.816 4.54948C42.2526 4.73029 42.6258 5.03652 42.8884 5.42943C43.1509 5.82235 43.2911 6.2843 43.2911 6.75687C43.2904 7.39018 43.0385 7.99736 42.5907 8.44525C42.143 8.89314 41.5359 9.14516 40.9026 9.14606ZM40.9026 5.71903C40.6973 5.71889 40.4965 5.77965 40.3258 5.89361C40.155 6.00756 40.0219 6.16961 39.9432 6.35923C39.8646 6.54886 39.8439 6.75756 39.8839 6.95892C39.9239 7.16029 40.0227 7.34528 40.1678 7.49049C40.3129 7.6357 40.4978 7.73461 40.6992 7.77471C40.9005 7.81481 41.1092 7.7943 41.2989 7.71577C41.4886 7.63724 41.6507 7.50421 41.7648 7.33353C41.8788 7.16284 41.9397 6.96216 41.9397 6.75687C41.9394 6.48184 41.83 6.21817 41.6356 6.02364C41.4412 5.8291 41.1776 5.71956 40.9026 5.71903Z" fill="#FAFAFA"/>
<path d="M34.1212 9.20602C33.6368 9.20602 33.1632 9.06237 32.7604 8.79324C32.3576 8.5241 32.0437 8.14157 31.8583 7.69401C31.6729 7.24646 31.6244 6.75398 31.7189 6.27886C31.8134 5.80374 32.0467 5.36731 32.3893 5.02476C32.7318 4.68222 33.1682 4.44894 33.6434 4.35444C34.1185 4.25993 34.611 4.30843 35.0585 4.49382C35.5061 4.6792 35.8886 4.99314 36.1577 5.39593C36.4269 5.79872 36.5705 6.27227 36.5705 6.7567C36.5698 7.40608 36.3115 8.02866 35.8523 8.48784C35.3932 8.94702 34.7706 9.20531 34.1212 9.20602V9.20602ZM34.1212 5.65873C33.904 5.65873 33.6918 5.72312 33.5112 5.84377C33.3306 5.96441 33.1899 6.13589 33.1068 6.33652C33.0237 6.53715 33.002 6.75792 33.0443 6.9709C33.0867 7.18389 33.1913 7.37953 33.3448 7.53308C33.4984 7.68664 33.694 7.79121 33.907 7.83357C34.12 7.87594 34.3407 7.8542 34.5414 7.77109C34.742 7.68799 34.9135 7.54726 35.0341 7.3667C35.1548 7.18614 35.2192 6.97386 35.2192 6.7567C35.2188 6.46561 35.103 6.18654 34.8972 5.98071C34.6914 5.77488 34.4123 5.65908 34.1212 5.65873V5.65873Z" fill="#FAFAFA"/>
<path d="M46.6218 48.6486H3.37859C2.84099 48.6486 2.32541 48.4351 1.94527 48.0549C1.56512 47.6748 1.35156 47.1592 1.35156 46.6216V3.37835C1.35156 2.84074 1.56512 2.32516 1.94527 1.94502C2.32541 1.56488 2.84099 1.35132 3.37859 1.35132H46.6218C47.1594 1.35132 47.675 1.56488 48.0552 1.94502C48.4353 2.32516 48.6489 2.84074 48.6489 3.37835V46.6216C48.6489 47.1592 48.4353 47.6748 48.0552 48.0549C47.675 48.4351 47.1594 48.6486 46.6218 48.6486ZM3.37859 2.70267C3.19939 2.70267 3.02753 2.77386 2.90081 2.90057C2.7741 3.02728 2.70291 3.19915 2.70291 3.37835V46.6216C2.70291 46.8008 2.7741 46.9727 2.90081 47.0994C3.02753 47.2261 3.19939 47.2973 3.37859 47.2973H46.6218C46.801 47.2973 46.9729 47.2261 47.0996 47.0994C47.2263 46.9727 47.2975 46.8008 47.2975 46.6216V3.37835C47.2975 3.19915 47.2263 3.02728 47.0996 2.90057C46.9729 2.77386 46.801 2.70267 46.6218 2.70267H3.37859Z" fill="#FAFAFA"/>
<path d="M27.7028 7.43241H7.43251C7.25331 7.43241 7.08145 7.36122 6.95474 7.23451C6.82802 7.10779 6.75684 6.93593 6.75684 6.75673C6.75684 6.57753 6.82802 6.40567 6.95474 6.27896C7.08145 6.15224 7.25331 6.08105 7.43251 6.08105H27.7028C27.882 6.08105 28.0538 6.15224 28.1806 6.27896C28.3073 6.40567 28.3785 6.57753 28.3785 6.75673C28.3785 6.93593 28.3073 7.10779 28.1806 7.23451C28.0538 7.36122 27.882 7.43241 27.7028 7.43241Z" fill="#FAFAFA"/>
<path d="M21.3688 40.2338C21.2601 40.2337 21.1531 40.2075 21.0567 40.1572C20.9604 40.107 20.8776 40.0343 20.8153 39.9452C20.753 39.8562 20.7132 39.7534 20.6991 39.6457C20.685 39.5379 20.6971 39.4284 20.7343 39.3263L27.8087 19.8959C27.8724 19.7309 27.9983 19.5974 28.1594 19.5242C28.3205 19.451 28.5039 19.4439 28.6701 19.5044C28.8364 19.5649 28.9723 19.6882 29.0486 19.8479C29.1249 20.0075 29.1356 20.1907 29.0783 20.3581L22.0039 39.7892C21.9565 39.9195 21.8701 40.0321 21.7565 40.1116C21.6429 40.1911 21.5075 40.2338 21.3688 40.2338Z" fill="#FAFAFA"/>
<path d="M18.1762 34.5231C18.0176 34.5231 17.864 34.4674 17.7424 34.3657L12.8964 30.3116C12.8206 30.2482 12.7596 30.1689 12.7178 30.0794C12.676 29.9898 12.6543 29.8922 12.6543 29.7934C12.6543 29.6945 12.676 29.5969 12.7178 29.5074C12.7596 29.4178 12.8206 29.3385 12.8964 29.2751L17.7424 25.2211C17.8798 25.106 18.0573 25.0503 18.2359 25.0661C18.4144 25.082 18.5794 25.1681 18.6944 25.3055C18.8094 25.443 18.8652 25.6205 18.8493 25.799C18.8335 25.9776 18.7474 26.1425 18.6099 26.2576L14.3829 29.7934L18.6099 33.3298C18.7164 33.4189 18.7928 33.5385 18.8289 33.6725C18.8649 33.8065 18.8588 33.9484 18.8115 34.0788C18.7641 34.2093 18.6777 34.3219 18.564 34.4015C18.4503 34.4811 18.3149 34.5238 18.1762 34.5238V34.5231Z" fill="#FAFAFA"/>
<path d="M31.6408 34.6224C31.502 34.6224 31.3666 34.5798 31.2529 34.5002C31.1392 34.4206 31.0528 34.3079 31.0055 34.1775C30.9581 34.047 30.952 33.9052 30.988 33.7712C31.0241 33.6372 31.1005 33.5175 31.207 33.4285L35.4333 29.892L31.207 26.3562C31.0723 26.2404 30.9887 26.0762 30.9741 25.8992C30.9596 25.7222 31.0153 25.5466 31.1292 25.4104C31.2432 25.2742 31.4062 25.1883 31.583 25.1713C31.7597 25.1543 31.9361 25.2076 32.0739 25.3197L36.9205 29.3737C36.9963 29.4372 37.0573 29.5164 37.0991 29.606C37.1409 29.6955 37.1626 29.7932 37.1626 29.892C37.1626 29.9908 37.1409 30.0885 37.0991 30.178C37.0573 30.2675 36.9963 30.3468 36.9205 30.4102L32.0739 34.4643C31.9525 34.5661 31.7992 34.6221 31.6408 34.6224Z" fill="#FAFAFA"/>
</svg>
