<svg width="50" height="50" viewBox="0 0 50 50" fill="none" xmlns="http://www.w3.org/2000/svg">
<path d="M30.3638 7.12433C30.2149 7.1247 30.0702 7.07549 29.9523 6.98446L24.6206 2.88784L19.4679 6.97771C19.3271 7.08371 19.1505 7.13053 18.9757 7.10817C18.8009 7.08581 18.6418 6.99605 18.5322 6.85802C18.4226 6.72 18.3713 6.54463 18.3892 6.36932C18.4071 6.19401 18.4928 6.03263 18.628 5.9196L24.1935 1.50135C24.3116 1.40762 24.4576 1.35604 24.6083 1.35482C24.759 1.3536 24.9058 1.4028 25.0253 1.4946L30.7753 5.91284C30.8872 5.99882 30.9694 6.11769 31.0103 6.25276C31.0512 6.38783 31.0488 6.53232 31.0034 6.66596C30.9581 6.79959 30.872 6.91566 30.7572 6.99786C30.6425 7.08007 30.505 7.1243 30.3638 7.12433Z" fill="#FAFAFA"/>
<path d="M2.06629 20.6156C1.92608 20.6156 1.78935 20.5719 1.67504 20.4907C1.56073 20.4096 1.47451 20.2948 1.42833 20.1624C1.38215 20.0301 1.37829 19.8866 1.4173 19.7519C1.4563 19.6172 1.53623 19.498 1.64602 19.4108L8.22507 14.1892C8.29459 14.134 8.3743 14.0931 8.45965 14.0687C8.545 14.0443 8.63432 14.0369 8.7225 14.0471C8.81069 14.0572 8.89601 14.0846 8.9736 14.1277C9.0512 14.1708 9.11954 14.2288 9.17473 14.2983C9.22992 14.3678 9.27088 14.4476 9.29526 14.5329C9.31965 14.6183 9.32699 14.7076 9.31685 14.7958C9.30672 14.8839 9.27932 14.9693 9.23621 15.0469C9.1931 15.1245 9.13513 15.1928 9.06561 15.248L2.48588 20.4689C2.36655 20.5637 2.21868 20.6154 2.06629 20.6156Z" fill="#FAFAFA"/>
<path d="M47.936 48.6487C47.7873 48.6485 47.6427 48.5996 47.5245 48.5095L29.4096 34.625L20.5907 34.6318L2.47516 48.5061C2.3753 48.5826 2.25608 48.6297 2.13092 48.642C2.00576 48.6544 1.87962 48.6316 1.7667 48.5762C1.65379 48.5208 1.55858 48.435 1.49179 48.3284C1.425 48.2219 1.38929 48.0988 1.38867 47.973V19.9426C1.38866 19.8165 1.42392 19.693 1.49046 19.5859C1.557 19.4788 1.65216 19.3925 1.76519 19.3367C1.87823 19.2809 2.00462 19.2578 2.13008 19.2701C2.25554 19.2823 2.37507 19.3295 2.47516 19.4061L20.5907 33.2804L29.638 33.2737C29.7865 33.2737 29.9309 33.3226 30.0488 33.4129L47.2603 46.6007V20.2703L40.9461 15.423C40.8073 15.3127 40.7174 15.1523 40.6958 14.9764C40.6741 14.8004 40.7225 14.623 40.8305 14.4824C40.9385 14.3418 41.0974 14.2493 41.273 14.2248C41.4485 14.2002 41.6267 14.2457 41.7691 14.3514L48.3502 19.4041C48.4323 19.4672 48.4989 19.5483 48.5447 19.6412C48.5905 19.7341 48.6143 19.8363 48.6143 19.9399V47.973C48.6143 48.1522 48.5432 48.324 48.4164 48.4508C48.2897 48.5775 48.1179 48.6487 47.9387 48.6487H47.936ZM2.74002 21.3115V46.6014L19.2502 33.9561L2.74002 21.3115Z" fill="#FAFAFA"/>
<path d="M29.6386 34.625C29.4974 34.625 29.3597 34.5808 29.2449 34.4985C29.1301 34.4162 29.044 34.3 28.9986 34.1662C28.9533 34.0324 28.951 33.8878 28.9921 33.7527C29.0332 33.6175 29.1157 33.4987 29.2278 33.4128L47.5251 19.4061C47.6674 19.2971 47.8471 19.2491 48.0248 19.2727C48.2024 19.2963 48.3635 19.3895 48.4724 19.5317C48.5814 19.674 48.6293 19.8538 48.6058 20.0314C48.5822 20.2091 48.489 20.3701 48.3467 20.479L30.0494 34.4858C29.9315 34.5761 29.7871 34.625 29.6386 34.625V34.625Z" fill="#FAFAFA"/>
<path d="M8.6415 25.6622C8.4623 25.6622 8.29044 25.591 8.16372 25.4643C8.03701 25.3376 7.96582 25.1657 7.96582 24.9865V6.45271C7.96582 6.27351 8.03701 6.10165 8.16372 5.97494C8.29044 5.84823 8.4623 5.77704 8.6415 5.77704H41.351C41.5302 5.77704 41.702 5.84823 41.8287 5.97494C41.9554 6.10165 42.0266 6.27351 42.0266 6.45271V24.9797C42.0266 25.1589 41.9554 25.3308 41.8287 25.4575C41.702 25.5842 41.5302 25.6554 41.351 25.6554C41.1718 25.6554 40.9999 25.5842 40.8732 25.4575C40.7465 25.3308 40.6753 25.1589 40.6753 24.9797V7.12839H9.31717V24.9865C9.31717 25.1657 9.24598 25.3376 9.11927 25.4643C8.99256 25.591 8.8207 25.6622 8.6415 25.6622Z" fill="#FAFAFA"/>
<path d="M34.6445 15.5439H14.6513C14.4721 15.5439 14.3002 15.4727 14.1735 15.346C14.0468 15.2193 13.9756 15.0474 13.9756 14.8682C13.9756 14.689 14.0468 14.5172 14.1735 14.3905C14.3002 14.2638 14.4721 14.1926 14.6513 14.1926H34.6445C34.8237 14.1926 34.9956 14.2638 35.1223 14.3905C35.249 14.5172 35.3202 14.689 35.3202 14.8682C35.3202 15.0474 35.249 15.2193 35.1223 15.346C34.9956 15.4727 34.8237 15.5439 34.6445 15.5439Z" fill="#FAFAFA"/>
<path d="M34.6445 22.9764H14.6513C14.4721 22.9764 14.3002 22.9052 14.1735 22.7785C14.0468 22.6517 13.9756 22.4799 13.9756 22.3007C13.9756 22.1215 14.0468 21.9496 14.1735 21.8229C14.3002 21.6962 14.4721 21.625 14.6513 21.625H34.6445C34.8237 21.625 34.9956 21.6962 35.1223 21.8229C35.249 21.9496 35.3202 22.1215 35.3202 22.3007C35.3202 22.4799 35.249 22.6517 35.1223 22.7785C34.9956 22.9052 34.8237 22.9764 34.6445 22.9764Z" fill="#FAFAFA"/>
<path d="M47.936 48.6487H2.06435C1.88515 48.6487 1.71329 48.5775 1.58657 48.4508C1.45986 48.324 1.38867 48.1522 1.38867 47.973C1.38867 47.7938 1.45986 47.6219 1.58657 47.4952C1.71329 47.3685 1.88515 47.2973 2.06435 47.2973H47.936C48.1152 47.2973 48.287 47.3685 48.4137 47.4952C48.5405 47.6219 48.6116 47.7938 48.6116 47.973C48.6116 48.1522 48.5405 48.324 48.4137 48.4508C48.287 48.5775 48.1152 48.6487 47.936 48.6487Z" fill="#FAFAFA"/>
</svg>
