<svg width="55" height="55" viewBox="0 0 55 55" fill="none" xmlns="http://www.w3.org/2000/svg">
<g clip-path="url(#clip0_670_2718)">
<path d="M35.5065 36.7319H19.4937C19.2853 36.7319 19.0855 36.6491 18.9381 36.5018C18.7908 36.3544 18.708 36.1546 18.708 35.9462V30.9412C18.708 29.8465 19.1423 28.7965 19.9157 28.0217C20.6891 27.2468 21.7382 26.8105 22.833 26.8084H32.1672C33.2619 26.8105 34.3111 27.2468 35.0845 28.0217C35.8578 28.7965 36.2922 29.8465 36.2922 30.9412V35.9462C36.2922 36.1546 36.2094 36.3544 36.062 36.5018C35.9147 36.6491 35.7148 36.7319 35.5065 36.7319ZM20.2794 35.1605H34.7208V30.9412C34.7208 30.2633 34.452 29.613 33.9733 29.1328C33.4947 28.6527 32.8452 28.3819 32.1672 28.3798H22.833C22.155 28.3819 21.5055 28.6527 21.0269 29.1328C20.5482 29.613 20.2794 30.2633 20.2794 30.9412V35.1605Z" fill="#FAFAFA"/>
<path d="M27.4994 25.0485C26.4987 25.0485 25.5204 24.7517 24.6883 24.1957C23.8561 23.6397 23.2076 22.8494 22.8246 21.9249C22.4416 21.0003 22.3414 19.9829 22.5367 19.0013C22.7319 18.0198 23.2138 17.1182 23.9215 16.4106C24.6291 15.7029 25.5307 15.221 26.5123 15.0258C27.4938 14.8305 28.5112 14.9307 29.4358 15.3137C30.3604 15.6967 31.1506 16.3452 31.7066 17.1773C32.2626 18.0094 32.5594 18.9877 32.5594 19.9885C32.5573 21.3298 32.0235 22.6157 31.0751 23.5641C30.1266 24.5126 28.8408 25.0464 27.4994 25.0485V25.0485ZM27.4994 16.4999C26.8095 16.4999 26.135 16.7045 25.5613 17.0879C24.9876 17.4712 24.5405 18.016 24.2764 18.6535C24.0124 19.2909 23.9433 19.9924 24.0779 20.6691C24.2125 21.3458 24.5448 21.9674 25.0326 22.4553C25.5205 22.9432 26.1421 23.2754 26.8188 23.41C27.4956 23.5446 28.197 23.4755 28.8344 23.2115C29.4719 22.9475 30.0167 22.5003 30.4 21.9266C30.7834 21.3529 30.988 20.6785 30.988 19.9885C30.988 19.0633 30.6204 18.1759 29.9662 17.5217C29.312 16.8675 28.4246 16.4999 27.4994 16.4999Z" fill="#FAFAFA"/>
<path d="M27.4996 54.9997C27.2912 54.9997 27.0913 54.9169 26.944 54.7696C26.7966 54.6222 26.7139 54.4224 26.7139 54.214V45.0055C26.7139 44.7971 26.7966 44.5973 26.944 44.4499C27.0913 44.3026 27.2912 44.2198 27.4996 44.2198C27.708 44.2198 27.9078 44.3026 28.0552 44.4499C28.2025 44.5973 28.2853 44.7971 28.2853 45.0055V54.214C28.2853 54.4224 28.2025 54.6222 28.0552 54.7696C27.9078 54.9169 27.708 54.9997 27.4996 54.9997Z" fill="#FAFAFA"/>
<path d="M27.4991 50.3954C22.9708 50.3954 18.5442 49.0526 14.779 46.5368C11.0138 44.021 8.07926 40.4452 6.34635 36.2616C4.61344 32.078 4.16003 27.4744 5.04346 23.0331C5.92689 18.5918 8.10748 14.5122 11.3095 11.3102C14.5115 8.10821 18.5911 5.92762 23.0324 5.04419C27.4737 4.16076 32.0772 4.61417 36.2608 6.34708C40.4445 8.07999 44.0203 11.0146 46.5361 14.7797C49.0519 18.5449 50.3947 22.9715 50.3947 27.4998C50.3884 33.5702 47.9742 39.3901 43.6818 43.6825C39.3894 47.9749 33.5695 50.3891 27.4991 50.3954V50.3954ZM27.4991 6.17568C23.2816 6.17568 19.1588 7.42632 15.652 9.76944C12.1453 12.1126 9.41212 15.4429 7.79815 19.3394C6.18417 23.2359 5.76188 27.5235 6.58468 31.66C7.40748 35.7964 9.43841 39.596 12.4206 42.5783C15.4029 45.5605 19.2025 47.5914 23.339 48.4142C27.4754 49.237 31.763 48.8147 35.6595 47.2008C39.556 45.5868 42.8863 42.8536 45.2295 39.3469C47.5726 35.8401 48.8232 31.7173 48.8232 27.4998C48.8149 21.8469 46.5656 16.4278 42.5684 12.4306C38.5711 8.4333 33.1521 6.18399 27.4991 6.17568V6.17568Z" fill="#FAFAFA"/>
<path d="M27.4996 10.7799C27.2912 10.7799 27.0913 10.6971 26.944 10.5498C26.7966 10.4025 26.7139 10.2026 26.7139 9.99422V0.785709C26.7139 0.577326 26.7966 0.377478 26.944 0.230129C27.0913 0.0827798 27.2912 0 27.4996 0C27.708 0 27.9078 0.0827798 28.0552 0.230129C28.2025 0.377478 28.2853 0.577326 28.2853 0.785709V9.99422C28.2853 10.2026 28.2025 10.4025 28.0552 10.5498C27.9078 10.6971 27.708 10.7799 27.4996 10.7799Z" fill="#FAFAFA"/>
<path d="M54.2139 28.2856H45.0054C44.7971 28.2856 44.5972 28.2028 44.4499 28.0555C44.3025 27.9081 44.2197 27.7083 44.2197 27.4999C44.2197 27.2915 44.3025 27.0916 44.4499 26.9443C44.5972 26.797 44.7971 26.7142 45.0054 26.7142H54.2139C54.4223 26.7142 54.6222 26.797 54.7695 26.9443C54.9169 27.0916 54.9997 27.2915 54.9997 27.4999C54.9997 27.7083 54.9169 27.9081 54.7695 28.0555C54.6222 28.2028 54.4223 28.2856 54.2139 28.2856Z" fill="#FAFAFA"/>
<path d="M9.99422 28.2856H0.785709C0.577326 28.2856 0.377478 28.2028 0.230129 28.0555C0.0827798 27.9081 0 27.7083 0 27.4999C0 27.2915 0.0827798 27.0916 0.230129 26.9443C0.377478 26.797 0.577326 26.7142 0.785709 26.7142H9.99422C10.2026 26.7142 10.4025 26.797 10.5498 26.9443C10.6971 27.0916 10.7799 27.2915 10.7799 27.4999C10.7799 27.7083 10.6971 27.9081 10.5498 28.0555C10.4025 28.2028 10.2026 28.2856 9.99422 28.2856Z" fill="#FAFAFA"/>
</g>
<defs>
<clipPath id="clip0_670_2718">
<rect width="55" height="54.9997" fill="white"/>
</clipPath>
</defs>
</svg>
