<svg width="50" height="50" viewBox="0 0 50 50" fill="none" xmlns="http://www.w3.org/2000/svg">
<path d="M24.9069 49.0934C22.3248 49.1174 19.752 48.779 17.264 48.0879C10.3244 45.467 5.63763 40.6593 3.65961 34.0659C2.33569 29.4553 2.2504 24.5771 3.41236 19.9231C4.89038 14.3132 12.297 -1.99187e-05 28.6102 1.26372C35.5937 1.81317 40.9673 4.82965 44.1486 10.011C47.4124 15.3297 47.4453 21.2527 47.3244 23.5494C46.8739 31.3187 42.0662 37.7308 36.8409 37.522C36.112 37.5176 35.3922 37.3586 34.7292 37.0555C34.0662 36.7524 33.4751 36.3121 32.9948 35.7637C32.178 34.7494 31.6469 33.5355 31.4563 32.2472C30.2724 33.9068 28.6474 35.2017 26.7655 35.9853C24.8836 36.769 22.8198 37.0101 20.808 36.6813C18.2805 36.1319 11.9783 32.967 13.1157 24.6868C14.2146 16.8901 20.1651 12.8242 25.2036 12.945C29.5003 13.0494 32.1816 16.8901 32.72 17.7362L33.231 13.6648C33.2432 13.5572 33.2768 13.4531 33.3298 13.3586C33.3828 13.2641 33.4541 13.1812 33.5395 13.1146C33.625 13.0481 33.7229 12.9993 33.8275 12.9711C33.9321 12.9429 34.0413 12.9359 34.1486 12.9505C34.3478 12.9746 34.5313 13.0705 34.6648 13.2202C34.7983 13.3699 34.8727 13.5631 34.8739 13.7637V13.8681L32.9343 29.3406C32.9343 29.3406 32.5992 32.8132 34.2255 34.6868C34.5615 35.0651 34.9747 35.3668 35.4373 35.5715C35.8999 35.7763 36.401 35.8793 36.9069 35.8736C41.1926 36.0384 45.286 30.2417 45.6981 23.456C45.8135 21.4945 46.297 4.28569 28.5003 2.90657C13.2915 1.73075 6.38488 15.1044 5.00576 20.3571C4.79697 21.1483 0.0991685 39.8461 17.8025 46.5275C17.8574 46.5275 27.5168 49.478 36.819 44.6209C37.0128 44.5196 37.2389 44.4994 37.4475 44.5649C37.6562 44.6303 37.8303 44.776 37.9316 44.9698C38.0329 45.1636 38.053 45.3897 37.9876 45.5983C37.9221 45.807 37.7765 45.9811 37.5827 46.0824C33.6622 48.0941 29.3132 49.1271 24.9069 49.0934ZM24.9838 14.5879C20.6926 14.5879 15.7091 18.1648 14.7585 24.9121C13.7695 31.945 19.0222 34.6154 21.1266 35.0659C23.262 35.4021 25.4477 34.9836 27.3079 33.8826C29.168 32.7815 30.5864 31.0666 31.319 29.0329L32.5827 18.9945H32.5442C32.451 19.0496 32.3477 19.0857 32.2404 19.1006C32.133 19.1155 32.0238 19.109 31.9191 19.0814C31.8143 19.0538 31.716 19.0057 31.63 18.9398C31.544 18.874 31.4719 18.7917 31.4179 18.6978C31.4179 18.6593 28.9838 14.6593 25.1816 14.5659L24.9838 14.5879Z" fill="#FAFAFA"/>
</svg>
