<svg width="50" height="49" viewBox="0 0 50 49" fill="none" xmlns="http://www.w3.org/2000/svg">
<path d="M40.2862 43.0856C34.8434 43.0856 30.5791 33.6214 30.5791 21.5428C30.5791 9.46426 34.8434 0 40.2862 0C45.7291 0 50.0005 9.46426 50.0005 21.5428C50.0005 33.6214 45.7148 43.0856 40.2862 43.0856ZM40.2862 1.42857C35.8005 1.42857 32.0077 10.6428 32.0077 21.5428C32.0077 32.4428 35.8005 41.6571 40.2862 41.6571C44.7719 41.6571 48.5719 32.4428 48.5719 21.5428C48.5719 10.6428 44.7791 1.42857 40.2862 1.42857V1.42857Z" fill="#FAFAFA"/>
<path d="M19.0776 14.2142C18.8881 14.2142 18.7064 14.1389 18.5725 14.005C18.4385 13.871 18.3633 13.6894 18.3633 13.4999C18.3633 13.3105 18.4385 13.1288 18.5725 12.9948C18.7064 12.8609 18.8881 12.7856 19.0776 12.7856C28.9418 12.5213 33.4847 6.09279 33.5347 6.0285C33.5871 5.94986 33.6547 5.8824 33.7334 5.83006C33.8121 5.77771 33.9005 5.74152 33.9933 5.72357C34.0861 5.70562 34.1816 5.70627 34.2741 5.72549C34.3667 5.74471 34.4545 5.78211 34.5325 5.83553C34.6105 5.88894 34.6771 5.95731 34.7285 6.03667C34.7799 6.11603 34.815 6.2048 34.8318 6.29783C34.8486 6.39086 34.8468 6.4863 34.8264 6.57862C34.8061 6.67094 34.7676 6.7583 34.7132 6.83564C34.5132 7.12136 29.7133 13.9285 19.1133 14.2142H19.0776Z" fill="#FAFAFA"/>
<path d="M34.1067 37.3927C33.9916 37.3925 33.8782 37.3644 33.7762 37.311C33.6742 37.2575 33.5866 37.1801 33.521 37.0855C33.4781 37.0212 28.9353 30.657 19.0639 30.3784C18.8745 30.3784 18.6928 30.3031 18.5588 30.1692C18.4249 30.0352 18.3496 29.8536 18.3496 29.6641C18.3496 29.4747 18.4249 29.293 18.5588 29.159C18.6928 29.0251 18.8745 28.9498 19.0639 28.9498C29.7282 29.2141 34.4996 35.9855 34.6924 36.2712C34.8002 36.4267 34.8419 36.6185 34.8084 36.8046C34.7749 36.9907 34.669 37.156 34.5139 37.2641C34.3944 37.3475 34.2524 37.3923 34.1067 37.3927V37.3927Z" fill="#FAFAFA"/>
<path d="M19.0857 30.3784H8.80712C6.47133 30.3784 4.2312 29.4505 2.57955 27.7989C0.927891 26.1472 0 23.9071 0 21.5713C0 19.2355 0.927891 16.9954 2.57955 15.3437C4.2312 13.6921 6.47133 12.7642 8.80712 12.7642H19.0857C19.2156 12.7652 19.3428 12.8017 19.4536 12.8696C19.5643 12.9376 19.6545 13.0345 19.7142 13.1499C19.7695 13.2628 19.794 13.3883 19.7852 13.5137C19.7764 13.6392 19.7347 13.76 19.6642 13.8642C16.2857 18.5856 16.2928 23.6213 19.6642 29.2641C19.7269 29.3727 19.7599 29.4959 19.7599 29.6213C19.7599 29.7467 19.7269 29.8698 19.6642 29.9784C19.6105 30.0893 19.529 30.1845 19.4276 30.2546C19.3262 30.3247 19.2084 30.3673 19.0857 30.3784V30.3784ZM8.80712 14.2142C6.85021 14.2142 4.97344 14.9915 3.5897 16.3753C2.20595 17.759 1.42857 19.6358 1.42857 21.5927C1.42857 23.5496 2.20595 25.4264 3.5897 26.8101C4.97344 28.1939 6.85021 28.9713 8.80712 28.9713H17.8571C15.0428 23.7141 15 18.7641 17.7571 14.2142H8.80712Z" fill="#FAFAFA"/>
<path d="M33.8855 28.6068H31.7426C31.5532 28.6068 31.3715 28.5316 31.2375 28.3976C31.1036 28.2637 31.0283 28.082 31.0283 27.8926C31.0283 27.7031 31.1036 27.5214 31.2375 27.3875C31.3715 27.2535 31.5532 27.1783 31.7426 27.1783H33.8855C35.31 27.0546 36.6364 26.4012 37.6028 25.3473C38.5692 24.2933 39.1053 22.9154 39.1053 21.4854C39.1053 20.0555 38.5692 18.6775 37.6028 17.6236C36.6364 16.5696 35.31 15.9163 33.8855 15.7926H31.7426C31.5532 15.7926 31.3715 15.7173 31.2375 15.5834C31.1036 15.4494 31.0283 15.2677 31.0283 15.0783C31.0283 14.8889 31.1036 14.7072 31.2375 14.5732C31.3715 14.4393 31.5532 14.364 31.7426 14.364H33.8855C35.6788 14.5032 37.3535 15.3139 38.5752 16.6341C39.7968 17.9543 40.4754 19.6867 40.4754 21.4854C40.4754 23.2841 39.7968 25.0166 38.5752 26.3368C37.3535 27.6569 35.6788 28.4676 33.8855 28.6068V28.6068Z" fill="#FAFAFA"/>
<path d="M16.8705 42.3998C16.6811 42.3998 16.4994 42.3245 16.3655 42.1906C16.2315 42.0566 16.1562 41.875 16.1562 41.6855V29.6641C16.1562 29.4747 16.2315 29.293 16.3655 29.159C16.4994 29.0251 16.6811 28.9498 16.8705 28.9498C17.06 28.9498 17.2417 29.0251 17.3756 29.159C17.5096 29.293 17.5848 29.4747 17.5848 29.6641V41.6855C17.5848 41.875 17.5096 42.0566 17.3756 42.1906C17.2417 42.3245 17.06 42.3998 16.8705 42.3998Z" fill="#FAFAFA"/>
<path d="M17.1862 48.4283H11.1862C10.5611 48.4283 9.96154 48.18 9.51949 47.7379C9.07744 47.2959 8.8291 46.6963 8.8291 46.0712V29.6426C8.8291 29.4532 8.90436 29.2715 9.03831 29.1376C9.17226 29.0036 9.35395 28.9283 9.54339 28.9283C9.73283 28.9283 9.91451 29.0036 10.0485 29.1376C10.1824 29.2715 10.2577 29.4532 10.2577 29.6426V46.0712C10.2577 46.3174 10.3555 46.5536 10.5296 46.7278C10.7038 46.9019 10.94 46.9997 11.1862 46.9997H17.1862C17.3728 47.0008 17.5563 46.9524 17.7182 46.8596C17.88 46.7668 18.0144 46.6327 18.1077 46.4712C18.2005 46.3118 18.2494 46.1306 18.2494 45.9462C18.2494 45.7617 18.2005 45.5805 18.1077 45.4212L16.2362 42.0283C16.1415 41.8626 16.1165 41.666 16.1667 41.4818C16.217 41.2976 16.3383 41.1409 16.5041 41.0462C16.6698 40.9515 16.8664 40.9265 17.0506 40.9767C17.2348 41.0269 17.3915 41.1483 17.4862 41.314L19.3577 44.7069C19.5679 45.0867 19.6753 45.5149 19.6692 45.949C19.6631 46.3831 19.5437 46.8081 19.3229 47.1819C19.1021 47.5557 18.7875 47.8654 18.4102 48.0802C18.0329 48.2951 17.6061 48.4077 17.1719 48.4069L17.1862 48.4283Z" fill="#FAFAFA"/>
<path d="M18.7848 37.5214H16.8705C16.6811 37.5214 16.4994 37.4461 16.3655 37.3121C16.2315 37.1782 16.1562 36.9965 16.1562 36.8071V32.4714C16.1562 32.2819 16.2315 32.1002 16.3655 31.9663C16.4994 31.8323 16.6811 31.7571 16.8705 31.7571H18.7848C19.177 31.7571 19.553 31.9129 19.8303 32.1901C20.1076 32.4674 20.2634 32.8435 20.2634 33.2356V36.0428C20.2634 36.4349 20.1076 36.811 19.8303 37.0883C19.553 37.3656 19.177 37.5214 18.7848 37.5214ZM17.5848 36.0928H18.7848L18.8348 33.2356H17.5848V36.0928Z" fill="#FAFAFA"/>
</svg>
