<svg width="50" height="50" viewBox="0 0 50 50" fill="none" xmlns="http://www.w3.org/2000/svg">
<path d="M20.4528 40.2297H20.3244C14.4663 39.1013 10.919 35.554 9.77707 29.6824C9.75887 29.5868 9.76151 29.4884 9.78484 29.394C9.80816 29.2995 9.85161 29.2112 9.91221 29.1351C22.4055 13.2162 28.6757 7.30402 28.7365 7.24321C33.8244 1.56754 47.3919 1.35132 47.973 1.35132C48.1522 1.35132 48.3241 1.42251 48.4508 1.54922C48.5775 1.67593 48.6487 1.84779 48.6487 2.02699C48.6487 2.60132 48.419 16.1621 42.7027 21.2905C42.7027 21.2905 36.7838 27.5878 20.8649 40.081C20.7478 40.175 20.6028 40.2273 20.4528 40.2297ZM11.169 29.7297C12.2433 34.7905 15.223 37.777 20.2838 38.8446C35.9122 26.5473 41.7027 20.3986 41.7636 20.3378C46.3717 16.2162 47.1555 5.56753 47.2973 2.70267C44.4325 2.85132 33.7838 3.61483 29.7298 8.18916C29.6014 8.29051 23.4595 14.0878 11.169 29.7297Z" fill="#F47E51"/>
<path d="M45.8715 15.4256H45.7634C42.9666 14.965 40.3854 13.6366 38.385 11.6283C36.3742 9.61989 35.0479 7.02859 34.5945 4.22294C34.5649 4.04843 34.6049 3.86926 34.706 3.72396C34.8071 3.57865 34.9611 3.47882 35.135 3.44591C35.3115 3.41658 35.4924 3.45844 35.6381 3.5623C35.7838 3.66617 35.8823 3.82356 35.9121 3.99997C36.3227 6.52499 37.519 8.85624 39.331 10.6621C41.1315 12.4703 43.4551 13.6664 45.9729 14.081C46.1521 14.0963 46.3179 14.1821 46.4338 14.3196C46.5498 14.457 46.6064 14.635 46.5911 14.8142C46.5759 14.9934 46.4901 15.1592 46.3526 15.2751C46.2151 15.3911 46.0372 15.4476 45.858 15.4324L45.8715 15.4256Z" fill="#F47E51"/>
<path d="M32.4934 23.0203C31.5858 23.0196 30.6925 22.7952 29.8923 22.367C29.0922 21.9387 28.41 21.3198 27.9061 20.565C27.4022 19.8102 27.0922 18.9428 27.0035 18.0397C26.9148 17.1365 27.0501 16.2254 27.3975 15.387C27.7449 14.5485 28.2936 13.8087 28.9951 13.2329C29.6966 12.6572 30.5292 12.2633 31.4193 12.086C32.3093 11.9088 33.2294 11.9537 34.0979 12.2169C34.9664 12.48 35.7567 12.9532 36.3988 13.5946C37.1833 14.3648 37.72 15.3517 37.9401 16.4288C38.1602 17.506 38.0536 18.6243 37.6341 19.6405C37.2145 20.6567 36.5011 21.5245 35.5852 22.1327C34.6693 22.7408 33.5927 23.0617 32.4934 23.0541V23.0203ZM32.4934 13.3311C31.668 13.3305 30.861 13.5749 30.1747 14.0334C29.4884 14.4919 28.9536 15.1438 28.6381 15.9064C28.3226 16.6691 28.2406 17.5083 28.4025 18.3176C28.5644 19.127 28.9628 19.87 29.5474 20.4527C30.0327 20.9364 30.6297 21.293 31.2856 21.491C31.9416 21.6891 32.6362 21.7223 33.3081 21.588C33.9799 21.4536 34.6083 21.1557 35.1376 20.7206C35.6669 20.2855 36.0809 19.7267 36.3428 19.0936C36.6047 18.4604 36.7065 17.7725 36.6392 17.0906C36.5719 16.4088 36.3376 15.754 35.957 15.1843C35.5764 14.6145 35.0613 14.1474 34.4571 13.8241C33.853 13.5009 33.1785 13.3316 32.4934 13.3311Z" fill="#F47E51"/>
<path d="M23.8513 48.0136C23.802 48.0202 23.752 48.0202 23.7027 48.0136C23.5959 47.9899 23.4964 47.9406 23.4129 47.87C23.3293 47.7994 23.2641 47.7095 23.223 47.6082L20.0338 39.6419C19.9666 39.4753 19.9683 39.2888 20.0387 39.1234C20.109 38.958 20.2421 38.8274 20.4088 38.7602C20.5754 38.693 20.762 38.6947 20.9273 38.7651C21.0927 38.8354 21.2233 38.9685 21.2905 39.1352L24.1149 46.169C29.0135 41.5338 31.0811 38.1554 31.4122 37.6014C32.0203 34.6487 30.9257 30.75 30.9122 30.7095C30.8878 30.6239 30.8805 30.5343 30.8907 30.4458C30.9009 30.3574 30.9285 30.2718 30.9717 30.194C31.0592 30.0369 31.2054 29.9209 31.3784 29.8717C31.5513 29.8224 31.7367 29.8438 31.8939 29.9312C32.051 30.0187 32.1669 30.165 32.2162 30.3379C32.2635 30.5136 33.4392 34.6892 32.7095 37.9865C32.694 38.0476 32.6713 38.1065 32.6419 38.1622C32.5541 38.3311 30.4054 42.2636 24.3243 47.8311C24.1963 47.951 24.0267 48.0164 23.8513 48.0136Z" fill="#F47E51"/>
<path d="M10.6081 30.0067C10.5224 30.0079 10.4374 29.9918 10.3581 29.9594L2.41214 26.7702C2.30848 26.7305 2.2162 26.6659 2.14345 26.5821C2.07069 26.4983 2.0197 26.3978 1.99499 26.2896C1.97028 26.1814 1.9726 26.0688 2.00175 25.9617C2.0309 25.8546 2.08599 25.7563 2.16214 25.6756C7.73646 19.5945 11.6621 17.4391 11.8311 17.3445C11.8869 17.3172 11.9459 17.2968 12.0067 17.2837C15.304 16.554 19.4797 17.7229 19.6554 17.7769C19.8271 17.8258 19.9726 17.9406 20.0599 18.0963C20.1473 18.252 20.1695 18.436 20.1216 18.608C20.0975 18.6938 20.0566 18.774 20.0014 18.8439C19.9461 18.9138 19.8776 18.9722 19.7997 19.0155C19.7218 19.0588 19.6362 19.0863 19.5476 19.0964C19.4591 19.1065 19.3694 19.099 19.2838 19.0742C19.25 19.0742 15.3513 17.9729 12.3986 18.581C11.8446 18.9053 8.45944 20.9729 3.8243 25.8783L10.8581 28.6959C11.0045 28.7537 11.1261 28.8609 11.2019 28.9988C11.2777 29.1368 11.303 29.2969 11.2733 29.4515C11.2437 29.6061 11.161 29.7454 11.0396 29.8456C10.9181 29.9457 10.7655 30.0003 10.6081 29.9999V30.0067Z" fill="#F47E51"/>
<path d="M8.10806 48.6486C8.01914 48.6491 7.93099 48.632 7.84866 48.5984C7.76634 48.5648 7.69147 48.5152 7.62833 48.4526C7.565 48.3898 7.51473 48.3151 7.48043 48.2327C7.44613 48.1504 7.42847 48.0621 7.42847 47.9729C7.42847 47.8837 7.44613 47.7954 7.48043 47.713C7.51473 47.6307 7.565 47.556 7.62833 47.4931L14.6013 40.4931C14.7323 40.3913 14.8962 40.3412 15.0617 40.3524C15.2273 40.3636 15.3829 40.4353 15.499 40.5539C15.615 40.6724 15.6834 40.8296 15.6911 40.9953C15.6987 41.1611 15.6451 41.3238 15.5405 41.4526L8.56076 48.4526C8.43995 48.5726 8.27826 48.6426 8.10806 48.6486Z" fill="#F47E51"/>
<path d="M2.02712 42.5677C1.84986 42.5669 1.68 42.4966 1.55415 42.3717C1.4283 42.2451 1.35767 42.0739 1.35767 41.8954C1.35767 41.7169 1.4283 41.5456 1.55415 41.419L8.54739 34.4596C8.60796 34.3888 8.6825 34.3314 8.76633 34.2908C8.85016 34.2503 8.94146 34.2275 9.03452 34.2239C9.12757 34.2203 9.22036 34.236 9.30707 34.2699C9.39377 34.3039 9.47252 34.3554 9.53837 34.4213C9.60422 34.4871 9.65574 34.5659 9.68971 34.6526C9.72368 34.7393 9.73936 34.8321 9.73577 34.9251C9.73217 35.0182 9.70938 35.1095 9.66883 35.1933C9.62827 35.2772 9.57082 35.3517 9.50009 35.4123L2.50009 42.392C2.37103 42.5094 2.20155 42.5724 2.02712 42.5677Z" fill="#F47E51"/>
<path d="M2.45941 48.2163C2.37002 48.2159 2.28158 48.1978 2.19924 48.163C2.11689 48.1282 2.04226 48.0775 1.97968 48.0136C1.85384 47.887 1.7832 47.7158 1.7832 47.5373C1.7832 47.3588 1.85384 47.1875 1.97968 47.0609L8.97969 40.0609C9.10894 39.9502 9.27521 39.8924 9.44526 39.8989C9.61531 39.9055 9.77662 39.976 9.89696 40.0963C10.0173 40.2167 10.0878 40.378 10.0944 40.548C10.1009 40.7181 10.0431 40.8844 9.93239 41.0136L2.93239 48.0136C2.80764 48.1409 2.63764 48.2138 2.45941 48.2163Z" fill="#F47E51"/>
</svg>
