<svg width="50" height="49" viewBox="0 0 50 49" fill="none" xmlns="http://www.w3.org/2000/svg">
<path d="M40.2857 43.0856C34.8429 43.0856 30.5786 33.6214 30.5786 21.5428C30.5786 9.46426 34.8429 0 40.2857 0C45.7286 0 50 9.46426 50 21.5428C50 33.6214 45.7143 43.0856 40.2857 43.0856ZM40.2857 1.42857C35.8 1.42857 32.0072 10.6428 32.0072 21.5428C32.0072 32.4428 35.8 41.6571 40.2857 41.6571C44.7714 41.6571 48.5714 32.4428 48.5714 21.5428C48.5714 10.6428 44.7786 1.42857 40.2857 1.42857Z" fill="#F47E51"/>
<path d="M19.0781 14.2141C18.8886 14.2141 18.7069 14.1388 18.573 14.0049C18.439 13.8709 18.3638 13.6892 18.3638 13.4998C18.3638 13.3104 18.439 13.1287 18.573 12.9947C18.7069 12.8608 18.8886 12.7855 19.0781 12.7855C28.9423 12.5212 33.4852 6.09267 33.5352 6.02838C33.5876 5.94973 33.6552 5.88228 33.7339 5.82994C33.8126 5.77759 33.9009 5.74139 33.9938 5.72344C34.0866 5.70549 34.182 5.70615 34.2746 5.72537C34.3672 5.74458 34.455 5.78199 34.533 5.8354C34.611 5.88882 34.6776 5.95719 34.729 6.03655C34.7804 6.11591 34.8155 6.20468 34.8323 6.29771C34.8491 6.39074 34.8473 6.48618 34.8269 6.5785C34.8066 6.67082 34.7681 6.75818 34.7137 6.83552C34.5137 7.12124 29.7137 13.9284 19.1138 14.2141H19.0781Z" fill="#F47E51"/>
<path d="M34.1062 37.3925C33.9911 37.3924 33.8777 37.3643 33.7757 37.3108C33.6737 37.2574 33.5862 37.18 33.5205 37.0854C33.4777 37.0211 28.9348 30.6568 19.0634 30.3783C18.874 30.3783 18.6923 30.303 18.5583 30.1691C18.4244 30.0351 18.3491 29.8534 18.3491 29.664C18.3491 29.4746 18.4244 29.2929 18.5583 29.1589C18.6923 29.025 18.874 28.9497 19.0634 28.9497C29.7277 29.214 34.4991 35.9854 34.6919 36.2711C34.7997 36.4265 34.8414 36.6183 34.8079 36.8045C34.7744 36.9906 34.6685 37.1558 34.5134 37.264C34.3939 37.3473 34.2519 37.3922 34.1062 37.3925Z" fill="#F47E51"/>
<path d="M19.0857 30.3784H8.80712C6.47133 30.3784 4.2312 29.4505 2.57955 27.7989C0.927891 26.1472 0 23.9071 0 21.5713C0 19.2355 0.927891 16.9954 2.57955 15.3437C4.2312 13.6921 6.47133 12.7642 8.80712 12.7642H19.0857C19.2156 12.7652 19.3428 12.8017 19.4536 12.8696C19.5643 12.9376 19.6545 13.0345 19.7142 13.1499C19.7695 13.2628 19.794 13.3883 19.7852 13.5137C19.7764 13.6392 19.7347 13.76 19.6642 13.8642C16.2857 18.5856 16.2928 23.6213 19.6642 29.2641C19.7269 29.3727 19.7599 29.4959 19.7599 29.6213C19.7599 29.7467 19.7269 29.8698 19.6642 29.9784C19.6105 30.0893 19.529 30.1845 19.4276 30.2546C19.3262 30.3247 19.2084 30.3673 19.0857 30.3784ZM8.80712 14.2142C6.85021 14.2142 4.97344 14.9915 3.5897 16.3753C2.20595 17.759 1.42857 19.6358 1.42857 21.5927C1.42857 23.5496 2.20595 25.4264 3.5897 26.8101C4.97344 28.1939 6.85021 28.9713 8.80712 28.9713H17.8571C15.0428 23.7141 15 18.7641 17.7571 14.2142H8.80712Z" fill="#F47E51"/>
<path d="M33.8859 28.6068H31.7431C31.5537 28.6068 31.372 28.5316 31.238 28.3976C31.1041 28.2637 31.0288 28.082 31.0288 27.8926C31.0288 27.7031 31.1041 27.5214 31.238 27.3875C31.372 27.2535 31.5537 27.1783 31.7431 27.1783H33.8859C35.3105 27.0546 36.6369 26.4012 37.6033 25.3473C38.5697 24.2933 39.1058 22.9154 39.1058 21.4854C39.1058 20.0555 38.5697 18.6775 37.6033 17.6236C36.6369 16.5696 35.3105 15.9163 33.8859 15.7926H31.7431C31.5537 15.7926 31.372 15.7173 31.238 15.5834C31.1041 15.4494 31.0288 15.2677 31.0288 15.0783C31.0288 14.8889 31.1041 14.7072 31.238 14.5732C31.372 14.4393 31.5537 14.364 31.7431 14.364H33.8859C35.6792 14.5032 37.354 15.3139 38.5757 16.6341C39.7973 17.9543 40.4759 19.6867 40.4759 21.4854C40.4759 23.2841 39.7973 25.0166 38.5757 26.3368C37.354 27.6569 35.6792 28.4676 33.8859 28.6068Z" fill="#F47E51"/>
<path d="M16.8708 42.3997C16.6813 42.3997 16.4997 42.3244 16.3657 42.1905C16.2317 42.0565 16.1565 41.8748 16.1565 41.6854V29.664C16.1565 29.4746 16.2317 29.2929 16.3657 29.1589C16.4997 29.025 16.6813 28.9497 16.8708 28.9497C17.0602 28.9497 17.2419 29.025 17.3759 29.1589C17.5098 29.2929 17.5851 29.4746 17.5851 29.664V41.6854C17.5851 41.8748 17.5098 42.0565 17.3759 42.1905C17.2419 42.3244 17.0602 42.3997 16.8708 42.3997Z" fill="#F47E51"/>
<path d="M17.186 48.4284H11.186C10.5608 48.4284 9.9613 48.1801 9.51925 47.738C9.0772 47.296 8.82886 46.6964 8.82886 46.0713V29.6428C8.82886 29.4533 8.90411 29.2716 9.03807 29.1377C9.17202 29.0037 9.3537 28.9285 9.54314 28.9285C9.73258 28.9285 9.91426 29.0037 10.0482 29.1377C10.1822 29.2716 10.2574 29.4533 10.2574 29.6428V46.0713C10.2574 46.3176 10.3553 46.5537 10.5294 46.7279C10.7035 46.902 10.9397 46.9999 11.186 46.9999H17.186C17.3726 47.0009 17.5561 46.9525 17.7179 46.8597C17.8797 46.7669 18.0141 46.6329 18.1074 46.4713C18.2003 46.3119 18.2492 46.1308 18.2492 45.9463C18.2492 45.7618 18.2003 45.5807 18.1074 45.4213L16.236 42.0284C16.1413 41.8627 16.1163 41.6661 16.1665 41.4819C16.2167 41.2977 16.3381 41.141 16.5038 41.0463C16.6696 40.9516 16.8662 40.9266 17.0504 40.9768C17.2346 41.0271 17.3913 41.1484 17.486 41.3142L19.3574 44.707C19.5676 45.0869 19.675 45.515 19.6689 45.9492C19.6628 46.3833 19.5435 46.8083 19.3227 47.1821C19.1018 47.5559 18.7872 47.8655 18.41 48.0804C18.0327 48.2952 17.6059 48.4078 17.1717 48.407L17.186 48.4284Z" fill="#F47E51"/>
<path d="M18.7851 37.5214H16.8708C16.6813 37.5214 16.4997 37.4461 16.3657 37.3121C16.2317 37.1782 16.1565 36.9965 16.1565 36.8071V32.4714C16.1565 32.2819 16.2317 32.1002 16.3657 31.9663C16.4997 31.8323 16.6813 31.7571 16.8708 31.7571H18.7851C19.1772 31.7571 19.5533 31.9129 19.8306 32.1901C20.1079 32.4674 20.2636 32.8435 20.2636 33.2356V36.0428C20.2636 36.4349 20.1079 36.811 19.8306 37.0883C19.5533 37.3656 19.1772 37.5214 18.7851 37.5214ZM17.5851 36.0928H18.7851L18.8351 33.2356H17.5851V36.0928Z" fill="#F47E51"/>
</svg>
