<svg width="50" height="50" viewBox="0 0 50 50" fill="none" xmlns="http://www.w3.org/2000/svg">
<path d="M37.5844 48.5812C30.8573 48.5812 21.706 44.0461 13.8323 36.1704C2.64111 24.9758 -1.80484 11.2109 3.92287 5.4839L7.09449 2.31565C7.69336 1.71828 8.5047 1.38281 9.35057 1.38281C10.1964 1.38281 11.0078 1.71828 11.6067 2.31565L18.3904 9.09944C18.9878 9.69831 19.3233 10.5096 19.3233 11.3555C19.3233 12.2014 18.9878 13.0127 18.3904 13.6116L16.3789 15.6224C14.0661 17.9325 16.2364 24.0055 21.1148 28.8852C25.9931 33.765 32.0668 35.9332 34.3776 33.6244L36.3884 31.6129C36.9874 31.0157 37.7987 30.6804 38.6445 30.6804C39.4903 30.6804 40.3016 31.0157 40.9006 31.6129L47.6844 38.3967C48.2821 38.9954 48.6178 39.8068 48.6178 40.6528C48.6178 41.4988 48.2821 42.3102 47.6844 42.9089L44.5161 46.0771C42.8195 47.7738 40.4161 48.5812 37.5844 48.5812ZM9.34719 2.73322C9.10546 2.73311 8.86609 2.78081 8.64286 2.87358C8.41964 2.96635 8.21697 3.10235 8.04652 3.27376L4.87827 6.4393C-0.324431 11.642 4.12354 24.5474 14.7877 35.2123C25.4519 45.8771 38.36 50.3224 43.5607 45.1217L46.7289 41.9535C47.0733 41.6082 47.2667 41.1405 47.2667 40.6528C47.2667 40.1652 47.0733 39.6974 46.7289 39.3521L39.9452 32.5677C39.5998 32.2237 39.1323 32.0306 38.6448 32.0306C38.1574 32.0306 37.6898 32.2237 37.3445 32.5677L35.333 34.5792C32.4087 37.5042 25.7438 35.4231 20.1594 29.84C14.5749 24.2569 12.4952 17.592 15.4202 14.667L17.4323 12.6555C17.7766 12.3104 17.97 11.8427 17.97 11.3552C17.97 10.8676 17.7766 10.4 17.4323 10.0548L10.6479 3.27106C10.4772 3.10014 10.2744 2.96463 10.0512 2.87233C9.82799 2.78003 9.58874 2.73275 9.34719 2.73322Z" fill="#F47E51"/>
<path d="M15.898 15.8203C15.7188 15.8203 15.5469 15.7491 15.4203 15.6224L5.08241 5.28453C5.01937 5.22193 4.96927 5.14753 4.93498 5.06557C4.9007 4.98361 4.88289 4.8957 4.88257 4.80685C4.88226 4.71801 4.89945 4.62997 4.93316 4.54777C4.96686 4.46557 5.01643 4.39082 5.07903 4.32777C5.14163 4.26473 5.21604 4.21463 5.298 4.18035C5.37996 4.14606 5.46787 4.12825 5.55671 4.12793C5.64556 4.12762 5.73359 4.14481 5.81579 4.17852C5.89799 4.21223 5.97275 4.2618 6.03579 4.3244L16.3736 14.6622C16.4681 14.7567 16.5324 14.8771 16.5585 15.0082C16.5845 15.1392 16.5712 15.275 16.52 15.3985C16.4689 15.5219 16.3823 15.6274 16.2712 15.7017C16.1601 15.7759 16.0295 15.8156 15.8959 15.8156L15.898 15.8203Z" fill="#F47E51"/>
<path d="M45.1959 45.1177C45.1071 45.1179 45.0192 45.1005 44.9372 45.0665C44.8552 45.0326 44.7808 44.9826 44.7182 44.9197L34.3803 34.5818C34.2573 34.4544 34.1892 34.2837 34.1907 34.1066C34.1922 33.9294 34.2633 33.7599 34.3886 33.6347C34.5138 33.5094 34.6833 33.4383 34.8605 33.4368C35.0376 33.4353 35.2083 33.5034 35.3358 33.6264L45.6736 43.9643C45.7681 44.0588 45.8324 44.1792 45.8584 44.3102C45.8845 44.4413 45.8711 44.5771 45.82 44.7005C45.7689 44.824 45.6823 44.9295 45.5712 45.0037C45.4601 45.078 45.3295 45.1176 45.1959 45.1177Z" fill="#F47E51"/>
<path d="M46.6513 24.2945C46.4721 24.2945 46.3002 24.2233 46.1735 24.0966C46.0468 23.9699 45.9756 23.798 45.9756 23.6188C45.9699 18.4237 43.9036 13.4431 40.2301 9.76965C36.5567 6.09619 31.5761 4.02993 26.381 4.0242C26.2018 4.0242 26.0299 3.95302 25.9032 3.8263C25.7765 3.69959 25.7053 3.52773 25.7053 3.34853C25.7053 3.16933 25.7765 2.99747 25.9032 2.87075C26.0299 2.74404 26.2018 2.67285 26.381 2.67285C31.9342 2.67929 37.2582 4.88816 41.1849 8.81489C45.1116 12.7416 47.3205 18.0656 47.3269 23.6188C47.3269 23.798 47.2558 23.9699 47.129 24.0966C47.0023 24.2233 46.8305 24.2945 46.6513 24.2945Z" fill="#F47E51"/>
<path d="M39.8945 24.2946C39.7153 24.2946 39.5435 24.2234 39.4167 24.0967C39.29 23.9699 39.2188 23.7981 39.2188 23.6189C39.2151 20.2152 37.8613 16.9521 35.4546 14.5453C33.0478 12.1386 29.7847 10.7848 26.381 10.781C26.2018 10.781 26.0299 10.7099 25.9032 10.5831C25.7765 10.4564 25.7053 10.2846 25.7053 10.1054C25.7053 9.92616 25.7765 9.7543 25.9032 9.62759C26.0299 9.50087 26.2018 9.42969 26.381 9.42969C30.1429 9.4338 33.7496 10.93 36.4097 13.5901C39.0698 16.2502 40.5661 19.8569 40.5702 23.6189C40.5702 23.7981 40.499 23.9699 40.3723 24.0967C40.2456 24.2234 40.0737 24.2946 39.8945 24.2946Z" fill="#F47E51"/>
<path d="M33.1378 24.2946C32.9586 24.2946 32.7867 24.2234 32.66 24.0967C32.5333 23.97 32.4621 23.7982 32.4621 23.619C32.4601 22.0068 31.8188 20.4612 30.6788 19.3212C29.5388 18.1812 27.9932 17.5398 26.381 17.5379C26.2018 17.5379 26.0299 17.4667 25.9032 17.34C25.7765 17.2133 25.7053 17.0414 25.7053 16.8622C25.7053 16.683 25.7765 16.5111 25.9032 16.3844C26.0299 16.2577 26.2018 16.1865 26.381 16.1865C28.3515 16.1888 30.2406 16.9727 31.634 18.366C33.0273 19.7593 33.8111 21.6485 33.8134 23.619C33.8134 23.7982 33.7422 23.97 33.6155 24.0967C33.4888 24.2234 33.317 24.2946 33.1378 24.2946Z" fill="#F47E51"/>
</svg>
