<svg width="60" height="60" viewBox="0 0 60 60" fill="none" xmlns="http://www.w3.org/2000/svg">
<path d="M39.0752 22.2855H20.9211C20.6938 22.2855 20.4758 22.1952 20.315 22.0345C20.1543 21.8737 20.064 21.6557 20.064 21.4284V17.8199C20.064 17.0789 20.2102 16.3452 20.4943 15.6609C20.7783 14.9765 21.1947 14.355 21.7194 13.8318C22.2441 13.3087 22.867 12.8942 23.5522 12.6122C24.2374 12.3302 24.9715 12.1862 25.7125 12.1885H34.2838C35.7773 12.1885 37.2097 12.7818 38.2658 13.8379C39.3219 14.894 39.9152 16.3263 39.9152 17.8199V21.4284C39.9152 21.6528 39.8273 21.8682 39.6702 22.0285C39.5132 22.1888 39.2995 22.281 39.0752 22.2855ZM21.7782 20.5713H38.218V17.8199C38.2169 17.3043 38.1143 16.7941 37.9159 16.3182C37.7176 15.8424 37.4275 15.4102 37.0622 15.0465C36.6969 14.6828 36.2635 14.3946 35.7867 14.1983C35.31 14.0021 34.7993 13.9016 34.2838 13.9028H25.7125C24.6743 13.905 23.6793 14.3185 22.9452 15.0526C22.2111 15.7867 21.7976 16.7817 21.7954 17.8199L21.7782 20.5713Z" fill="#F47E51"/>
<path d="M29.9987 10.4742C28.9629 10.4742 27.9503 10.167 27.0891 9.59156C26.2279 9.01611 25.5566 8.19818 25.1602 7.24123C24.7639 6.28428 24.6602 5.23128 24.8622 4.21538C25.0643 3.19949 25.5631 2.26633 26.2955 1.53391C27.0279 0.80149 27.9611 0.302706 28.977 0.100631C29.9929 -0.101443 31.0459 0.00226917 32.0028 0.398652C32.9598 0.795034 33.7777 1.46628 34.3532 2.32752C34.9286 3.18875 35.2358 4.20129 35.2358 5.23709C35.2335 6.62535 34.681 7.95611 33.6994 8.93776C32.7177 9.91941 31.3869 10.4719 29.9987 10.4742ZM29.9987 1.71427C29.3019 1.71427 28.6208 1.92088 28.0415 2.30797C27.4622 2.69506 27.0107 3.24525 26.744 3.88896C26.4774 4.53267 26.4076 5.24099 26.5436 5.92436C26.6795 6.60771 27.015 7.23542 27.5077 7.7281C28.0004 8.22077 28.6281 8.55629 29.3114 8.69221C29.9948 8.82814 30.7031 8.75838 31.3468 8.49175C31.9905 8.22511 32.5407 7.77358 32.9278 7.19426C33.3149 6.61494 33.5215 5.93383 33.5215 5.23709C33.5215 4.30278 33.1503 3.40674 32.4897 2.74608C31.829 2.08542 30.933 1.71427 29.9987 1.71427Z" fill="#F47E51"/>
<path d="M59.1428 59.9994H40.9802C40.7529 59.9994 40.5348 59.9091 40.3741 59.7483C40.2134 59.5876 40.123 59.3696 40.123 59.1422V55.5337C40.1253 54.0409 40.7193 52.6098 41.7749 51.5542C42.8305 50.4986 44.2616 49.9046 45.7544 49.9023H54.3686C55.8614 49.9046 57.2925 50.4986 58.3481 51.5542C59.4037 52.6098 59.9977 54.0409 60 55.5337V59.1422C60 59.3696 59.9097 59.5876 59.7489 59.7483C59.5882 59.9091 59.3702 59.9994 59.1428 59.9994ZM41.8373 58.2851H58.2857V55.5337C58.2834 54.4955 57.87 53.5005 57.1359 52.7664C56.4018 52.0323 55.4068 51.6189 54.3686 51.6166H45.7544C44.7162 51.6189 43.7212 52.0323 42.9871 52.7664C42.253 53.5005 41.8396 54.4955 41.8373 55.5337V58.2851Z" fill="#F47E51"/>
<path d="M50.0652 48.188C49.0294 48.188 48.0169 47.8809 47.1556 47.3054C46.2944 46.73 45.6232 45.9121 45.2268 44.9551C44.8304 43.9981 44.7267 42.9451 44.9288 41.9293C45.1308 40.9134 45.6296 39.9802 46.362 39.2478C47.0945 38.5154 48.0276 38.0166 49.0435 37.8145C50.0594 37.6124 51.1124 37.7161 52.0694 38.1125C53.0263 38.5089 53.8442 39.1802 54.4197 40.0414C54.9951 40.9026 55.3023 41.9152 55.3023 42.951C55.3 44.3392 54.7475 45.67 53.7659 46.6516C52.7842 47.6333 51.4535 48.1858 50.0652 48.188ZM50.0652 39.4281C49.3685 39.4281 48.6874 39.6347 48.108 40.0218C47.5287 40.4089 47.0772 40.9591 46.8106 41.6028C46.5439 42.2465 46.4742 42.9549 46.6101 43.6382C46.746 44.3216 47.0815 44.9493 47.5742 45.442C48.0669 45.9346 48.6946 46.2702 49.3779 46.4061C50.0613 46.542 50.7696 46.4722 51.4133 46.2056C52.057 45.939 52.6072 45.4875 52.9943 44.9081C53.3814 44.3288 53.588 43.6477 53.588 42.951C53.588 42.0166 53.2169 41.1206 52.5562 40.4599C51.8956 39.7993 50.9995 39.4281 50.0652 39.4281Z" fill="#F47E51"/>
<path d="M19.0198 59.9994H0.857133C0.629807 59.9994 0.411792 59.9091 0.251049 59.7483C0.0903048 59.5876 0 59.3696 0 59.1422V55.5337C0.00226703 54.0409 0.596298 52.6098 1.65189 51.5542C2.70749 50.4986 4.13853 49.9046 5.63137 49.9023H14.2456C15.7384 49.9046 17.1694 50.4986 18.225 51.5542C19.2806 52.6098 19.8747 54.0409 19.8769 55.5337V59.1422C19.8769 59.3696 19.7866 59.5876 19.6259 59.7483C19.4651 59.9091 19.2471 59.9994 19.0198 59.9994ZM1.71427 58.2851H18.1627V55.5337C18.1604 54.4955 17.747 53.5005 17.0129 52.7664C16.2788 52.0323 15.2837 51.6189 14.2456 51.6166H5.67422C5.15654 51.6121 4.64307 51.71 4.16338 51.9047C3.6837 52.0994 3.24726 52.3871 2.8792 52.7512C2.51115 53.1153 2.21873 53.5486 2.01881 54.0261C1.81888 54.5036 1.71538 55.016 1.71427 55.5337V58.2851Z" fill="#F47E51"/>
<path d="M9.9346 48.188C8.8988 48.188 7.88626 47.8809 7.02503 47.3054C6.16379 46.73 5.49254 45.9121 5.09616 44.9551C4.69978 43.9981 4.59607 42.9451 4.79814 41.9293C5.00022 40.9134 5.499 39.9802 6.23142 39.2478C6.96384 38.5154 7.897 38.0166 8.91289 37.8145C9.92879 37.6124 10.9818 37.7161 11.9387 38.1125C12.8957 38.5089 13.7136 39.1802 14.2891 40.0414C14.8645 40.9026 15.1717 41.9152 15.1717 42.951C15.1694 44.3392 14.6169 45.67 13.6353 46.6516C12.6536 47.6333 11.3229 48.1858 9.9346 48.188ZM9.9346 39.4281C9.23785 39.4281 8.55675 39.6347 7.97742 40.0218C7.3981 40.4089 6.94657 40.9591 6.67994 41.6028C6.4133 42.2465 6.34354 42.9549 6.47947 43.6382C6.6154 44.3216 6.95091 44.9493 7.44359 45.442C7.93626 45.9346 8.56397 46.2702 9.24733 46.4061C9.93069 46.542 10.639 46.4722 11.2827 46.2056C11.9264 45.939 12.4766 45.4875 12.8637 44.9081C13.2508 44.3288 13.4574 43.6477 13.4574 42.951C13.4552 42.0173 13.0833 41.1226 12.4231 40.4624C11.7629 39.8023 10.8682 39.4304 9.9346 39.4281Z" fill="#F47E51"/>
<path d="M29.9992 37.9283C29.7719 37.9283 29.5539 37.838 29.3931 37.6773C29.2324 37.5165 29.1421 37.2985 29.1421 37.0712V27.4284C29.1421 27.2011 29.2324 26.9831 29.3931 26.8223C29.5539 26.6616 29.7719 26.5713 29.9992 26.5713C30.2265 26.5713 30.4446 26.6616 30.6053 26.8223C30.7661 26.9831 30.8564 27.2011 30.8564 27.4284V37.0712C30.8564 37.2985 30.7661 37.5165 30.6053 37.6773C30.4446 37.838 30.2265 37.9283 29.9992 37.9283Z" fill="#F47E51"/>
<path d="M37.4985 44.5708C37.2901 44.5705 37.089 44.4943 36.9328 44.3565L29.9986 38.2195L23.0644 44.3565C22.8923 44.4951 22.6735 44.5619 22.4535 44.543C22.2334 44.5241 22.0291 44.421 21.8832 44.2552C21.7373 44.0894 21.661 43.8737 21.6703 43.6531C21.6796 43.4324 21.7737 43.2238 21.9329 43.0708L29.4329 36.428C29.5893 36.2906 29.7904 36.2148 29.9986 36.2148C30.2068 36.2148 30.4079 36.2906 30.5643 36.428L38.0642 43.0708C38.2345 43.221 38.3383 43.4326 38.3527 43.6591C38.3672 43.8857 38.2912 44.1088 38.1413 44.2794C38.061 44.3708 37.9621 44.4441 37.8513 44.4943C37.7404 44.5446 37.6202 44.5707 37.4985 44.5708Z" fill="#F47E51"/>
</svg>
