<svg width="50" height="50" viewBox="0 0 50 50" fill="none" xmlns="http://www.w3.org/2000/svg">
<path d="M30.3636 7.12427C30.2147 7.12464 30.0699 7.07543 29.9521 6.9844L24.6203 2.88778L19.4676 6.97765C19.3269 7.08365 19.1502 7.13047 18.9754 7.10811C18.8007 7.08575 18.6415 6.99599 18.532 6.85796C18.4224 6.71994 18.3711 6.54457 18.389 6.36926C18.4069 6.19395 18.4926 6.03257 18.6278 5.91954L24.1933 1.50129C24.3113 1.40756 24.4573 1.35598 24.608 1.35476C24.7587 1.35353 24.9055 1.40274 25.0251 1.49454L30.7751 5.91278C30.887 5.99876 30.9692 6.11763 31.0101 6.2527C31.051 6.38777 31.0486 6.53226 31.0032 6.66589C30.9578 6.79953 30.8717 6.9156 30.757 6.9978C30.6423 7.08001 30.5047 7.12424 30.3636 7.12427Z" fill="#F47E51"/>
<path d="M2.06629 20.6156C1.92608 20.6156 1.78935 20.572 1.67504 20.4908C1.56073 20.4096 1.47451 20.2949 1.42833 20.1625C1.38215 20.0301 1.37829 19.8866 1.4173 19.752C1.4563 19.6173 1.53623 19.4981 1.64602 19.4109L8.22507 14.1893C8.29459 14.1341 8.3743 14.0931 8.45965 14.0687C8.545 14.0443 8.63432 14.037 8.7225 14.0471C8.81069 14.0573 8.89601 14.0847 8.9736 14.1278C9.0512 14.1709 9.11954 14.2289 9.17473 14.2984C9.22992 14.3679 9.27088 14.4476 9.29526 14.533C9.31965 14.6183 9.32699 14.7076 9.31685 14.7958C9.30672 14.884 9.27932 14.9693 9.23621 15.0469C9.1931 15.1245 9.13513 15.1929 9.06561 15.248L2.48588 20.469C2.36655 20.5638 2.21868 20.6155 2.06629 20.6156Z" fill="#F47E51"/>
<path d="M47.9357 48.6487C47.787 48.6485 47.6425 48.5996 47.5242 48.5095L29.4094 34.625L20.5905 34.6318L2.47491 48.5061C2.37506 48.5826 2.25584 48.6297 2.13068 48.642C2.00551 48.6544 1.87937 48.6316 1.76646 48.5762C1.65354 48.5208 1.55833 48.435 1.49155 48.3284C1.42476 48.2219 1.38905 48.0988 1.38843 47.973V19.9426C1.38842 19.8165 1.42368 19.693 1.49022 19.5859C1.55675 19.4788 1.65192 19.3925 1.76495 19.3367C1.87798 19.2809 2.00437 19.2578 2.12984 19.2701C2.2553 19.2823 2.37483 19.3295 2.47491 19.4061L20.5905 33.2804L29.6378 33.2737C29.7863 33.2737 29.9306 33.3226 30.0486 33.4129L47.2601 46.6007V20.2703L40.9459 15.423C40.8071 15.3127 40.7171 15.1523 40.6955 14.9764C40.6739 14.8004 40.7223 14.623 40.8303 14.4824C40.9382 14.3418 41.0972 14.2493 41.2727 14.2248C41.4483 14.2002 41.6265 14.2457 41.7688 14.3514L48.3499 19.4041C48.4321 19.4672 48.4986 19.5483 48.5444 19.6412C48.5903 19.7341 48.6141 19.8363 48.6141 19.9399V47.973C48.6141 48.1522 48.5429 48.3241 48.4162 48.4508C48.2895 48.5775 48.1176 48.6487 47.9384 48.6487H47.9357ZM2.73978 21.3115V46.6014L19.2499 33.9561L2.73978 21.3115Z" fill="#F47E51"/>
<path d="M29.6386 34.625C29.4974 34.625 29.3597 34.5808 29.2449 34.4985C29.1301 34.4162 29.044 34.3 28.9986 34.1662C28.9533 34.0324 28.951 33.8878 28.9921 33.7527C29.0332 33.6175 29.1157 33.4987 29.2278 33.4128L47.5251 19.4061C47.6674 19.2971 47.8471 19.2491 48.0248 19.2727C48.2024 19.2963 48.3635 19.3895 48.4724 19.5317C48.5814 19.674 48.6293 19.8538 48.6058 20.0314C48.5822 20.2091 48.489 20.3701 48.3467 20.479L30.0494 34.4858C29.9315 34.5761 29.7871 34.625 29.6386 34.625Z" fill="#F47E51"/>
<path d="M8.64198 25.6622C8.46278 25.6622 8.29092 25.591 8.16421 25.4643C8.0375 25.3376 7.96631 25.1658 7.96631 24.9866V6.45278C7.96631 6.27357 8.0375 6.10171 8.16421 5.975C8.29092 5.84829 8.46278 5.7771 8.64198 5.7771H41.3514C41.5306 5.7771 41.7025 5.84829 41.8292 5.975C41.9559 6.10171 42.0271 6.27357 42.0271 6.45278V24.9798C42.0271 25.159 41.9559 25.3309 41.8292 25.4576C41.7025 25.5843 41.5306 25.6555 41.3514 25.6555C41.1722 25.6555 41.0004 25.5843 40.8737 25.4576C40.747 25.3309 40.6758 25.159 40.6758 24.9798V7.12845H9.31766V24.9866C9.31766 25.1658 9.24647 25.3376 9.11976 25.4643C8.99305 25.591 8.82118 25.6622 8.64198 25.6622Z" fill="#F47E51"/>
<path d="M34.6445 15.544H14.6513C14.4721 15.544 14.3002 15.4728 14.1735 15.3461C14.0468 15.2194 13.9756 15.0475 13.9756 14.8683C13.9756 14.6891 14.0468 14.5172 14.1735 14.3905C14.3002 14.2638 14.4721 14.1926 14.6513 14.1926H34.6445C34.8237 14.1926 34.9956 14.2638 35.1223 14.3905C35.249 14.5172 35.3202 14.6891 35.3202 14.8683C35.3202 15.0475 35.249 15.2194 35.1223 15.3461C34.9956 15.4728 34.8237 15.544 34.6445 15.544Z" fill="#F47E51"/>
<path d="M34.6445 22.9764H14.6513C14.4721 22.9764 14.3002 22.9052 14.1735 22.7785C14.0468 22.6517 13.9756 22.4799 13.9756 22.3007C13.9756 22.1215 14.0468 21.9496 14.1735 21.8229C14.3002 21.6962 14.4721 21.625 14.6513 21.625H34.6445C34.8237 21.625 34.9956 21.6962 35.1223 21.8229C35.249 21.9496 35.3202 22.1215 35.3202 22.3007C35.3202 22.4799 35.249 22.6517 35.1223 22.7785C34.9956 22.9052 34.8237 22.9764 34.6445 22.9764Z" fill="#F47E51"/>
<path d="M47.9357 48.6487H2.0641C1.8849 48.6487 1.71304 48.5775 1.58633 48.4508C1.45961 48.3241 1.38843 48.1522 1.38843 47.973C1.38843 47.7938 1.45961 47.622 1.58633 47.4953C1.71304 47.3685 1.8849 47.2974 2.0641 47.2974H47.9357C48.1149 47.2974 48.2868 47.3685 48.4135 47.4953C48.5402 47.622 48.6114 47.7938 48.6114 47.973C48.6114 48.1522 48.5402 48.3241 48.4135 48.4508C48.2868 48.5775 48.1149 48.6487 47.9357 48.6487Z" fill="#F47E51"/>
</svg>
