<svg width="55" height="55" viewBox="0 0 55 55" fill="none" xmlns="http://www.w3.org/2000/svg">
<path d="M35.5062 36.7319H19.4935C19.2851 36.7319 19.0852 36.6491 18.9379 36.5017C18.7905 36.3544 18.7078 36.1545 18.7078 35.9461V30.9412C18.7078 29.8464 19.1421 28.7964 19.9155 28.0216C20.6888 27.2468 21.738 26.8104 22.8327 26.8083H32.167C33.2617 26.8104 34.3109 27.2468 35.0842 28.0216C35.8576 28.7964 36.2919 29.8464 36.2919 30.9412V35.9461C36.2919 36.1545 36.2092 36.3544 36.0618 36.5017C35.9145 36.6491 35.7146 36.7319 35.5062 36.7319ZM20.2792 35.1604H34.7205V30.9412C34.7205 30.2632 34.4517 29.6129 33.9731 29.1328C33.4944 28.6526 32.8449 28.3818 32.167 28.3798H22.8327C22.1548 28.3818 21.5053 28.6526 21.0266 29.1328C20.548 29.6129 20.2792 30.2632 20.2792 30.9412V35.1604Z" fill="#F47E51"/>
<path d="M27.4994 25.0484C26.4987 25.0484 25.5204 24.7516 24.6883 24.1956C23.8561 23.6396 23.2076 22.8494 22.8246 21.9248C22.4416 21.0002 22.3414 19.9828 22.5367 19.0013C22.7319 18.0197 23.2138 17.1181 23.9215 16.4105C24.6291 15.7028 25.5307 15.2209 26.5123 15.0257C27.4938 14.8305 28.5112 14.9307 29.4358 15.3136C30.3604 15.6966 31.1506 16.3452 31.7066 17.1773C32.2626 18.0094 32.5594 18.9877 32.5594 19.9884C32.5573 21.3298 32.0235 22.6156 31.0751 23.5641C30.1266 24.5126 28.8408 25.0463 27.4994 25.0484ZM27.4994 16.4999C26.8095 16.4999 26.135 16.7045 25.5613 17.0878C24.9876 17.4711 24.5405 18.016 24.2764 18.6534C24.0124 19.2909 23.9433 19.9923 24.0779 20.669C24.2125 21.3457 24.5448 21.9673 25.0326 22.4552C25.5205 22.9431 26.1421 23.2753 26.8188 23.41C27.4956 23.5446 28.197 23.4755 28.8344 23.2114C29.4719 22.9474 30.0167 22.5003 30.4 21.9266C30.7834 21.3529 30.988 20.6784 30.988 19.9884C30.988 19.0632 30.6204 18.1759 29.9662 17.5217C29.312 16.8674 28.4246 16.4999 27.4994 16.4999Z" fill="#F47E51"/>
<path d="M27.4993 54.9997C27.2909 54.9997 27.0911 54.9169 26.9438 54.7695C26.7964 54.6222 26.7136 54.4223 26.7136 54.2139V45.0054C26.7136 44.7971 26.7964 44.5972 26.9438 44.4499C27.0911 44.3025 27.2909 44.2197 27.4993 44.2197C27.7077 44.2197 27.9076 44.3025 28.0549 44.4499C28.2023 44.5972 28.285 44.7971 28.285 45.0054V54.2139C28.285 54.4223 28.2023 54.6222 28.0549 54.7695C27.9076 54.9169 27.7077 54.9997 27.4993 54.9997Z" fill="#F47E51"/>
<path d="M27.4993 50.3954C22.971 50.3954 18.5444 49.0526 14.7792 46.5368C11.0141 44.021 8.0795 40.4452 6.34659 36.2616C4.61368 32.078 4.16027 27.4744 5.0437 23.0331C5.92713 18.5918 8.10772 14.5122 11.3097 11.3102C14.5117 8.10821 18.5913 5.92762 23.0326 5.04419C27.4739 4.16076 32.0775 4.61417 36.2611 6.34708C40.4447 8.07999 44.0205 11.0146 46.5363 14.7797C49.0521 18.5449 50.3949 22.9715 50.3949 27.4998C50.3887 33.5702 47.9744 39.3901 43.682 43.6825C39.3897 47.9749 33.5697 50.3891 27.4993 50.3954ZM27.4993 6.17568C23.2818 6.17568 19.159 7.42632 15.6523 9.76944C12.1455 12.1126 9.41237 15.4429 7.79839 19.3394C6.18442 23.2359 5.76213 27.5235 6.58493 31.66C7.40772 35.7964 9.43865 39.596 12.4209 42.5783C15.4031 45.5605 19.2027 47.5914 23.3392 48.4142C27.4757 49.237 31.7633 48.8147 35.6597 47.2008C39.5562 45.5868 42.8866 42.8536 45.2297 39.3469C47.5728 35.8401 48.8235 31.7173 48.8235 27.4998C48.8152 21.8469 46.5659 16.4278 42.5686 12.4306C38.5713 8.4333 33.1523 6.18399 27.4993 6.17568Z" fill="#F47E51"/>
<path d="M27.4993 10.7799C27.2909 10.7799 27.0911 10.6971 26.9438 10.5498C26.7964 10.4025 26.7136 10.2026 26.7136 9.99422V0.785709C26.7136 0.577326 26.7964 0.377478 26.9438 0.230129C27.0911 0.0827798 27.2909 0 27.4993 0C27.7077 0 27.9076 0.0827798 28.0549 0.230129C28.2023 0.377478 28.285 0.577326 28.285 0.785709V9.99422C28.285 10.2026 28.2023 10.4025 28.0549 10.5498C27.9076 10.6971 27.7077 10.7799 27.4993 10.7799Z" fill="#F47E51"/>
<path d="M54.2142 28.2855H45.0057C44.7973 28.2855 44.5975 28.2028 44.4501 28.0554C44.3028 27.9081 44.22 27.7082 44.22 27.4998C44.22 27.2914 44.3028 27.0916 44.4501 26.9442C44.5975 26.7969 44.7973 26.7141 45.0057 26.7141H54.2142C54.4226 26.7141 54.6224 26.7969 54.7698 26.9442C54.9171 27.0916 54.9999 27.2914 54.9999 27.4998C54.9999 27.7082 54.9171 27.9081 54.7698 28.0554C54.6224 28.2028 54.4226 28.2855 54.2142 28.2855Z" fill="#F47E51"/>
<path d="M9.99422 28.2855H0.785709C0.577326 28.2855 0.377478 28.2028 0.230129 28.0554C0.0827798 27.9081 0 27.7082 0 27.4998C0 27.2914 0.0827798 27.0916 0.230129 26.9442C0.377478 26.7969 0.577326 26.7141 0.785709 26.7141H9.99422C10.2026 26.7141 10.4025 26.7969 10.5498 26.9442C10.6971 27.0916 10.7799 27.2914 10.7799 27.4998C10.7799 27.7082 10.6971 27.9081 10.5498 28.0554C10.4025 28.2028 10.2026 28.2855 9.99422 28.2855Z" fill="#F47E51"/>
</svg>
