<svg width="50" height="50" viewBox="0 0 50 50" fill="none" xmlns="http://www.w3.org/2000/svg">
<path d="M47.9729 12.1621H2.02699C1.84779 12.1621 1.67593 12.091 1.54922 11.9642C1.42251 11.8375 1.35132 11.6657 1.35132 11.4865C1.35132 11.3073 1.42251 11.1354 1.54922 11.0087C1.67593 10.882 1.84779 10.8108 2.02699 10.8108H47.9729C48.1521 10.8108 48.324 10.882 48.4507 11.0087C48.5774 11.1354 48.6486 11.3073 48.6486 11.4865C48.6486 11.6657 48.5774 11.8375 48.4507 11.9642C48.324 12.091 48.1521 12.1621 47.9729 12.1621Z" fill="#F47E51"/>
<path d="M40.9028 9.14606C40.4302 9.14619 39.9682 9.00618 39.5753 8.74373C39.1823 8.48129 38.8759 8.10819 38.695 7.67164C38.5141 7.23508 38.4667 6.75467 38.5588 6.29117C38.6509 5.82767 38.8784 5.40189 39.2125 5.06769C39.5466 4.73349 39.9723 4.50588 40.4358 4.41363C40.8992 4.32139 41.3797 4.36867 41.8163 4.54948C42.2529 4.73029 42.6261 5.03652 42.8886 5.42943C43.1512 5.82235 43.2913 6.2843 43.2913 6.75687C43.2906 7.39018 43.0388 7.99736 42.591 8.44525C42.1432 8.89314 41.5361 9.14516 40.9028 9.14606ZM40.9028 5.71903C40.6975 5.71889 40.4968 5.77965 40.326 5.89361C40.1553 6.00756 40.0221 6.16961 39.9435 6.35923C39.8648 6.54886 39.8442 6.75756 39.8842 6.95892C39.9241 7.16029 40.0229 7.34528 40.168 7.49049C40.3131 7.6357 40.4981 7.73461 40.6994 7.77471C40.9007 7.81481 41.1095 7.7943 41.2991 7.71577C41.4888 7.63724 41.6509 7.50421 41.765 7.33353C41.8791 7.16284 41.94 6.96216 41.94 6.75687C41.9396 6.48184 41.8302 6.21817 41.6358 6.02364C41.4414 5.8291 41.1778 5.71956 40.9028 5.71903Z" fill="#F47E51"/>
<path d="M34.1217 9.20602C33.6373 9.20602 33.1637 9.06237 32.7609 8.79324C32.3581 8.5241 32.0442 8.14157 31.8588 7.69401C31.6734 7.24646 31.6249 6.75398 31.7194 6.27886C31.8139 5.80374 32.0472 5.36731 32.3898 5.02476C32.7323 4.68222 33.1687 4.44894 33.6438 4.35444C34.119 4.25993 34.6114 4.30843 35.059 4.49382C35.5066 4.6792 35.8891 4.99314 36.1582 5.39593C36.4274 5.79872 36.571 6.27227 36.571 6.7567C36.5703 7.40608 36.312 8.02866 35.8528 8.48784C35.3937 8.94702 34.7711 9.20531 34.1217 9.20602ZM34.1217 5.65873C33.9045 5.65873 33.6922 5.72312 33.5117 5.84377C33.3311 5.96441 33.1904 6.13589 33.1073 6.33652C33.0242 6.53715 33.0024 6.75792 33.0448 6.9709C33.0872 7.18389 33.1918 7.37953 33.3453 7.53308C33.4989 7.68664 33.6945 7.79121 33.9075 7.83357C34.1205 7.87594 34.3412 7.8542 34.5419 7.77109C34.7425 7.68799 34.914 7.54726 35.0346 7.3667C35.1553 7.18614 35.2197 6.97386 35.2197 6.7567C35.2193 6.46561 35.1035 6.18654 34.8977 5.98071C34.6918 5.77488 34.4128 5.65908 34.1217 5.65873Z" fill="#F47E51"/>
<path d="M46.6216 48.6486H3.37835C2.84074 48.6486 2.32516 48.4351 1.94502 48.0549C1.56488 47.6748 1.35132 47.1592 1.35132 46.6216V3.37835C1.35132 2.84074 1.56488 2.32516 1.94502 1.94502C2.32516 1.56488 2.84074 1.35132 3.37835 1.35132H46.6216C47.1592 1.35132 47.6748 1.56488 48.0549 1.94502C48.4351 2.32516 48.6486 2.84074 48.6486 3.37835V46.6216C48.6486 47.1592 48.4351 47.6748 48.0549 48.0549C47.6748 48.4351 47.1592 48.6486 46.6216 48.6486ZM3.37835 2.70267C3.19915 2.70267 3.02728 2.77386 2.90057 2.90057C2.77386 3.02728 2.70267 3.19915 2.70267 3.37835V46.6216C2.70267 46.8008 2.77386 46.9727 2.90057 47.0994C3.02728 47.2261 3.19915 47.2973 3.37835 47.2973H46.6216C46.8008 47.2973 46.9727 47.2261 47.0994 47.0994C47.2261 46.9727 47.2973 46.8008 47.2973 46.6216V3.37835C47.2973 3.19915 47.2261 3.02728 47.0994 2.90057C46.9727 2.77386 46.8008 2.70267 46.6216 2.70267H3.37835Z" fill="#F47E51"/>
<path d="M27.7028 7.43241H7.43251C7.25331 7.43241 7.08145 7.36122 6.95474 7.23451C6.82802 7.10779 6.75684 6.93593 6.75684 6.75673C6.75684 6.57753 6.82802 6.40567 6.95474 6.27896C7.08145 6.15224 7.25331 6.08105 7.43251 6.08105H27.7028C27.882 6.08105 28.0538 6.15224 28.1806 6.27896C28.3073 6.40567 28.3785 6.57753 28.3785 6.75673C28.3785 6.93593 28.3073 7.10779 28.1806 7.23451C28.0538 7.36122 27.882 7.43241 27.7028 7.43241Z" fill="#F47E51"/>
<path d="M21.3688 40.2338C21.2601 40.2337 21.1531 40.2075 21.0567 40.1572C20.9604 40.107 20.8776 40.0343 20.8153 39.9452C20.753 39.8562 20.7132 39.7534 20.6991 39.6457C20.685 39.5379 20.6971 39.4284 20.7343 39.3263L27.8087 19.8959C27.8724 19.7309 27.9983 19.5974 28.1594 19.5242C28.3205 19.451 28.5039 19.4439 28.6701 19.5044C28.8364 19.5649 28.9723 19.6882 29.0486 19.8479C29.1249 20.0075 29.1356 20.1907 29.0783 20.3581L22.0039 39.7892C21.9565 39.9195 21.8701 40.0321 21.7565 40.1116C21.6429 40.1911 21.5075 40.2338 21.3688 40.2338Z" fill="#F47E51"/>
<path d="M18.1757 34.5231C18.0171 34.5231 17.8635 34.4674 17.7419 34.3657L12.8959 30.3116C12.8201 30.2482 12.7592 30.1689 12.7173 30.0794C12.6755 29.9898 12.6538 29.8922 12.6538 29.7934C12.6538 29.6945 12.6755 29.5969 12.7173 29.5074C12.7592 29.4178 12.8201 29.3385 12.8959 29.2751L17.7419 25.2211C17.8793 25.106 18.0569 25.0503 18.2354 25.0661C18.4139 25.082 18.5789 25.1681 18.6939 25.3055C18.809 25.443 18.8647 25.6205 18.8489 25.799C18.833 25.9776 18.7469 26.1425 18.6095 26.2576L14.3824 29.7934L18.6095 33.3298C18.7159 33.4189 18.7923 33.5385 18.8284 33.6725C18.8644 33.8065 18.8584 33.9484 18.811 34.0788C18.7636 34.2093 18.6772 34.3219 18.5635 34.4015C18.4499 34.4811 18.3144 34.5238 18.1757 34.5238V34.5231Z" fill="#F47E51"/>
<path d="M31.6405 34.6224C31.5017 34.6224 31.3663 34.5798 31.2527 34.5002C31.139 34.4206 31.0526 34.3079 31.0052 34.1775C30.9578 34.047 30.9517 33.9052 30.9878 33.7712C31.0239 33.6372 31.1003 33.5175 31.2067 33.4285L35.4331 29.892L31.2067 26.3562C31.0721 26.2404 30.9884 26.0762 30.9739 25.8992C30.9593 25.7222 31.0151 25.5466 31.129 25.4104C31.2429 25.2742 31.4059 25.1883 31.5827 25.1713C31.7595 25.1543 31.9358 25.2076 32.0736 25.3197L36.9202 29.3737C36.996 29.4372 37.057 29.5164 37.0989 29.606C37.1407 29.6955 37.1624 29.7932 37.1624 29.892C37.1624 29.9908 37.1407 30.0885 37.0989 30.178C37.057 30.2675 36.996 30.3468 36.9202 30.4102L32.0736 34.4643C31.9523 34.5661 31.799 34.6221 31.6405 34.6224Z" fill="#F47E51"/>
</svg>
